<ttFont>
        <CharString name=".notdef">
          -346 endchar
        </CharString>
        <CharString name="A">
          35 21 -21 178 62.5 321.5 78 hstem
          -14 514 vstem
          500 hmoveto
          -124 640 rlineto
          -86 hlineto
          -304 -640 rlineto
          75 hlineto
          25 66 52 111 123 2 136 -2 21 -115 6 -62 rlineto
          -39 241 rmoveto
          -111 -1 -106 1 150 321 rlineto
          7 hlineto
          endchar
        </CharString>
        <CharString name="AE">
          253 0 61 501 78 -62 62 hstemhm
          384 73.5 -69 72 hintmask 10110000
          730 59 rmoveto
          -4 7 -156 -5 rlineto
          hintmask 10101000
          -108 hlineto
          -3 216 213 43 2 55 -5 6 rlineto
          hintmask 10110000
          -210 -45 -3 242 rlineto
          92 hlineto
          153 -4 14 59 -4 7 rlineto
          -352 hlineto
          -402 -640 rlineto
          78 hlineto
          32 66 89 142 rlineto
          hintmask 10101000
          231 53 3 -199 -2 -62 rlineto
          329 hlineto
          hintmask 11010000
          -331 320 rmoveto
          -185 -40 176 282 rlineto
          5 hlineto
          endchar
        </CharString>
        <CharString name="AEacute">
          253 0 61 501 78 -62 62 hstemhm
          385 72.5 -68 71 hintmask 10110000
          457 724 rmoveto
          9 -4 64 28 62 26 67 32 rlinecurve
          3 9 -20 44 -8 2 -68 -40 -61 -32 -62 -31 rlinecurve
          288 -699 rmoveto
          -4 7 -156 -5 rlineto
          hintmask 10101000
          -109 hlineto
          -3 216 213 43 2 55 -5 6 rlineto
          hintmask 10110000
          -210 -45 -3 242 rlineto
          93 hlineto
          153 -4 14 59 -4 7 rlineto
          -352 hlineto
          -402 -640 rlineto
          77 hlineto
          33 66 89 143 rlineto
          hintmask 10101000
          231 52 3 -199 -2 -62 rlineto
          329 hlineto
          hintmask 11010000
          -331 321 rmoveto
          -185 -41 176 282 rlineto
          5 hlineto
          endchar
        </CharString>
        <CharString name="Aacute">
          35 21 -21 178 62.5 321.5 78 hstem
          -13 514 vstem
          262 724 rmoveto
          9 -4 64 28 62 26 67 32 rlinecurve
          3 9 -20 44 -8 2 -68 -40 -61 -32 -62 -31 rlinecurve
          253 -758 rmoveto
          -124 640 rlineto
          -86 hlineto
          -304 -640 rlineto
          75 hlineto
          24 66 52 111 123 2 136 -2 21 -115 7 -62 rlineto
          -40 241 rmoveto
          -110 -1 -107 1 151 321 rlineto
          7 hlineto
          endchar
        </CharString>
        <CharString name="Abreve">
          35 21 -21 178 62.5 321.5 78 84 55 hstem
          -13 514 vstem
          343 724 rmoveto
          57 46 32 57 25 hvcurveto
          -18 26 rlineto
          -12 hlineto
          -38 -19 -34 -22 -45 hhcurveto
          -47 -29 22 38 -8 hvcurveto
          -12 hlineto
          -25 -26 rlineto
          -57 12 44 -32 65 hhcurveto
          158 -724 rmoveto
          -124 640 rlineto
          -86 hlineto
          -304 -640 rlineto
          75 hlineto
          24 66 52 111 123 2 136 -2 21 -115 7 -62 rlineto
          -40 241 rmoveto
          -110 -1 -107 1 151 321 rlineto
          7 hlineto
          endchar
        </CharString>
        <CharString name="Abreveacute">
          35 21 -21 178 62.5 321.5 78 64 55 hstem
          -13 514 vstem
          333 815 rmoveto
          8 hlineto
          33 33 32 31 31 33 -1 8 rcurveline
          -34 24 -8 -1 -29 -37 -28 -34 -30 -35 rlinecurve
          38 -133 rmoveto
          57 46 32 57 25 hvcurveto
          -18 26 rlineto
          -12 hlineto
          -38 -19 -34 -22 -45 hhcurveto
          -47 -29 22 38 -8 hvcurveto
          -12 hlineto
          -25 -26 rlineto
          -57 12 44 -32 65 hhcurveto
          156 -704 rmoveto
          -124 640 rlineto
          -86 hlineto
          -304 -640 rlineto
          75 hlineto
          24 66 52 111 123 2 136 -2 21 -115 7 -62 rlineto
          -40 241 rmoveto
          -110 -1 -107 1 151 321 rlineto
          7 hlineto
          endchar
        </CharString>
        <CharString name="Abrevedotbelow">
          35 -161 88 94 -21 178 62.5 321.5 78 84 55 hstem
          188 87 vstem
          343 724 rmoveto
          57 46 32 57 25 hvcurveto
          -18 26 rlineto
          -12 hlineto
          -38 -19 -34 -22 -45 hhcurveto
          -47 -29 22 38 -8 hvcurveto
          -12 hlineto
          -25 -26 rlineto
          -57 12 44 -32 65 hhcurveto
          158 -724 rmoveto
          -124 640 rlineto
          -86 hlineto
          -304 -640 rlineto
          75 hlineto
          24 66 52 111 123 2 136 -2 21 -115 7 -62 rlineto
          -40 241 rmoveto
          -110 -1 -107 1 151 321 rlineto
          7 hlineto
          -93 -635 rmoveto
          -28 -17 -18 -27 -27 16 -16 27 27 17 18 28 26 -16 16 -26 hvcurveto
          endchar
        </CharString>
        <CharString name="Abrevegrave">
          35 21 -21 178 62.5 321.5 78 63 55 hstem
          -13 514 vstem
          361 815 rmoveto
          26 22 -30 35 -28 34 -29 37 rlinecurve
          -7 1 -36 -24 rlineto
          -8 vlineto
          31 -33 32 -31 33 -33 rrcurveto
          -7 -112 rmoveto
          57 46 32 58 25 hvcurveto
          -18 26 rlineto
          -12 hlineto
          -39 -19 -34 -22 -45 hhcurveto
          -47 -29 22 39 -8 hvcurveto
          -12 hlineto
          -25 -26 rlineto
          -58 12 44 -32 65 hhcurveto
          155 -703 rmoveto
          -124 640 rlineto
          -86 hlineto
          -304 -640 rlineto
          75 hlineto
          24 66 52 111 123 2 136 -2 21 -115 7 -62 rlineto
          -40 241 rmoveto
          -110 -1 -107 1 151 321 rlineto
          7 hlineto
          endchar
        </CharString>
        <CharString name="Abrevehookabove">
          35 21 -21 178 62.5 321.5 78 65 54 192 42 hstem
          365 46 vstem
          339 951 rmoveto
          16 10 -7 -14 -17 -18 -24 -32 -24 hvcurveto
          32 -53 32 18 -19 34 rlineto
          35 29 16 21 24 vvcurveto
          31 -26 24 -35 -28 -31 -15 -26 -25 vhcurveto
          15 -25 rlineto
          16 19 22 8 17 hhcurveto
          6 -246 rmoveto
          57 46 32 57 25 hvcurveto
          -18 26 rlineto
          -12 hlineto
          -38 -19 -34 -23 -45 hhcurveto
          -47 -29 23 38 -8 hvcurveto
          -12 hlineto
          -25 -26 rlineto
          -57 12 44 -32 65 hhcurveto
          156 -705 rmoveto
          -124 640 rlineto
          -86 hlineto
          -304 -640 rlineto
          75 hlineto
          24 66 52 111 123 2 136 -2 21 -115 7 -62 rlineto
          -40 241 rmoveto
          -110 -1 -107 1 151 321 rlineto
          7 hlineto
          endchar
        </CharString>
        <CharString name="Abrevetilde">
          35 21 -21 178 62.5 321.5 78 64 54 hstem
          -13 522 vstem
          509 939 rmoveto
          -21 24 rlineto
          -8 hlineto
          -25 -24 -14 -20 -15 hhcurveto
          -24 -82 30 5 -39 hvcurveto
          -9 -3 -57 -64 rlineto
          -8 vlineto
          22 -23 rlineto
          8 hlineto
          24 23 15 20 14 hhcurveto
          25 82 -31 -5 39 hvcurveto
          9 3 56 66 rlineto
          -66 -115 rmoveto
          -12 hlineto
          -38 -18 -34 -21 -44 hhcurveto
          -46 -28 21 38 -8 hvcurveto
          -12 hlineto
          -24 -25 rlineto
          -56 12 42 -32 64 hhcurveto
          56 45 32 56 25 hvcurveto
          -84 -152 rmoveto
          -86 hlineto
          -304 -640 rlineto
          75 hlineto
          24 66 52 111 123 2 136 -2 21 -115 7 -62 rlineto
          76 hlineto
          -116 241 rmoveto
          -110 -1 -107 1 151 321 rlineto
          7 hlineto
          endchar
        </CharString>
        <CharString name="Acaron">
          35 21 -21 178 62.5 321.5 78 hstem
          -13 514 vstem
          348 724 rmoveto
          37 31 42 31 45 28 -12 32 rcurveline
          -9 hlineto
          -38 -22 -36 -21 -36 -23 -31 23 -31 21 -31 22 rrcurveto
          -9 hlineto
          -19 -32 36 -28 36 -31 34 -31 rlinecurve
          175 -724 rmoveto
          -124 640 rlineto
          -86 hlineto
          -304 -640 rlineto
          75 hlineto
          24 66 52 111 123 2 136 -2 21 -115 7 -62 rlineto
          -40 241 rmoveto
          -110 -1 -107 1 151 321 rlineto
          7 hlineto
          endchar
        </CharString>
        <CharString name="Acircumflex">
          35 21 -21 178 62.5 321.5 78 hstem
          -13 514 vstem
          233 732 rmoveto
          9 hlineto
          38 22 36 22 37 23 30 -23 30 -22 33 -22 rrcurveto
          8 hlineto
          20 33 -37 28 -37 30 -32 31 rlinecurve
          -22 hlineto
          -39 -31 -40 -30 -46 -28 rrcurveto
          280 -765 rmoveto
          -124 640 rlineto
          -86 hlineto
          -304 -640 rlineto
          75 hlineto
          24 66 52 111 123 2 136 -2 21 -115 7 -62 rlineto
          -40 241 rmoveto
          -110 -1 -107 1 151 321 rlineto
          7 hlineto
          endchar
        </CharString>
        <CharString name="Acircumflexacute">
          35 21 -21 178 62.5 321.5 78 hstem
          -13 520 vstem
          420 818 rmoveto
          18 12 69 87 -2 8 -36 18 -18 -15 -57 -90 rlineto
          -170 -125 rmoveto
          9 hlineto
          38 22 36 22 36 23 31 -23 30 -22 32 -22 rrcurveto
          9 hlineto
          19 33 -36 28 -37 30 -33 31 rlinecurve
          -22 hlineto
          -38 -31 -41 -30 -45 -28 rrcurveto
          165 -106 rmoveto
          -86 hlineto
          -304 -640 rlineto
          75 hlineto
          24 66 52 111 123 2 136 -2 21 -115 7 -62 rlineto
          76 hlineto
          -116 241 rmoveto
          -110 -1 -107 1 151 321 rlineto
          7 hlineto
          endchar
        </CharString>
        <CharString name="Acircumflexdotbelow">
          35 -161 88 94 -21 178 62.5 321.5 78 hstem
          188 87 vstem
          233 732 rmoveto
          9 hlineto
          38 22 36 22 37 23 30 -23 30 -22 33 -22 rrcurveto
          8 hlineto
          20 33 -37 28 -37 30 -32 31 rlinecurve
          -22 hlineto
          -39 -31 -40 -30 -46 -28 rrcurveto
          280 -765 rmoveto
          -124 640 rlineto
          -86 hlineto
          -304 -640 rlineto
          75 hlineto
          24 66 52 111 123 2 136 -2 21 -115 7 -62 rlineto
          -40 241 rmoveto
          -110 -1 -107 1 151 321 rlineto
          7 hlineto
          -93 -635 rmoveto
          -28 -17 -18 -27 -27 16 -16 27 27 17 18 28 26 -16 16 -26 hvcurveto
          endchar
        </CharString>
        <CharString name="Acircumflexgrave">
          35 21 -21 178 62.5 321.5 78 hstem
          -13 514 vstem
          434 830 rmoveto
          17 -12 26 20 -57 90 -17 14 -37 -17 -2 -9 rlineto
          -136 -204 rmoveto
          9 hlineto
          38 23 37 21 36 23 31 -23 29 -21 33 -23 rrcurveto
          8 hlineto
          20 33 -37 28 -37 30 -32 31 rlinecurve
          -22 hlineto
          -38 -31 -41 -30 -45 -28 rrcurveto
          284 -745 rmoveto
          -124 640 rlineto
          -86 hlineto
          -304 -640 rlineto
          75 hlineto
          24 66 52 111 123 2 136 -2 21 -115 7 -62 rlineto
          -40 241 rmoveto
          -110 -1 -107 1 151 321 rlineto
          7 hlineto
          endchar
        </CharString>
        <CharString name="Acircumflexhookabove">
          35 21 -21 178 62.5 321.5 78 301 40 hstem
          451 43 vstem
          425 941 rmoveto
          15 11 -7 -13 -16 -18 -23 -30 -23 hvcurveto
          29 -50 32 17 -18 32 rlineto
          33 28 15 20 22 vvcurveto
          30 -25 23 -34 -26 -30 -15 -24 -24 vhcurveto
          16 -24 rlineto
          15 17 21 8 16 hhcurveto
          -199 -228 rmoveto
          9 hlineto
          38 22 37 22 36 23 31 -23 29 -22 33 -22 rrcurveto
          8 hlineto
          20 33 -37 28 -37 30 -32 31 rlinecurve
          -22 hlineto
          -38 -31 -41 -30 -45 -28 rrcurveto
          286 -746 rmoveto
          -124 640 rlineto
          -86 hlineto
          -304 -640 rlineto
          75 hlineto
          24 66 52 111 123 2 136 -2 21 -115 7 -62 rlineto
          -40 241 rmoveto
          -110 -1 -107 1 151 321 rlineto
          7 hlineto
          endchar
        </CharString>
        <CharString name="Acircumflextilde">
          35 21 -21 178 62.5 321.5 78 hstem
          -13 540 vstem
          527 939 rmoveto
          -22 24 rlineto
          -7 hlineto
          -25 -24 -15 -20 -14 hhcurveto
          -24 -83 30 5 -39 hvcurveto
          -9 -3 -57 -64 rlineto
          -8 vlineto
          23 -23 rlineto
          7 hlineto
          24 23 15 20 14 hhcurveto
          25 82 -31 -5 40 hvcurveto
          8 3 57 66 rlineto
          -171 -152 rmoveto
          30 -23 30 -21 32 -22 rrcurveto
          9 hlineto
          20 32 -37 28 -37 31 -33 31 rlinecurve
          -21 hlineto
          -39 -31 -40 -31 -46 -28 12 -32 rcurveline
          9 hlineto
          38 22 36 21 37 23 rrcurveto
          21 -140 rmoveto
          -86 hlineto
          -304 -640 rlineto
          75 hlineto
          24 66 52 111 123 2 136 -2 21 -115 7 -62 rlineto
          76 hlineto
          -116 241 rmoveto
          -110 -1 -107 1 151 321 rlineto
          7 hlineto
          endchar
        </CharString>
        <CharString name="Adieresis">
          35 21 -21 178 62.5 321.5 78 105 85 hstem
          226 83 76 83 vstem
          267 745 rmoveto
          25 17 18 27 24 -15 17 -25 -27 -16 -17 -27 -26 15 -16 26 hvcurveto
          159 hmoveto
          25 17 17 27 25 -15 16 -24 -28 -16 -17 -27 -26 15 -15 26 hvcurveto
          75 -745 rmoveto
          -124 640 rlineto
          -86 hlineto
          -304 -640 rlineto
          75 hlineto
          24 66 52 111 123 2 136 -2 21 -115 7 -62 rlineto
          -40 241 rmoveto
          -110 -1 -107 1 151 321 rlineto
          7 hlineto
          endchar
        </CharString>
        <CharString name="Adotbelow">
          35 -161 88 94 -21 178 62.5 321.5 78 hstem
          188 87 vstem
          501 hmoveto
          -124 640 rlineto
          -86 hlineto
          -304 -640 rlineto
          75 hlineto
          24 66 52 111 123 2 136 -2 21 -115 7 -62 rlineto
          -40 241 rmoveto
          -110 -1 -107 1 151 321 rlineto
          7 hlineto
          -93 -635 rmoveto
          -28 -17 -18 -27 -27 16 -16 27 27 17 18 28 26 -16 16 -26 hvcurveto
          endchar
        </CharString>
        <CharString name="Agrave">
          35 21 -21 178 62.5 321.5 78 hstem
          -13 514 vstem
          443 727 rmoveto
          14 34 -62 31 -61 31 -68 40 rlinecurve
          -9 -2 -19 -44 3 -8 67 -32 62 -27 64 -27 rlinecurve
          67 -723 rmoveto
          -124 640 rlineto
          -86 hlineto
          -304 -640 rlineto
          75 hlineto
          24 66 52 111 123 2 136 -2 21 -115 7 -62 rlineto
          -40 241 rmoveto
          -110 -1 -107 1 151 321 rlineto
          7 hlineto
          endchar
        </CharString>
        <CharString name="Ahookabove">
          35 21 -21 178 62.5 321.5 78 210 42 hstem
          353 46 vstem
          326 850 rmoveto
          16 11 -7 -14 -17 -18 -24 -32 -24 hvcurveto
          31 -53 33 18 -19 34 rlineto
          35 29 16 21 24 vvcurveto
          31 -26 24 -36 -28 -30 -15 -26 -26 vhcurveto
          16 -25 rlineto
          16 19 21 8 17 hhcurveto
          175 -850 rmoveto
          -124 640 rlineto
          -86 hlineto
          -304 -640 rlineto
          75 hlineto
          24 66 52 111 123 2 136 -2 21 -115 7 -62 rlineto
          -40 241 rmoveto
          -110 -1 -107 1 151 321 rlineto
          7 hlineto
          endchar
        </CharString>
        <CharString name="Amacron">
          35 21 -21 178 62.5 321.5 78 124 50 hstem
          -13 514 vstem
          206 764 rmoveto
          283 hlineto
          5 45 -6 5 rlineto
          -283 hlineto
          -5 -44 rlineto
          301 -770 rmoveto
          -124 640 rlineto
          -86 hlineto
          -304 -640 rlineto
          75 hlineto
          24 66 52 111 123 2 136 -2 21 -115 7 -62 rlineto
          -40 241 rmoveto
          -110 -1 -107 1 151 321 rlineto
          7 hlineto
          endchar
        </CharString>
        <CharString name="Aogonek">
          35 -196 52 165 -21 178 62.5 321.5 78 hstem
          347 53 vstem
          491 -101 rmoveto
          -4 hlineto
          -27 -22 -19 -16 -22 hhcurveto
          -13 -11 6 21 24 15 27 66 66 hvcurveto
          20 hlineto
          -124 640 rlineto
          -86 hlineto
          -304 -640 rlineto
          75 hlineto
          24 66 52 111 123 2 136 -2 21 -115 7 -62 rlineto
          -65 -75 -13 -29 -29 vvcurveto
          -40 28 -23 36 31 28 19 32 25 vhcurveto
          -110 386 rmoveto
          -110 -1 -107 1 151 321 rlineto
          7 hlineto
          endchar
        </CharString>
        <CharString name="Aring">
          35 21 -21 178 62.5 321.5 78 74 36 89 38 hstem
          265 37 91 37 vstem
          346 714 rmoveto
          47 37 30 53 45 -28 35 -54 -52 -31 -33 -49 -52 35 -29 46 hvcurveto
          1 125 rmoveto
          31 15 -19 -26 -29 -19 -15 -26 -27 -19 16 30 27 15 16 30 hvcurveto
          154 -839 rmoveto
          -124 640 rlineto
          -86 hlineto
          -304 -640 rlineto
          75 hlineto
          24 66 52 111 123 2 136 -2 21 -115 7 -62 rlineto
          -40 241 rmoveto
          -110 -1 -107 1 151 321 rlineto
          7 hlineto
          endchar
        </CharString>
        <CharString name="Aringacute">
          38 21 -21 176.5 62.5 400 -20 109 38 hstem
          255 37 92 37 vstem
          259 788 rmoveto
          8 -6 67 18 66 15 72 22 rlinecurve
          3 7 -11 46 -9 3 -73 -27 -65 -22 -67 -20 rlinecurve
          252 -824 rmoveto
          -123 612 rlineto
          25 13 17 25 36 vvcurveto
          45 -29 35 -53 -52 -32 -33 -49 -31 12 -23 20 -13 vhcurveto
          -299 -617 rlineto
          75 hlineto
          23 65 53 110 122 3 137 -3 21 -114 7 -61 rlineto
          -89 728 rmoveto
          31 16 -19 -26 -29 -20 -15 -26 -27 -19 16 30 26 16 17 29 hvcurveto
          49 -488 rmoveto
          -111 -2 -106 2 151 317 rlineto
          7 hlineto
          endchar
        </CharString>
        <CharString name="Atilde">
          35 21 -21 178 62.5 321.5 78 hstem
          -13 516 vstem
          503 822 rmoveto
          -24 25 rlineto
          -7 hlineto
          -26 -26 -16 -20 -15 hhcurveto
          -25 -88 31 5 -42 hvcurveto
          -9 -3 -61 -67 rlineto
          -7 vlineto
          23 -25 rlineto
          9 hlineto
          25 25 16 21 15 hhcurveto
          26 88 -32 -5 41 hvcurveto
          9 4 61 67 rlineto
          -126 -175 rmoveto
          -86 hlineto
          -304 -640 rlineto
          75 hlineto
          24 66 52 111 123 2 136 -2 21 -115 7 -62 rlineto
          76 hlineto
          -116 241 rmoveto
          -110 -1 -107 1 151 321 rlineto
          7 hlineto
          endchar
        </CharString>
        <CharString name="B">
          -1 -4 63 -38 -21 296.5 62 220.5 63 hstemhm
          394 77 hintmask 10111000
          358 334 rmoveto
          71 30 41 60 84 vvcurveto
          88 -60 46 -102 vhcurveto
          -163 -2 rlineto
          -1 hlineto
          -52 -447 rlineto
          hintmask 01111000
          -29 -193 rlineto
          1 hlineto
          hintmask 10111000
          -3 37 77 -1 21 hhcurveto
          181 91 72 133 68 -38 43 -75 22 hvcurveto
          35 161 rmoveto
          -77 -37 -45 -70 -16 vhcurveto
          -105 3 31 219 rlineto
          78 hlineto
          71 32 -27 -57 hvcurveto
          -177 -436 rmoveto
          -19 -27 1 2 -25 hvcurveto
          14 137 13 97 118 1 rlineto
          69 -8 35 -34 -58 vvcurveto
          -88 -64 -50 -114 vhcurveto
          endchar
        </CharString>
        <CharString name="C">
          -13 -7 65 524 64 -49 -20 hstemhm
          47 78 hintmask 11010000
          360 646 rmoveto
          -197 -116 -147 -244 -166 81 -96 143 61 54 17 33 57 hvcurveto
          16 71 -9 5 rlineto
          -39 -51 -60 -22 -56 hhcurveto
          -101 -57 73 135 202 83 114 143 58 45 -20 -36 37 hvcurveto
          8 2 rlineto
          hintmask 10110000
          24 69 rlineto
          hintmask 11010000
          31 -42 -57 18 -64 hhcurveto
          endchar
        </CharString>
        <CharString name="C.ss01">
          -77 0 33 -33 59 380 59 -37 -20 23 34 hstemhm
          46 72 hintmask 10001100
          561 464 rmoveto
          6 34 rlineto
          -628 hlineto
          -5 -34 rlineto
          235 hlineto
          -78 -45 -45 -91 -125 vvcurveto
          -79 24 -58 47 -33 vhcurveto
          -236 hlineto
          -5 -33 rlineto
          628 hlineto
          5 33 rlineto
          -153 hlineto
          10 5 rlineto
          hintmask 01100100
          14 64 -8 3 rlineto
          -28 -38 -50 -18 -44 hhcurveto
          -79 -43 54 99 148 61 79 108 47 38 -17 -27 28 hvcurveto
          8 3 rlineto
          hintmask 10010100
          21 63 -5 3 rlineto
          endchar
        </CharString>
        <CharString name="Cacute">
          -13 -7 65 524 64 -49 -20 hstemhm
          47 79 hintmask 11010000
          455 859 rmoveto
          -8 2 -68 -40 -61 -32 -62 -31 rlinecurve
          14 -34 9 -4 64 28 62 26 67 32 rlinecurve
          3 9 rlineto
          -115 -169 rmoveto
          -197 -116 -147 -244 -166 81 -96 143 62 53 17 33 58 hvcurveto
          15 71 -8 5 rlineto
          -39 -51 -60 -22 -57 hhcurveto
          -101 -56 73 135 202 83 114 142 59 45 -20 -36 36 hvcurveto
          9 2 rlineto
          hintmask 10110000
          24 69 rlineto
          hintmask 11010000
          31 -43 -56 18 -65 hhcurveto
          endchar
        </CharString>
        <CharString name="Ccaron">
          -13 -7 65 524 64 -49 -20 hstemhm
          47 79 hintmask 11010000
          468 846 rmoveto
          -9 hlineto
          -38 -22 -36 -21 -36 -23 -31 23 -31 21 -31 22 rrcurveto
          -9 hlineto
          -19 -32 36 -28 36 -31 34 -31 rlinecurve
          22 hlineto
          37 31 42 31 45 28 rrcurveto
          -120 -168 rmoveto
          -197 -116 -147 -244 -166 81 -96 143 62 53 17 33 58 hvcurveto
          15 71 -8 5 rlineto
          -39 -51 -60 -22 -57 hhcurveto
          -101 -56 73 135 202 83 114 142 59 45 -20 -36 36 hvcurveto
          9 2 rlineto
          hintmask 10110000
          24 69 rlineto
          hintmask 11010000
          31 -43 -56 18 -65 hhcurveto
          endchar
        </CharString>
        <CharString name="Ccedilla">
          -13 -191 40 144 65 -63 63 524 64 -49 -20 hstemhm
          47 79 187 50 hintmask 11010110
          360 646 rmoveto
          -197 -116 -147 -244 -162 77 -95 137 -5 hvcurveto
          -17 -63 47 -29 rlineto
          13 -6 9 -6 -13 vvcurveto
          -18 -14 -9 -19 -24 -15 12 19 -16 vhcurveto
          -5 -2 -8 -38 rlineto
          -16 15 23 -15 34 hhcurveto
          46 33 26 39 hvcurveto
          hintmask 10110110
          22 -10 18 -28 15 vhcurveto
          -33 20 14 46 47 5 44 16 47 27 rlinecurve
          hintmask 11010110
          15 71 -8 5 rlineto
          -39 -51 -60 -22 -57 hhcurveto
          -101 -56 73 135 202 83 114 142 59 45 -20 -36 36 hvcurveto
          9 2 rlineto
          hintmask 11001110
          24 69 rlineto
          hintmask 11010110
          31 -43 -56 18 -65 hhcurveto
          endchar
        </CharString>
        <CharString name="Ccircumflex">
          -13 -7 65 524 64 -49 -20 hstemhm
          47 79 hintmask 11010000
          241 732 rmoveto
          9 hlineto
          38 22 36 22 37 23 30 -23 30 -22 33 -22 rrcurveto
          8 hlineto
          20 33 -37 28 -37 30 -32 31 rlinecurve
          -22 hlineto
          -39 -31 -40 -30 -46 -28 rrcurveto
          131 -119 rmoveto
          -197 -116 -147 -244 -166 81 -96 143 62 53 17 33 58 hvcurveto
          15 71 -8 5 rlineto
          -39 -51 -60 -22 -57 hhcurveto
          -101 -56 73 135 202 83 114 142 59 45 -20 -36 36 hvcurveto
          9 2 rlineto
          hintmask 10110000
          24 69 rlineto
          hintmask 11010000
          31 -43 -56 18 -65 hhcurveto
          endchar
        </CharString>
        <CharString name="Cdotaccent">
          -13 -7 65 524 64 -49 -20 177 89 hstemhm
          47 79 186 87 hintmask 11011100
          358 843 rmoveto
          -28 -18 -18 -27 -27 16 -17 27 27 17 18 28 27 -15 16 -26 hvcurveto
          2 -197 rmoveto
          -197 -116 -147 -244 -166 81 -96 143 62 53 17 33 58 hvcurveto
          15 71 -8 5 rlineto
          -39 -51 -60 -22 -57 hhcurveto
          -101 -56 73 135 202 83 114 142 59 45 -20 -36 36 hvcurveto
          9 2 rlineto
          hintmask 10111100
          24 69 rlineto
          hintmask 11011100
          31 -43 -56 18 -65 hhcurveto
          endchar
        </CharString>
        <CharString name="D">
          107 -6 63 -36 -21 582 63 hstemhm
          520 79 hintmask 10110000
          145 640 rmoveto
          -1 hlineto
          -52 -447 rlineto
          hintmask 01110000
          -29 -193 rlineto
          1 hlineto
          hintmask 10110000
          -3 52 114 -3 36 hhcurveto
          215 118 154 247 160 -88 90 -153 hvcurveto
          -77 -588 rmoveto
          -20 -70 3 3 -46 hvcurveto
          14 136 52 379 rlineto
          2 36 83 2 20 hhcurveto
          112 58 -67 -134 -211 -88 -113 -151 hvcurveto
          endchar
        </CharString>
        <CharString name="D.ss01">
          22 0 33 -33 57 379 62 -34 34 hstemhm
          424 71 hintmask 10011000
          661 464 rmoveto
          5 34 rlineto
          -727 hlineto
          -5 -34 rlineto
          187 hlineto
          -37 -312 -17 -119 rlineto
          -186 hlineto
          -5 -33 rlineto
          727 hlineto
          5 33 rlineto
          -245 hlineto
          85 46 47 95 128 vvcurveto
          75 -25 56 -49 31 vhcurveto
          hintmask 01101000
          -178 -407 rmoveto
          -18 -57 2 3 -31 hvcurveto
          11 96 36 274 rlineto
          2 30 61 2 17 hhcurveto
          87 45 -48 -100 -152 -66 -79 -115 hvcurveto
          endchar
        </CharString>
        <CharString name="Dcaron">
          107 -6 63 -36 -21 582 63 hstemhm
          520 79 hintmask 10110000
          350 724 rmoveto
          37 31 42 31 45 28 -12 32 rcurveline
          -9 hlineto
          -38 -22 -36 -21 -36 -23 -31 23 -31 21 -31 22 rrcurveto
          -9 hlineto
          -19 -32 36 -28 36 -31 34 -31 rlinecurve
          -183 -84 rmoveto
          -1 hlineto
          -52 -447 rlineto
          hintmask 01110000
          -29 -193 rlineto
          1 hlineto
          hintmask 10110000
          -3 52 114 -3 36 hhcurveto
          215 118 154 247 160 -88 90 -153 hvcurveto
          -77 -588 rmoveto
          -20 -71 3 3 -45 hvcurveto
          14 136 52 379 rlineto
          2 37 82 2 20 hhcurveto
          112 58 -67 -134 -211 -89 -113 -150 hvcurveto
          endchar
        </CharString>
        <CharString name="Dcroat">
          107 -6 63 -36 -21 582 63 119 50 hstemhm
          520 79 hintmask 10111000
          208 764 rmoveto
          283 hlineto
          5 45 -6 5 rlineto
          -283 hlineto
          -5 -44 rlineto
          -57 -130 rmoveto
          -1 hlineto
          -52 -447 rlineto
          hintmask 01111000
          -29 -193 rlineto
          1 hlineto
          hintmask 10111000
          -3 52 114 -3 36 hhcurveto
          215 118 154 247 160 -88 90 -153 hvcurveto
          -77 -588 rmoveto
          -20 -71 3 3 -45 hvcurveto
          14 136 52 379 rlineto
          2 37 82 2 20 hhcurveto
          112 58 -67 -134 -211 -89 -113 -150 hvcurveto
          endchar
        </CharString>
        <CharString name="Delta">
          36 0 64 498 78 hstem
          -14 514 vstem
          500 hmoveto
          -124 640 rlineto
          -86 hlineto
          -304 -640 rlineto
          332 562 rmoveto
          7 hlineto
          91 -498 rlineto
          -331 hlineto
          endchar
        </CharString>
        <CharString name="E">
          -52 0 63 234.5 61.5 218 63 hstem
          63 425 vstem
          210 576 rmoveto
          123 2 142 -4 13 59 -3 7 rlineto
          -341 hlineto
          -52 -447 -29 -193 rlineto
          340 hlineto
          13 59 -3 7 -145 -4 -122 2 14 135 13 98 109 1 106 -2 14 58 -5 7 -100 -3 -115 2 rlineto
          endchar
        </CharString>
        <CharString name="Eacute">
          -52 0 63 234.5 61.5 218 63 hstem
          63 425 vstem
          243 724 rmoveto
          9 -4 64 28 62 26 67 32 rlinecurve
          3 9 -20 44 -8 2 -68 -40 -61 -32 -62 -31 rlinecurve
          -19 -182 rmoveto
          123 2 142 -4 13 59 -3 7 rlineto
          -341 hlineto
          -52 -447 -29 -193 rlineto
          340 hlineto
          13 59 -3 7 -145 -4 -123 2 15 135 13 98 109 1 106 -2 14 58 -5 7 -100 -3 -115 2 rlineto
          endchar
        </CharString>
        <CharString name="Ebreve">
          -52 0 63 234.5 61.5 218 63 84 55 hstem
          63 425 vstem
          324 724 rmoveto
          57 46 32 57 25 hvcurveto
          -18 26 rlineto
          -12 hlineto
          -38 -19 -34 -22 -45 hhcurveto
          -47 -29 22 38 -8 hvcurveto
          -12 hlineto
          -25 -26 rlineto
          -57 12 44 -32 65 hhcurveto
          -114 -148 rmoveto
          123 2 142 -4 13 59 -3 7 rlineto
          -341 hlineto
          -52 -447 -29 -193 rlineto
          340 hlineto
          13 59 -3 7 -145 -4 -123 2 15 135 13 98 109 1 106 -2 14 58 -5 7 -100 -3 -115 2 rlineto
          endchar
        </CharString>
        <CharString name="Ecaron">
          -52 0 63 234.5 61.5 218 63 hstem
          63 425 vstem
          329 724 rmoveto
          37 31 42 31 45 28 -12 32 rcurveline
          -9 hlineto
          -38 -22 -36 -21 -36 -23 -31 23 -31 21 -31 22 rrcurveto
          -9 hlineto
          -19 -32 36 -28 36 -31 34 -31 rlinecurve
          -97 -148 rmoveto
          123 2 142 -4 13 59 -3 7 rlineto
          -341 hlineto
          -52 -447 -29 -193 rlineto
          340 hlineto
          13 59 -3 7 -145 -4 -123 2 15 135 13 98 109 1 106 -2 14 58 -5 7 -100 -3 -115 2 rlineto
          endchar
        </CharString>
        <CharString name="Ecircumflex">
          -52 0 63 234.5 61.5 218 63 hstem
          63 425 vstem
          214 732 rmoveto
          9 hlineto
          38 22 36 22 37 23 30 -23 30 -22 33 -22 rrcurveto
          8 hlineto
          20 33 -37 28 -37 30 -32 31 rlinecurve
          -22 hlineto
          -39 -31 -40 -30 -46 -28 rrcurveto
          8 -189 rmoveto
          123 2 142 -4 13 59 -3 7 rlineto
          -341 hlineto
          -52 -447 -29 -193 rlineto
          340 hlineto
          13 59 -3 7 -145 -4 -123 2 15 135 13 98 109 1 106 -2 14 58 -5 7 -100 -3 -115 2 rlineto
          endchar
        </CharString>
        <CharString name="Ecircumflexacute">
          -52 0 63 234.5 61.5 218 63 hstem
          63 425 vstem
          401 818 rmoveto
          18 12 69 87 -2 8 -36 18 -18 -15 -57 -90 rlineto
          -170 -125 rmoveto
          9 hlineto
          38 22 36 22 36 23 31 -23 30 -22 32 -22 rrcurveto
          9 hlineto
          19 33 -36 28 -37 30 -33 31 rlinecurve
          -22 hlineto
          -38 -31 -41 -30 -45 -28 rrcurveto
          292 -106 rmoveto
          -341 hlineto
          -52 -447 -29 -193 rlineto
          340 hlineto
          13 59 -3 7 -145 -4 -123 2 15 135 13 98 109 1 106 -2 14 58 -5 7 -100 -3 -115 2 28 216 123 2 142 -4 13 59 rlineto
          endchar
        </CharString>
        <CharString name="Ecircumflexdotbelow">
          -52 -161 88 73 63 234.5 61.5 218 63 hstem
          210 87 vstem
          214 732 rmoveto
          9 hlineto
          38 22 36 22 37 23 30 -23 30 -22 33 -22 rrcurveto
          8 hlineto
          20 33 -37 28 -37 30 -32 31 rlinecurve
          -22 hlineto
          -39 -31 -40 -30 -46 -28 rrcurveto
          8 -189 rmoveto
          123 2 142 -4 13 59 -3 7 rlineto
          -341 hlineto
          -52 -447 -29 -193 rlineto
          340 hlineto
          13 59 -3 7 -145 -4 -123 2 15 135 13 98 109 1 106 -2 14 58 -5 7 -100 -3 -115 2 rlineto
          73 -433 rmoveto
          -28 -17 -18 -27 -27 16 -16 27 27 17 18 28 26 -16 16 -26 hvcurveto
          endchar
        </CharString>
        <CharString name="Ecircumflexgrave">
          -52 0 63 234.5 61.5 218 63 hstem
          63 425 vstem
          415 830 rmoveto
          17 -12 26 20 -57 90 -17 14 -37 -17 -2 -9 rlineto
          -136 -204 rmoveto
          9 hlineto
          38 23 37 21 36 23 31 -23 29 -21 33 -23 rrcurveto
          8 hlineto
          20 33 -37 28 -37 30 -32 31 rlinecurve
          -22 hlineto
          -38 -31 -41 -30 -45 -28 rrcurveto
          12 -169 rmoveto
          123 2 142 -4 13 59 -3 7 rlineto
          -341 hlineto
          -52 -447 -29 -193 rlineto
          340 hlineto
          13 59 -3 7 -145 -4 -123 2 15 135 13 98 109 1 106 -2 14 58 -5 7 -100 -3 -115 2 rlineto
          endchar
        </CharString>
        <CharString name="Ecircumflexhookabove">
          -52 0 63 234.5 61.5 218 63 301 40 hstem
          432 43 vstem
          406 941 rmoveto
          15 11 -7 -13 -16 -18 -23 -30 -23 hvcurveto
          29 -50 32 17 -18 32 rlineto
          33 28 15 20 22 vvcurveto
          30 -25 23 -34 -26 -30 -15 -24 -24 vhcurveto
          16 -24 rlineto
          15 17 21 8 16 hhcurveto
          -199 -228 rmoveto
          9 hlineto
          38 22 37 22 36 23 31 -23 29 -22 33 -22 rrcurveto
          8 hlineto
          20 33 -37 28 -37 30 -32 31 rlinecurve
          -22 hlineto
          -38 -31 -41 -30 -45 -28 rrcurveto
          14 -170 rmoveto
          123 2 142 -4 13 59 -3 7 rlineto
          -341 hlineto
          -52 -447 -29 -193 rlineto
          340 hlineto
          13 59 -3 7 -145 -4 -123 2 15 135 13 98 109 1 106 -2 14 58 -5 7 -100 -3 -115 2 rlineto
          endchar
        </CharString>
        <CharString name="Ecircumflextilde">
          -52 0 63 234.5 61.5 218 63 hstem
          63 425 vstem
          415 830 rmoveto
          17 -12 26 20 -57 90 -17 14 -37 -17 -2 -9 rlineto
          -136 -204 rmoveto
          9 hlineto
          38 23 37 21 36 23 31 -23 29 -21 33 -23 rrcurveto
          8 hlineto
          20 33 -37 28 -37 30 -32 31 rlinecurve
          -22 hlineto
          -38 -31 -41 -30 -45 -28 rrcurveto
          12 -169 rmoveto
          123 2 142 -4 13 59 -3 7 rlineto
          -341 hlineto
          -52 -447 -29 -193 rlineto
          340 hlineto
          13 59 -3 7 -145 -4 -123 2 15 135 13 98 109 1 106 -2 14 58 -5 7 -100 -3 -115 2 rlineto
          endchar
        </CharString>
        <CharString name="Edieresis">
          -52 0 63 234.5 61.5 218 63 105 85 hstem
          207 83 76 83 vstem
          248 745 rmoveto
          25 17 18 27 24 -15 17 -25 -27 -16 -17 -27 -26 15 -16 26 hvcurveto
          159 hmoveto
          25 17 17 27 25 -15 16 -24 -28 -16 -17 -27 -26 15 -15 26 hvcurveto
          -197 -169 rmoveto
          123 2 142 -4 13 59 -3 7 rlineto
          -341 hlineto
          -52 -447 -29 -193 rlineto
          340 hlineto
          13 59 -3 7 -145 -4 -123 2 15 135 13 98 109 1 106 -2 14 58 -5 7 -100 -3 -115 2 rlineto
          endchar
        </CharString>
        <CharString name="Edotaccent">
          -52 0 63 234.5 61.5 218 63 114 89 hstem
          285 87 vstem
          328 754 rmoveto
          27 17 18 28 27 -15 16 -26 -28 -18 -18 -27 -27 16 -17 27 hvcurveto
          -118 -178 rmoveto
          123 2 142 -4 13 59 -3 7 rlineto
          -341 hlineto
          -52 -447 -29 -193 rlineto
          340 hlineto
          13 59 -3 7 -145 -4 -123 2 15 135 13 98 109 1 106 -2 14 58 -5 7 -100 -3 -115 2 rlineto
          endchar
        </CharString>
        <CharString name="Edotbelow">
          -52 -161 88 73 63 234.5 61.5 218 63 hstem
          210 87 vstem
          210 576 rmoveto
          123 2 142 -4 13 59 -3 7 rlineto
          -341 hlineto
          -52 -447 -29 -193 rlineto
          340 hlineto
          13 59 -3 7 -145 -4 -123 2 15 135 13 98 109 1 106 -2 14 58 -5 7 -100 -3 -115 2 rlineto
          73 -433 rmoveto
          -28 -17 -18 -27 -27 16 -16 27 27 17 18 28 26 -16 16 -26 hvcurveto
          endchar
        </CharString>
        <CharString name="Egrave">
          -52 0 63 234.5 61.5 218 63 hstem
          63 425 vstem
          424 727 rmoveto
          14 34 -62 31 -61 31 -68 40 rlinecurve
          -9 -2 -19 -44 3 -8 67 -32 62 -27 64 -27 rlinecurve
          -205 -147 rmoveto
          123 2 142 -4 13 59 -3 7 rlineto
          -341 hlineto
          -52 -447 -29 -193 rlineto
          340 hlineto
          13 59 -3 7 -145 -4 -123 2 15 135 13 98 109 1 106 -2 14 58 -5 7 -100 -3 -115 2 rlineto
          endchar
        </CharString>
        <CharString name="Ehookabove">
          -52 0 63 234.5 61.5 218 63 210 42 hstem
          334 46 vstem
          307 850 rmoveto
          16 11 -7 -14 -17 -18 -24 -32 -24 hvcurveto
          31 -53 33 18 -19 34 rlineto
          35 29 16 21 24 vvcurveto
          31 -26 24 -36 -28 -30 -15 -26 -26 vhcurveto
          16 -25 rlineto
          16 19 21 8 17 hhcurveto
          -97 -274 rmoveto
          123 2 142 -4 13 59 -3 7 rlineto
          -341 hlineto
          -52 -447 -29 -193 rlineto
          340 hlineto
          13 59 -3 7 -145 -4 -123 2 15 135 13 98 109 1 106 -2 14 58 -5 7 -100 -3 -115 2 rlineto
          endchar
        </CharString>
        <CharString name="Emacron">
          -52 0 63 234.5 61.5 218 63 124 50 hstem
          63 425 vstem
          187 764 rmoveto
          283 hlineto
          5 45 -6 5 rlineto
          -283 hlineto
          -5 -44 rlineto
          29 -194 rmoveto
          123 2 142 -4 13 59 -3 7 rlineto
          -341 hlineto
          -52 -447 -29 -193 rlineto
          340 hlineto
          13 59 -3 7 -145 -4 -123 2 15 135 13 98 109 1 106 -2 14 58 -5 7 -100 -3 -115 2 rlineto
          endchar
        </CharString>
        <CharString name="Eng">
          149 21 -21 519 121 0 -20 22 -20 hstemhm
          63 554 hintmask 10011000
          556 187 rmoveto
          61 455 -72 -5 -61 -514 rlineto
          -7 hlineto
          hintmask 10101000
          -254 517 rlineto
          -79 hlineto
          -52 -450 -29 -190 rlineto
          71 hlineto
          24 210 rlineto
          hintmask 11001000
          37 309 rlineto
          6 hlineto
          256 -517 -21 -42 -40 -32 -66 -36 rlinecurve
          -2 -9 25 -42 126 59 50 57 13 98 rlinecurve
          endchar
        </CharString>
        <CharString name="Eogonek">
          -52 -197 51 146 63 234.5 61.5 218 63 hstem
          237 50 vstem
          210 576 rmoveto
          123 2 142 -4 13 59 -3 7 rlineto
          -341 hlineto
          -52 -447 -29 -193 rlineto
          231 hlineto
          -32 -46 rlineto
          -17 -25 -8 -24 -24 vvcurveto
          -45 31 -33 47 35 30 19 34 32 vhcurveto
          -11 38 rlineto
          -4 hlineto
          -25 -22 -25 -15 -23 hhcurveto
          -27 -13 17 24 15 6 16 11 19 hvcurveto
          36 55 rlineto
          63 hlineto
          13 59 -3 7 -145 -4 -123 2 15 135 13 98 109 1 106 -2 14 58 -5 7 -100 -3 -115 2 rlineto
          endchar
        </CharString>
        <CharString name="Eth">
          131 -6 63 -36 -21 298 54 230 63 hstemhm
          122 54 368 79 hintmask 10111100
          168 640 rmoveto
          -1 hlineto
          -33 -288 rlineto
          -97 hlineto
          -6 -48 3 -6 rlineto
          94 hlineto
          -12 -105 rlineto
          hintmask 01111100
          -29 -193 rlineto
          hintmask 10111100
          -3 52 114 -3 36 hhcurveto
          215 119 154 247 160 -88 90 -154 hvcurveto
          -77 -588 rmoveto
          -19 -71 3 3 -45 hvcurveto
          14 136 13 99 rlineto
          161 hlineto
          5 47 -3 7 rlineto
          -155 hlineto
          31 226 rlineto
          2 37 81 2 20 hhcurveto
          113 58 -67 -134 -211 -89 -113 -151 hvcurveto
          endchar
        </CharString>
        <CharString name="Etilde">
          -52 0 63 234.5 61.5 218 63 hstem
          63 425 vstem
          194 735 rmoveto
          9 hlineto
          25 25 16 21 15 hhcurveto
          26 88 -32 -5 41 hvcurveto
          9 4 61 67 rlineto
          7 vlineto
          -24 25 rlineto
          -7 hlineto
          -26 -26 -16 -20 -15 hhcurveto
          -25 -88 31 5 -42 hvcurveto
          -9 -3 -61 -67 rlineto
          -7 vlineto
          39 -184 rmoveto
          123 2 142 -4 13 59 -3 7 rlineto
          -341 hlineto
          -52 -447 -29 -193 rlineto
          340 hlineto
          13 59 -3 7 -145 -4 -123 2 15 135 13 98 109 1 106 -2 14 58 -5 7 -100 -3 -115 2 rlineto
          endchar
        </CharString>
        <CharString name="Euro">
          -20 -6 53 114 45 70 44 129 52 -37 -20 hstemhm
          96 60 hintmask 11110100
          353 501 rmoveto
          -123 -83 -64 -117 -37 hvcurveto
          -76 hlineto
          -8 -39 3 -5 rlineto
          71 hlineto
          -4 -23 -2 -24 -2 -23 rrcurveto
          -71 hlineto
          -8 -40 3 -5 rlineto
          76 hlineto
          -108 9 64 -59 117 hhcurveto
          45 50 14 26 45 hvcurveto
          11 49 -8 5 rlineto
          -26 -40 -51 -15 -43 hhcurveto
          -77 -45 40 74 -11 hvcurveto
          186 hlineto
          8 40 -3 5 rlineto
          -193 hlineto
          23 2 24 5 23 vhcurveto
          195 hlineto
          9 40 -4 4 rlineto
          -188 hlineto
          85 27 59 44 84 hhcurveto
          42 42 -13 -24 31 hvcurveto
          7 2 rlineto
          hintmask 11101100
          18 50 rlineto
          hintmask 11110100
          23 -36 -48 14 -48 hhcurveto
          endchar
        </CharString>
        <CharString name="F">
          -98 21 -21 285.5 61.5 230 63 -7 7 hstemhm
          63 409 hintmask 11101000
          210 576 rmoveto
          109 2 137 -5 rlineto
          hintmask 11011000
          16 60 -5 7 rlineto
          hintmask 11101000
          -323 hlineto
          -52 -447 -29 -193 rlineto
          76 hlineto
          21 199 12 86 96 1 105 -3 14 58 -4 7 -100 -2 -103 2 rlineto
          endchar
        </CharString>
        <CharString name="G">
          62 -7 65 524 64 hstem
          45 77 315.5 56.5 vstem
          381 646 rmoveto
          -214 -122 -145 -253 -160 82 -95 162 70 53 12 26 75 hvcurveto
          14 139 12 86 -71 -6 -9 -90 -13 -78 rlineto
          -19 -59 -31 -5 -36 hhcurveto
          -117 -55 63 134 214 86 113 160 57 45 -16 -39 56 hvcurveto
          9 2 25 71 rlineto
          32 -58 -59 14 -62 hhcurveto
          endchar
        </CharString>
        <CharString name="Gbreve">
          62 -7 65 524 64 78 55 hstem
          45 77 316 56 vstem
          474 839 rmoveto
          -12 hlineto
          -38 -19 -34 -22 -45 hhcurveto
          -47 -29 22 38 -8 hvcurveto
          -12 hlineto
          -25 -26 rlineto
          -57 12 44 -32 65 hhcurveto
          57 46 32 57 25 hvcurveto
          -111 -167 rmoveto
          -214 -122 -145 -253 -160 82 -95 162 70 53 12 26 75 hvcurveto
          14 139 12 86 -70 -6 -10 -90 -13 -78 rlineto
          -19 -59 -31 -5 -36 hhcurveto
          -117 -55 63 134 214 86 113 160 57 45 -16 -39 56 hvcurveto
          9 2 26 71 rlineto
          32 -59 -59 14 -62 hhcurveto
          endchar
        </CharString>
        <CharString name="Gcircumflex">
          62 -7 65 524 64 hstem
          45 77 316 56 vstem
          254 732 rmoveto
          9 hlineto
          38 22 36 22 37 23 30 -23 30 -22 33 -22 rrcurveto
          8 hlineto
          20 33 -37 28 -37 30 -32 31 rlinecurve
          -22 hlineto
          -39 -31 -40 -30 -46 -28 rrcurveto
          139 -119 rmoveto
          -214 -122 -145 -253 -160 82 -95 162 70 53 12 26 75 hvcurveto
          14 139 12 86 -70 -6 -10 -90 -13 -78 rlineto
          -19 -59 -31 -5 -36 hhcurveto
          -117 -55 63 134 214 86 113 160 57 45 -16 -39 56 hvcurveto
          9 2 26 71 rlineto
          32 -59 -59 14 -62 hhcurveto
          endchar
        </CharString>
        <CharString name="Gcommaaccent">
          62 -7 65 524 64 hstem
          45 77 167 58 91 56 vstem
          381 646 rmoveto
          -214 -122 -145 -253 -160 82 -95 162 70 53 12 26 75 hvcurveto
          14 139 12 86 -70 -6 -10 -90 -13 -78 rlineto
          -19 -59 -31 -5 -36 hhcurveto
          -117 -55 63 134 214 86 113 160 57 45 -16 -39 56 hvcurveto
          9 2 26 71 rlineto
          32 -59 -59 14 -62 hhcurveto
          -73 -703 rmoveto
          -18 -6 -15 -8 -15 -10 rrcurveto
          -6 vlineto
          18 -13 11 -14 -17 vvcurveto
          -27 -18 -28 -33 -27 vhcurveto
          -1 -6 25 -22 rlineto
          57 42 28 41 39 vvcurveto
          26 -14 20 -25 16 vhcurveto
          endchar
        </CharString>
        <CharString name="Gdieresis">
          62 -7 65 524 64 99 85 hstemhm
          45 77 125 83 76 83 -51 56 hintmask 11111100
          290 831 rmoveto
          -27 -16 -17 -27 -26 15 -16 26 25 17 18 27 24 -15 17 -25 hvcurveto
          160 -1 rmoveto
          -28 -16 -17 -27 -26 15 -15 26 25 17 17 27 25 -15 16 -24 hvcurveto
          -69 -184 rmoveto
          -214 -122 -145 -253 -160 82 -95 162 hvcurveto
          hintmask 11111010
          70 53 12 26 75 hvcurveto
          14 139 12 86 -70 -6 -10 -90 -13 -78 rlineto
          -19 -59 -31 -5 -36 hhcurveto
          -117 -55 63 134 214 86 113 160 57 45 -16 -39 56 hvcurveto
          9 2 26 71 rlineto
          hintmask 11111100
          32 -59 -59 14 -62 hhcurveto
          endchar
        </CharString>
        <CharString name="Gdotaccent">
          62 -7 65 524 64 108 89 hstemhm
          45 77 203 87 26 56 hintmask 11111000
          371 843 rmoveto
          -28 -18 -18 -27 -27 16 -17 27 27 17 18 28 27 -15 16 -26 hvcurveto
          10 -197 rmoveto
          -214 -122 -145 -253 -160 82 -95 162 hvcurveto
          hintmask 11111100
          70 53 12 26 75 hvcurveto
          14 139 12 86 -70 -6 -10 -90 -13 -78 rlineto
          -19 -59 -31 -5 -36 hhcurveto
          -117 -55 63 134 214 86 113 160 57 45 -16 -39 56 hvcurveto
          9 2 26 71 rlineto
          hintmask 11111000
          32 -59 -59 14 -62 hhcurveto
          endchar
        </CharString>
        <CharString name="Germandbls">
          89 -7 62 -34 -21 583 63 hstemhm
          491 75 hintmask 10110000
          360 646 rmoveto
          -144 -99 -89 -132 -16 hvcurveto
          -26 -235 rlineto
          hintmask 01110000
          -29 -190 rlineto
          76 hlineto
          21 200 30 224 rlineto
          99 13 63 60 101 hhcurveto
          42 42 -11 -24 44 hvcurveto
          -183 -211 1 -17 rlineto
          137 -38 58 -39 -71 vvcurveto
          hintmask 10110000
          -67 -52 -50 -69 -46 -51 22 42 -40 vhcurveto
          -10 -4 -20 -77 rlineto
          -29 46 59 -16 50 hhcurveto
          113 95 77 116 92 -59 43 -115 41 hvcurveto
          182 206 -2 16 rlineto
          37 -68 -68 25 -76 hhcurveto
          endchar
        </CharString>
        <CharString name="Gtilde">
          62 -7 65 524 64 hstem
          45 77 316 56 vstem
          524 822 rmoveto
          -24 25 rlineto
          -7 hlineto
          -26 -26 -16 -20 -15 hhcurveto
          -25 -88 31 5 -42 hvcurveto
          -9 -3 -61 -67 rlineto
          -7 vlineto
          23 -25 rlineto
          9 hlineto
          25 25 16 21 15 hhcurveto
          26 88 -32 -5 41 hvcurveto
          9 4 61 67 rlineto
          -143 -169 rmoveto
          -214 -122 -145 -253 -160 82 -95 162 70 53 12 26 75 hvcurveto
          14 139 12 86 -70 -6 -10 -90 -13 -78 rlineto
          -19 -59 -31 -5 -36 hhcurveto
          -117 -55 63 134 214 86 113 160 57 45 -16 -39 56 hvcurveto
          9 2 26 71 rlineto
          32 -59 -59 14 -62 hhcurveto
          endchar
        </CharString>
        <CharString name="H">
          140 21 -21 292.5 63 284.5 -20 hstem
          63 551 vstem
          614 640 rmoveto
          -76 hlineto
          -32 -283 -164 -3 -162 3 39 283 rlineto
          -76 hlineto
          -51 -447 -29 -193 rlineto
          76 hlineto
          20 199 13 92 156 3 170 -3 -11 -98 -28 -193 rlineto
          75 hlineto
          21 199 rlineto
          endchar
        </CharString>
        <CharString name="Hbar">
          167 21 -21 292.5 63 122.5 54 -54 162 hstemhm
          74 601 -131 129 hintmask 00000000
          hintmask 11100100
          671 478 rmoveto
          4 48 -4 6 rlineto
          -59 hlineto
          hintmask 11010100
          14 108 rlineto
          -76 hlineto
          hintmask 11100100
          -12 -108 rlineto
          -322 hlineto
          hintmask 11011000
          14 108 rlineto
          -75 hlineto
          hintmask 11100100
          -13 -108 rlineto
          -64 hlineto
          -4 -49 3 -5 rlineto
          59 hlineto
          -33 -285 -28 -193 rlineto
          75 hlineto
          21 199 12 92 156 3 171 -3 -11 -98 -28 -193 rlineto
          74 hlineto
          22 199 37 279 rlineto
          -72 hmoveto
          -14 -121 -164 -3 -162 3 16 121 rlineto
          endchar
        </CharString>
        <CharString name="Hcircumflex">
          140 21 -21 292.5 63 284.5 -20 hstem
          63 551 vstem
          283 732 rmoveto
          9 hlineto
          38 22 36 22 37 23 30 -23 30 -22 33 -22 rrcurveto
          8 hlineto
          20 33 -37 28 -37 30 -32 31 rlinecurve
          -22 hlineto
          -39 -31 -40 -30 -46 -28 rrcurveto
          343 -125 rmoveto
          -76 hlineto
          -32 -283 -163 -3 -163 3 38 283 rlineto
          -75 hlineto
          -52 -447 -28 -193 rlineto
          75 hlineto
          21 199 12 92 157 3 170 -3 -11 -98 -28 -193 rlineto
          75 hlineto
          21 199 rlineto
          endchar
        </CharString>
        <CharString name="I">
          -254 21 -21 640 -20 hstem
          63 156 vstem
          159 199 rmoveto
          60 441 rlineto
          -76 hlineto
          -51 -447 -29 -193 rlineto
          76 hlineto
          endchar
        </CharString>
        <CharString name="I.ss01">
          -269 0 33 431 34 hstem
          -124 498 vstem
          144 156 rmoveto
          41 308 rlineto
          185 hlineto
          4 34 rlineto
          -435 hlineto
          -5 -34 rlineto
          181 hlineto
          -37 -314 -16 -117 rlineto
          -181 hlineto
          -5 -33 rlineto
          436 hlineto
          4 33 rlineto
          -186 hlineto
          endchar
        </CharString>
        <CharString name="IJ">
          42 -80 -21 122 -21 578.5 61.5 -55 -20 hstemhm
          379.5 69 hintmask 11101000
          143 640 rmoveto
          -52 -447 -28 -193 rlineto
          75 hlineto
          21 199 59 441 rlineto
          293 hmoveto
          -197 hlineto
          hintmask 11011000
          -12 -55 7 -7 rlineto
          hintmask 11101000
          119 1 -43 -374 -11 -87 -10 -76 -42 -43 -93 -49 rlinecurve
          -1 -9 24 -42 127 60 52 59 13 100 rlinecurve
          9 94 rlineto
          endchar
        </CharString>
        <CharString name="Iacute">
          -254 21 -21 640 -20 hstem
          63 256 vstem
          299 859 rmoveto
          -8 2 -68 -40 -61 -32 -62 -31 rlinecurve
          14 -34 9 -4 64 28 62 26 67 32 rlinecurve
          3 9 rlineto
          -160 -616 rmoveto
          59 441 rlineto
          -75 hlineto
          -52 -447 -28 -193 rlineto
          75 hlineto
          endchar
        </CharString>
        <CharString name="Iacute_J.loclNLD">
          42 -80 -21 122 -21 578.5 61.5 -55 -20 hstemhm
          379.5 69 hintmask 11101000
          114 724 rmoveto
          9 -4 64 28 62 26 67 32 rlinecurve
          3 9 -20 44 -8 2 -68 -40 -61 -32 -62 -31 rlinecurve
          467 57 rmoveto
          -20 44 -8 2 -68 -40 -61 -32 -62 -31 rlinecurve
          14 -34 9 -4 64 28 62 26 67 32 rlinecurve
          -421 -166 rmoveto
          -52 -447 -28 -193 rlineto
          75 hlineto
          21 199 59 441 rlineto
          293 hmoveto
          -197 hlineto
          hintmask 11011000
          -12 -55 7 -7 rlineto
          hintmask 11101000
          119 1 -43 -374 -11 -87 -10 -76 -42 -43 -93 -49 rlinecurve
          -1 -9 24 -42 127 60 52 59 13 100 rlinecurve
          9 94 rlineto
          endchar
        </CharString>
        <CharString name="Ibreve">
          -254 21 -21 640 -20 104 55 hstem
          63 260 vstem
          305 839 rmoveto
          -12 hlineto
          -38 -19 -34 -22 -45 hhcurveto
          -47 -29 22 38 -8 hvcurveto
          -12 hlineto
          -25 -26 rlineto
          -57 12 44 -32 65 hhcurveto
          57 46 32 57 25 hvcurveto
          -164 -614 rmoveto
          59 441 rlineto
          -75 hlineto
          -52 -447 -28 -193 rlineto
          75 hlineto
          endchar
        </CharString>
        <CharString name="Icaron">
          -254 21 -21 640 -20 hstem
          63 261 vstem
          312 846 rmoveto
          -9 hlineto
          -38 -22 -36 -21 -36 -23 -31 23 -31 21 -31 22 rrcurveto
          -9 hlineto
          -19 -32 36 -28 36 -31 34 -31 rlinecurve
          22 hlineto
          37 31 42 31 45 28 rrcurveto
          -165 -615 rmoveto
          59 441 rlineto
          -75 hlineto
          -52 -447 -28 -193 rlineto
          75 hlineto
          endchar
        </CharString>
        <CharString name="Icircumflex">
          -254 21 -21 640 -20 hstem
          63 263 vstem
          85 732 rmoveto
          9 hlineto
          38 22 36 22 37 23 30 -23 30 -22 33 -22 rrcurveto
          8 hlineto
          20 33 -37 28 -37 30 -32 31 rlinecurve
          -22 hlineto
          -39 -31 -40 -30 -46 -28 rrcurveto
          86 -566 rmoveto
          59 441 rlineto
          -75 hlineto
          -52 -447 -28 -193 rlineto
          75 hlineto
          endchar
        </CharString>
        <CharString name="Idieresis">
          -254 21 -21 640 -20 125 85 hstem
          95 83 42 83 vstem
          139 830 rmoveto
          -27 -17 -17 -27 -26 15 -15 26 26 16 17 27 25 -15 16 -24 hvcurveto
          124 hmoveto
          -27 -16 -17 -27 -26 14 -15 27 25 17 17 27 25 -15 16 -25 hvcurveto
          -104 -631 rmoveto
          59 441 rlineto
          -75 hlineto
          -52 -447 -28 -193 rlineto
          75 hlineto
          endchar
        </CharString>
        <CharString name="Idotaccent">
          -254 21 -21 640 -20 134 89 hstem
          156 87 vstem
          202 843 rmoveto
          -28 -18 -18 -27 -27 16 -17 27 27 17 18 28 27 -15 16 -26 hvcurveto
          -43 -644 rmoveto
          59 441 rlineto
          -75 hlineto
          -52 -447 -28 -193 rlineto
          75 hlineto
          endchar
        </CharString>
        <CharString name="Idotbelow">
          -254 -161 88 94 -21 640 -20 hstem
          49 87 vstem
          159 199 rmoveto
          59 441 rlineto
          -75 hlineto
          -52 -447 -28 -193 rlineto
          75 hlineto
          -44 -73 rmoveto
          -28 -17 -18 -27 -27 16 -16 27 27 17 18 28 26 -16 16 -26 hvcurveto
          endchar
        </CharString>
        <CharString name="Igrave">
          -254 21 -21 640 -20 hstem
          63 245 vstem
          108 861 rmoveto
          -19 -44 3 -8 67 -32 62 -27 64 -27 rlinecurve
          9 4 14 34 -62 31 -61 31 -68 40 rlinecurve
          42 -664 rmoveto
          59 441 rlineto
          -75 hlineto
          -52 -447 -28 -193 rlineto
          75 hlineto
          endchar
        </CharString>
        <CharString name="Ihookabove">
          -254 21 -21 640 -20 230 42 hstem
          204 46 vstem
          188 892 rmoveto
          -28 -30 -15 -26 -26 hvcurveto
          16 -25 rlineto
          16 19 21 8 17 hhcurveto
          16 11 -7 -14 -17 -18 -24 -32 -24 hvcurveto
          31 -53 33 18 -19 34 rlineto
          35 29 16 21 24 vvcurveto
          31 -26 24 -36 vhcurveto
          -29 -693 rmoveto
          59 441 rlineto
          -75 hlineto
          -52 -447 -28 -193 rlineto
          75 hlineto
          endchar
        </CharString>
        <CharString name="Imacron">
          -254 21 -21 640 -20 144 50 hstem
          63 248 vstem
          311 809 rmoveto
          -5 5 rlineto
          -216 hlineto
          -4 -44 5 -6 rlineto
          217 hlineto
          -149 -565 rmoveto
          59 441 rlineto
          -75 hlineto
          -52 -447 -28 -193 rlineto
          75 hlineto
          endchar
        </CharString>
        <CharString name="Iogonek">
          -254 -197 52 166 -21 640 -20 hstem
          -14 50 vstem
          218 640 rmoveto
          -75 hlineto
          -52 -447 -28 -191 rlineto
          -59 -70 -18 -29 -32 vvcurveto
          -41 28 -27 39 32 26 19 29 26 vhcurveto
          -14 39 rlineto
          -3 hlineto
          -24 -18 -20 -11 -18 hhcurveto
          -16 -12 9 19 21 16 26 60 70 hvcurveto
          26 hlineto
          21 199 rlineto
          endchar
        </CharString>
        <CharString name="Itilde">
          -254 21 -21 640 -20 hstem
          61 277 vstem
          338 819 rmoveto
          -23 25 rlineto
          -8 hlineto
          -25 -22 -13 -20 -15 hhcurveto
          -21 -74 31 5 -38 hvcurveto
          -8 -4 -55 -66 rlineto
          -7 vlineto
          24 -25 rlineto
          7 hlineto
          25 22 13 20 15 hhcurveto
          21 75 -31 -5 37 hvcurveto
          8 3 55 67 rlineto
          -179 -613 rmoveto
          59 441 rlineto
          -75 hlineto
          -52 -447 -28 -193 rlineto
          75 hlineto
          endchar
        </CharString>
        <CharString name="J">
          -216 -80 -21 679.5 61.5 -55 -20 hstemhm
          120.5 69 hintmask 11010000
          252 640 rmoveto
          -197 hlineto
          hintmask 10110000
          -12 -55 7 -7 rlineto
          hintmask 11010000
          119 1 -43 -374 -11 -87 -10 -76 -42 -43 -93 -49 rlinecurve
          -1 -9 24 -42 127 60 52 59 13 100 rlinecurve
          9 94 rlineto
          endchar
        </CharString>
        <CharString name="Jcircumflex">
          -216 -80 -21 679.5 61.5 -55 -20 hstemhm
          120.5 69 hintmask 11010000
          188 854 rmoveto
          -39 -31 -40 -30 -46 -28 12 -33 rcurveline
          9 hlineto
          38 22 36 22 37 23 30 -23 30 -22 33 -22 rrcurveto
          8 hlineto
          20 33 -37 28 -37 30 -32 31 rlinecurve
          42 -214 rmoveto
          -197 hlineto
          hintmask 10110000
          -12 -55 7 -7 rlineto
          hintmask 11010000
          119 1 -43 -374 -11 -87 -10 -76 -42 -43 -93 -49 rlinecurve
          -1 -9 24 -42 128 60 51 59 13 100 rlinecurve
          9 94 rlineto
          endchar
        </CharString>
        <CharString name="K">
          7 12 -21 30 -21 640 -20 hstemhm
          62 494 hintmask 01110000
          159 199 rmoveto
          60 441 rlineto
          -76 hlineto
          -51 -447 -30 -193 rlineto
          76 hlineto
          418 640 rmoveto
          -85 hlineto
          -45 -54 -235 -244 -1 -6 rlineto
          hintmask 10110000
          68 -117 77 -114 77 -109 7 -5 rcurveline
          26 4 23 5 24 7 3 9 rcurveline
          -80 101 -77 110 -67 111 rrcurveto
          endchar
        </CharString>
        <CharString name="Kcommaaccent">
          7 12 -21 30 -21 640 -20 hstemhm
          255 58 hintmask 01110000
          159 199 rmoveto
          59 441 rlineto
          -75 hlineto
          -52 -447 -29 -193 rlineto
          75 hlineto
          419 640 rmoveto
          -85 hlineto
          -45 -54 -235 -244 -1 -6 rlineto
          hintmask 10110000
          68 -117 76 -114 78 -109 7 -5 rcurveline
          25 4 24 5 24 7 3 9 rcurveline
          -80 101 -78 110 -66 111 rrcurveto
          3 -395 rmoveto
          -18 -6 -15 -8 -15 -10 rrcurveto
          -6 vlineto
          18 -13 11 -14 -17 vvcurveto
          -27 -18 -28 -33 -27 vhcurveto
          -1 -6 25 -22 rlineto
          57 42 28 41 39 vvcurveto
          26 -14 20 -25 16 vhcurveto
          endchar
        </CharString>
        <CharString name="L">
          -117 0 64 576 -20 hstem
          61 312 vstem
          373 56 rmoveto
          -3 8 rlineto
          -227 hlineto
          15 135 59 441 rlineto
          -76 hlineto
          -51 -447 -29 -193 rlineto
          299 hlineto
          endchar
        </CharString>
        <CharString name="L.ss01">
          -142 0 33 -33 60 404 34 hstemhm
          -124 626 hintmask 10110000
          144 168 rmoveto
          40 296 rlineto
          313 hlineto
          5 34 rlineto
          -563 hlineto
          -5 -34 rlineto
          181 hlineto
          -37 -302 -17 -129 rlineto
          -180 hlineto
          -5 -33 rlineto
          562 hlineto
          5 33 rlineto
          -113 hlineto
          hintmask 01110000
          16 116 -50 -3 -14 -86 rlineto
          -152 hlineto
          endchar
        </CharString>
        <CharString name="Lacute">
          -117 0 64 576 -20 hstem
          61 313 vstem
          114 724 rmoveto
          9 -4 64 28 62 26 67 32 rlinecurve
          3 9 -20 44 -8 2 -68 -40 -61 -32 -62 -31 rlinecurve
          274 -702 rmoveto
          -4 8 rlineto
          -227 hlineto
          15 135 59 441 rlineto
          -75 hlineto
          -52 -447 -29 -193 rlineto
          299 hlineto
          endchar
        </CharString>
        <CharString name="Lcaron">
          -109 0 64 576 -20 hstem
          61 358 vstem
          370 64 rmoveto
          -227 hlineto
          15 135 59 441 rlineto
          -75 hlineto
          -52 -447 -29 -193 rlineto
          299 hlineto
          14 56 rlineto
          45 520 rmoveto
          -5 6 -55 -4 -26 -172 5 -6 38 6 rlineto
          endchar
        </CharString>
        <CharString name="Lcommaaccent">
          -117 0 64 576 -20 hstem
          181 58 vstem
          374 56 rmoveto
          -4 8 rlineto
          -227 hlineto
          15 135 59 441 rlineto
          -75 hlineto
          -52 -447 -29 -193 rlineto
          299 hlineto
          -160 -57 rmoveto
          -18 -6 -15 -8 -15 -10 rrcurveto
          -6 vlineto
          18 -13 11 -14 -17 vvcurveto
          -27 -18 -28 -33 -27 vhcurveto
          -1 -6 25 -22 rlineto
          57 42 28 41 39 vvcurveto
          26 -14 20 -25 16 vhcurveto
          endchar
        </CharString>
        <CharString name="Ldot">
          -117 0 64 268 89 219 -20 hstem
          285 87 vstem
          374 56 rmoveto
          -4 8 rlineto
          -227 hlineto
          15 135 59 441 rlineto
          -75 hlineto
          -52 -447 -29 -193 rlineto
          299 hlineto
          -32 332 rmoveto
          27 17 19 28 26 -16 16 -26 -28 -17 -18 -27 -27 16 -17 27 hvcurveto
          endchar
        </CharString>
        <CharString name="Lslash">
          -107 0 64 398 -20 198 -20 hstemhm
          19 363 -277.5 54.5 hintmask 11110000
          382 56 rmoveto
          -4 8 rlineto
          hintmask 11101000
          -226 hlineto
          14 135 18 131 159 83 -9 45 -8 4 -134 -69 34 247 rlineto
          -76 hlineto
          -33 -286 -98 -51 8 -45 8 -5 75 39 -11 -99 -30 -193 rlineto
          300 hlineto
          endchar
        </CharString>
        <CharString name="M">
          240 21 -21 74 98 349 119 hstem
          612 63 vstem
          664 hmoveto
          22 640 rlineto
          -85 hlineto
          -42 -91 -187 -377 rlineto
          -7 hlineto
          -85 371 -20 97 rlineto
          -85 hlineto
          -144 -640 rlineto
          64 hlineto
          42 201 71 320 rlineto
          7 hlineto
          106 -447 rlineto
          63 hlineto
          226 447 rlineto
          6 hlineto
          -8 -326 -11 -195 rlineto
          endchar
        </CharString>
        <CharString name="M.ss01">
          134 0 33 50 87 220 108 -34 34 hstemhm
          499.5 54.5 hintmask 11011000
          560 464 rmoveto
          213 hlineto
          5 34 rlineto
          -839 hlineto
          -5 -34 rlineto
          212 hlineto
          -100 -431 rlineto
          -165 hlineto
          -5 -33 rlineto
          838 hlineto
          4 33 rlineto
          -170 hlineto
          -74 431 rmoveto
          -21 -40 -135 -254 rlineto
          -6 hlineto
          -68 251 -10 43 rlineto
          255 -431 rmoveto
          -385 hlineto
          27 135 rlineto
          hintmask 11101000
          52 222 rlineto
          4 hlineto
          86 -307 rlineto
          55 hlineto
          168 307 rlineto
          6 hlineto
          -5 -226 rlineto
          endchar
        </CharString>
        <CharString name="N">
          140 0 120 -99 -21 520 120 0 -20 22 -20 hstemhm
          63 552 hintmask 01001100
          553 187 rmoveto
          62 455 -71 -5 rlineto
          hintmask 10010100
          -64 -517 rlineto
          -6 hlineto
          -251 520 rlineto
          -78 hlineto
          -54 -450 -28 -190 rlineto
          71 hlineto
          23 210 rlineto
          hintmask 01100100
          39 310 rlineto
          7 hlineto
          251 -520 rlineto
          78 hlineto
          endchar
        </CharString>
        <CharString name="Nacute">
          140 0 120 -99 -21 520 120 0 -20 22 -20 hstemhm
          63 552 hintmask 01001100
          497 859 rmoveto
          -8 2 -68 -40 -61 -32 -62 -31 rlinecurve
          14 -34 9 -4 64 28 62 26 67 32 rlinecurve
          3 9 rlineto
          36 -628 rmoveto
          62 455 -71 -5 rlineto
          hintmask 10010100
          -64 -517 rlineto
          -6 hlineto
          -251 520 rlineto
          -78 hlineto
          -54 -450 -28 -190 rlineto
          70 hlineto
          24 210 rlineto
          hintmask 01100100
          39 310 rlineto
          6 hlineto
          252 -520 rlineto
          78 hlineto
          endchar
        </CharString>
        <CharString name="Ncaron">
          140 0 120 -99 -21 520 120 0 -20 22 -20 hstemhm
          63 552 hintmask 01001100
          510 846 rmoveto
          -9 hlineto
          -38 -22 -36 -21 -36 -23 -31 23 -31 21 -31 22 rrcurveto
          -9 hlineto
          -19 -32 36 -28 36 -31 34 -31 rlinecurve
          22 hlineto
          37 31 42 31 45 28 rrcurveto
          31 -627 rmoveto
          62 455 -71 -5 rlineto
          hintmask 10010100
          -64 -517 rlineto
          -6 hlineto
          -251 520 rlineto
          -78 hlineto
          -54 -450 -28 -190 rlineto
          70 hlineto
          24 210 rlineto
          hintmask 01100100
          39 310 rlineto
          6 hlineto
          252 -520 rlineto
          78 hlineto
          endchar
        </CharString>
        <CharString name="Ncommaaccent">
          140 0 120 -99 -21 520 120 0 -20 22 -20 hstemhm
          279 58 hintmask 01001100
          553 187 rmoveto
          62 455 -71 -5 rlineto
          hintmask 10010100
          -64 -517 rlineto
          -6 hlineto
          -251 520 rlineto
          -78 hlineto
          -54 -450 -28 -190 rlineto
          70 hlineto
          24 210 rlineto
          hintmask 01100100
          39 310 rlineto
          6 hlineto
          252 -520 rlineto
          78 hlineto
          -234 -57 rmoveto
          -18 -6 -15 -8 -15 -10 rrcurveto
          -6 vlineto
          18 -13 11 -14 -17 vvcurveto
          -27 -18 -28 -33 -27 vhcurveto
          -1 -6 25 -22 rlineto
          57 42 28 41 39 vvcurveto
          26 -14 20 -25 16 vhcurveto
          endchar
        </CharString>
        <CharString name="Ntilde">
          140 0 120 -99 -21 520 120 0 -20 22 -20 hstemhm
          63 552 hintmask 01001100
          553 822 rmoveto
          -24 25 rlineto
          -7 hlineto
          -26 -26 -16 -20 -15 hhcurveto
          -25 -88 31 5 -42 hvcurveto
          -9 -3 -61 -67 rlineto
          -7 vlineto
          23 -25 rlineto
          9 hlineto
          25 25 16 21 15 hhcurveto
          26 88 -32 -5 41 hvcurveto
          9 4 61 67 rlineto
          -628 vmoveto
          62 455 -71 -5 rlineto
          hintmask 10010100
          -64 -517 rlineto
          -6 hlineto
          -251 520 rlineto
          -78 hlineto
          -54 -450 -28 -190 rlineto
          70 hlineto
          24 210 rlineto
          hintmask 01100100
          39 310 rlineto
          6 hlineto
          252 -520 rlineto
          78 hlineto
          endchar
        </CharString>
        <CharString name="O">
          98 -8 63 529 63 hstem
          47 77 387 79 vstem
          360 647 rmoveto
          -202 -111 -148 -244 -166 85 -97 143 202 113 153 246 163 -84 93 -146 hvcurveto
          -9 -63 rmoveto
          107 53 -67 -135 -210 -76 -117 -153 -105 -53 69 136 208 73 116 154 hvcurveto
          endchar
        </CharString>
        <CharString name="OE">
          300 -12 63 -51 63 234.5 61.5 219 62 -50 62 hstemhm
          46 77 hintmask 00000000
          hintmask 10101100
          394 652 rmoveto
          -217 -131 -150 -241 -171 89 -102 160 hvcurveto
          hintmask 01110100
          58 63 13 -1 56 hvcurveto
          282 hlineto
          14 59 -5 7 -150 -4 -117 2 15 131 12 102 104 1 112 -2 14 58 -4 7 -108 -3 -107 2 27 218 rlineto
          128 hlineto
          136 -4 14 59 -4 7 rlineto
          -283 hlineto
          hintmask 10101100
          -54 -45 12 -59 hhcurveto
          -15 -62 rmoveto
          41 41 -8 -5 14 hvcurveto
          9 -4 2 -8 -3 -25 -51 -446 rcurveline
          -3 -20 -8 -8 -19 -5 rrcurveto
          -5 -17 -39 -5 -35 hhcurveto
          -127 -61 75 139 206 88 119 168 hvcurveto
          endchar
        </CharString>
        <CharString name="Oacute">
          98 -8 63 529 63 hstem
          47 77 387 79 vstem
          475 859 rmoveto
          -8 2 -68 -40 -61 -32 -62 -31 rlinecurve
          14 -34 9 -4 64 28 62 26 67 32 rlinecurve
          3 9 rlineto
          -135 -168 rmoveto
          -201 -112 -148 -244 -166 85 -97 144 202 112 153 246 163 -84 93 -146 hvcurveto
          -9 -63 rmoveto
          107 53 -67 -135 -210 -76 -117 -153 -105 -53 69 136 208 73 116 154 hvcurveto
          endchar
        </CharString>
        <CharString name="Obreve">
          98 -8 63 529 63 77 55 hstem
          47 77 387 79 vstem
          481 839 rmoveto
          -12 hlineto
          -38 -19 -34 -22 -45 hhcurveto
          -47 -29 22 38 -8 hvcurveto
          -12 hlineto
          -25 -26 rlineto
          -57 12 44 -32 65 hhcurveto
          57 46 32 57 25 hvcurveto
          -139 -166 rmoveto
          -201 -112 -148 -244 -166 85 -97 144 202 112 153 246 163 -84 93 -146 hvcurveto
          -9 -63 rmoveto
          107 53 -67 -135 -210 -76 -117 -153 -105 -53 69 136 208 73 116 154 hvcurveto
          endchar
        </CharString>
        <CharString name="Ocaron">
          98 -8 63 529 63 hstem
          47 77 387 79 vstem
          488 846 rmoveto
          -9 hlineto
          -38 -22 -36 -21 -36 -23 -31 23 -31 21 -31 22 rrcurveto
          -9 hlineto
          -19 -32 36 -28 36 -31 34 -31 rlinecurve
          22 hlineto
          37 31 42 31 45 28 rrcurveto
          -140 -167 rmoveto
          -201 -112 -148 -244 -166 85 -97 144 202 112 153 246 163 -84 93 -146 hvcurveto
          -9 -63 rmoveto
          107 53 -67 -135 -210 -76 -117 -153 -105 -53 69 136 208 73 116 154 hvcurveto
          endchar
        </CharString>
        <CharString name="Ocircumflex">
          98 -8 63 529 63 hstem
          47 77 387 79 vstem
          261 732 rmoveto
          9 hlineto
          38 22 36 22 37 23 30 -23 30 -22 33 -22 rrcurveto
          8 hlineto
          20 33 -37 28 -37 30 -32 31 rlinecurve
          -22 hlineto
          -39 -31 -40 -30 -46 -28 rrcurveto
          111 -118 rmoveto
          -201 -112 -148 -244 -166 85 -97 144 202 112 153 246 163 -84 93 -146 hvcurveto
          -9 -63 rmoveto
          107 53 -67 -135 -210 -76 -117 -153 -105 -53 69 136 208 73 116 154 hvcurveto
          endchar
        </CharString>
        <CharString name="Ocircumflexacute">
          98 -8 63 529 63 hstem
          47 77 387 79 vstem
          533 925 rmoveto
          -36 18 -18 -15 -57 -90 26 -20 18 12 69 87 rlineto
          -171 -82 rmoveto
          -38 -31 -41 -30 -45 -28 12 -33 rcurveline
          9 hlineto
          38 22 36 22 36 23 31 -23 30 -22 32 -22 rrcurveto
          9 hlineto
          19 33 -36 28 -37 30 -33 31 rlinecurve
          -26 -188 rmoveto
          -201 -112 -148 -244 -166 85 -97 144 202 112 153 246 163 -84 93 -146 hvcurveto
          -9 -63 rmoveto
          107 53 -67 -135 -210 -76 -117 -153 -105 -53 69 136 208 73 116 154 hvcurveto
          endchar
        </CharString>
        <CharString name="Ocircumflexdotbelow">
          98 -161 88 65 63 529 63 hstem
          47 77 125 87 175 79 vstem
          262 732 rmoveto
          9 hlineto
          38 22 36 22 37 23 30 -23 30 -22 33 -22 rrcurveto
          8 hlineto
          20 33 -37 28 -37 30 -32 31 rlinecurve
          -22 hlineto
          -39 -31 -40 -30 -46 -28 rrcurveto
          110 -118 rmoveto
          -201 -112 -148 -244 -166 85 -97 144 202 112 153 246 163 -84 93 -146 hvcurveto
          -9 -63 rmoveto
          107 53 -67 -135 -210 -76 -117 -153 -105 -53 69 136 208 73 116 154 hvcurveto
          -57 -657 rmoveto
          -28 -17 -18 -27 -27 16 -16 27 27 17 18 28 26 -16 16 -26 hvcurveto
          endchar
        </CharString>
        <CharString name="Ocircumflexgrave">
          98 -8 63 529 63 hstem
          47 77 387 79 vstem
          448 928 rmoveto
          -17 14 -37 -17 -2 -9 70 -86 17 -12 26 20 rlineto
          -136 -4 rmoveto
          -38 -31 -41 -30 -45 -28 11 -33 rcurveline
          9 hlineto
          38 23 37 21 36 23 31 -23 29 -21 33 -23 rrcurveto
          8 hlineto
          20 33 -37 28 -37 30 -32 31 rlinecurve
          -31 -187 rmoveto
          -201 -112 -148 -244 -166 85 -97 144 202 112 153 246 163 -84 93 -146 hvcurveto
          -9 -63 rmoveto
          107 53 -67 -135 -210 -76 -117 -153 -105 -53 69 136 208 73 116 154 hvcurveto
          endchar
        </CharString>
        <CharString name="Ocircumflexhookabove">
          98 -8 63 529 63 294 40 hstemhm
          47 77 355 43 -11 79 hintmask 00000000
          hintmask 11111000
          463 981 rmoveto
          -26 -30 -15 -24 -24 hvcurveto
          16 -24 rlineto
          15 17 21 8 16 hhcurveto
          15 11 -7 -13 -16 -18 -23 -30 -23 hvcurveto
          29 -50 32 17 -18 32 rlineto
          33 28 15 20 22 vvcurveto
          30 -25 23 -34 vhcurveto
          -96 -146 rmoveto
          -38 -31 -41 -30 -45 -28 11 -33 rcurveline
          9 hlineto
          38 22 37 22 36 23 31 -23 29 -22 33 -22 rrcurveto
          8 hlineto
          20 33 -37 28 -37 30 -32 31 rlinecurve
          hintmask 11010100
          -29 -188 rmoveto
          -201 -112 -148 -244 -166 85 -97 144 202 112 153 246 163 -84 93 -146 hvcurveto
          -9 -63 rmoveto
          107 53 -67 -135 -210 -76 -117 -153 -105 -53 69 136 208 73 116 154 hvcurveto
          endchar
        </CharString>
        <CharString name="Ocircumflextilde">
          98 -8 63 529 63 hstem
          47 77 387 79 vstem
          554 939 rmoveto
          -22 24 rlineto
          -7 hlineto
          -25 -24 -15 -20 -14 hhcurveto
          -24 -83 30 5 -39 hvcurveto
          -9 -3 -57 -64 rlineto
          -8 vlineto
          23 -23 rlineto
          7 hlineto
          24 23 15 20 14 hhcurveto
          25 82 -31 -5 40 hvcurveto
          8 3 57 66 rlineto
          -178 -96 rmoveto
          -39 -31 -40 -31 -46 -28 12 -32 rcurveline
          9 hlineto
          38 22 36 21 37 23 30 -23 30 -21 32 -22 rrcurveto
          9 hlineto
          20 32 -37 28 -37 31 -33 31 rlinecurve
          -37 -189 rmoveto
          -201 -112 -148 -244 -166 85 -97 144 202 112 153 246 163 -84 93 -146 hvcurveto
          -9 -63 rmoveto
          107 53 -67 -135 -210 -76 -117 -153 -105 -53 69 136 208 73 116 154 hvcurveto
          endchar
        </CharString>
        <CharString name="Odieresis">
          98 -8 63 529 63 98 85 hstemhm
          47 77 130 83 76 83 15 79 hintmask 11111010
          297 831 rmoveto
          -27 -16 -17 -27 -26 15 -16 26 25 17 18 27 24 -15 17 -25 hvcurveto
          hintmask 11111110
          160 -1 rmoveto
          -28 -16 -17 -27 -26 15 -15 26 25 17 17 27 25 -15 16 -24 hvcurveto
          hintmask 11111010
          -97 -183 rmoveto
          -201 -112 -148 -244 -166 85 -97 144 202 112 153 246 163 -84 93 -146 hvcurveto
          -9 -63 rmoveto
          107 53 -67 -135 -210 -76 -117 -153 -105 -53 69 136 208 73 116 154 hvcurveto
          endchar
        </CharString>
        <CharString name="Odotbelow">
          98 -161 88 65 63 529 63 hstem
          47 77 125 87 175 79 vstem
          360 647 rmoveto
          -201 -112 -148 -244 -166 85 -97 144 202 112 153 246 163 -84 93 -146 hvcurveto
          -9 -63 rmoveto
          107 53 -67 -135 -210 -76 -117 -153 -105 -53 69 136 208 73 116 154 hvcurveto
          -57 -657 rmoveto
          -28 -17 -18 -27 -27 16 -16 27 27 17 18 28 26 -16 16 -26 hvcurveto
          endchar
        </CharString>
        <CharString name="Ograve">
          98 -8 63 529 63 hstem
          47 77 387 79 vstem
          285 861 rmoveto
          -19 -44 3 -8 67 -32 62 -27 64 -27 rlinecurve
          9 4 14 34 -62 31 -61 31 -68 40 rlinecurve
          66 -216 rmoveto
          -201 -112 -148 -244 -166 85 -97 144 202 112 153 246 163 -84 93 -146 hvcurveto
          -9 -63 rmoveto
          107 53 -67 -135 -210 -76 -117 -153 -105 -53 69 136 208 73 116 154 hvcurveto
          endchar
        </CharString>
        <CharString name="Ohm">
          196 0 59 -40 -21 587 62 hstemhm
          101 78 388 78 hintmask 10111000
          404 647 rmoveto
          -196 -107 -152 -177 -94 32 -98 64 -64 hvcurveto
          -1 -3 rlineto
          -87 hlineto
          -80 6 rlineto
          hintmask 01111000
          -18 -61 5 -7 rlineto
          hintmask 10111000
          83 3 rlineto
          138 hlineto
          37 -2 5 4 7 60 rlineto
          -70 60 -37 103 97 vvcurveto
          144 75 119 145 117 51 -81 -106 -125 -69 -131 -115 -80 vhcurveto
          -7 -60 3 -4 38 2 rlineto
          124 hlineto
          hintmask 01111000
          94 -4 rlineto
          hintmask 10111000
          16 64 -3 5 -77 -6 rlineto
          -98 hlineto
          -1 3 rlineto
          112 89 61 130 122 vvcurveto
          134 -77 110 -164 vhcurveto
          endchar
        </CharString>
        <CharString name="Ohookabove">
          98 -8 63 529 63 203 42 hstem
          47 77 256 46 85 79 vstem
          364 892 rmoveto
          -28 -30 -15 -26 -26 hvcurveto
          16 -25 rlineto
          16 19 21 8 17 hhcurveto
          16 11 -7 -14 -17 -18 -24 -32 -24 hvcurveto
          31 -53 33 18 -19 34 rlineto
          35 29 16 21 24 vvcurveto
          31 -26 24 -36 vhcurveto
          -4 -245 rmoveto
          -201 -112 -148 -244 -166 85 -97 144 202 112 153 246 163 -84 93 -146 hvcurveto
          -9 -63 rmoveto
          107 53 -67 -135 -210 -76 -117 -153 -105 -53 69 136 208 73 116 154 hvcurveto
          endchar
        </CharString>
        <CharString name="Ohorn">
          101 -8 63 519 42 -32 63 hstemhm
          47 77 387 78 10 61 hintmask 00000000
          hintmask 11011100
          617 764 rmoveto
          -10 -15 -6 -9 -13 hvcurveto
          -3 -8 rlineto
          16 -17 7 -23 -20 vvcurveto
          -44 -36 -21 -39 vhcurveto
          -46 -30 31 -91 hhcurveto
          hintmask 10111000
          -194 -116 -155 -224 -187 81 -89 148 197 116 160 228 hvcurveto
          hintmask 11011000
          83 -15 63 -40 48 vhcurveto
          hintmask 11011100
          69 3 57 42 72 vvcurveto
          43 -21 30 -22 vhcurveto
          hintmask 10111000
          -266 -180 rmoveto
          111 49 -66 -150 -188 -76 -125 -152 -111 -48 69 150 188 75 122 152 hvcurveto
          endchar
        </CharString>
        <CharString name="Ohornacute">
          101 -8 63 519 42 -32 63 hstemhm
          47 77 387 78 10 61 hintmask 10111000
          475 859 rmoveto
          -8 2 -68 -40 -61 -32 -62 -31 rlinecurve
          14 -34 9 -4 64 28 62 26 67 32 rlinecurve
          3 9 rlineto
          hintmask 11011100
          122 -51 rmoveto
          -10 -15 -6 -9 -13 hvcurveto
          -3 -8 rlineto
          16 -17 7 -23 -20 vvcurveto
          -44 -36 -21 -39 vhcurveto
          -46 -30 31 -91 hhcurveto
          hintmask 10111000
          -194 -116 -155 -224 -187 81 -89 148 197 116 160 228 hvcurveto
          hintmask 11011000
          83 -15 63 -40 48 vhcurveto
          hintmask 11011100
          70 3 56 42 72 vvcurveto
          43 -21 30 -22 vhcurveto
          hintmask 10111000
          -266 -180 rmoveto
          111 49 -66 -150 -188 -76 -125 -151 -112 -48 69 150 188 75 122 152 hvcurveto
          endchar
        </CharString>
        <CharString name="Ohorndotbelow">
          101 -161 88 65 63 519 42 -32 63 hstemhm
          47 77 125 87 175 78 10 61 hintmask 00000000
          hintmask 01101011
          617 764 rmoveto
          -10 -15 -6 -9 -13 hvcurveto
          -3 -8 rlineto
          16 -17 7 -23 -20 vvcurveto
          -44 -36 -21 -39 vhcurveto
          -46 -30 31 -91 hhcurveto
          hintmask 01011010
          -194 -116 -155 -224 -187 81 -89 148 197 116 160 228 hvcurveto
          hintmask 01101010
          83 -15 63 -40 48 vhcurveto
          hintmask 01101011
          70 3 56 42 72 vvcurveto
          43 -21 30 -22 vhcurveto
          hintmask 11011110
          -266 -180 rmoveto
          111 49 -66 -150 -188 -76 -125 -151 -112 -48 69 150 188 75 122 152 hvcurveto
          -57 -657 rmoveto
          -28 -17 -18 -27 -27 16 -16 27 27 17 18 28 26 -16 16 -26 hvcurveto
          endchar
        </CharString>
        <CharString name="Ohorngrave">
          101 -8 63 519 42 -32 63 hstemhm
          47 77 387 78 10 61 hintmask 10111000
          285 861 rmoveto
          -19 -44 3 -8 67 -32 62 -27 64 -27 rlinecurve
          9 4 14 34 -62 31 -61 31 -68 40 rlinecurve
          hintmask 11011100
          323 -99 rmoveto
          -10 -15 -6 -9 -13 hvcurveto
          -3 -8 rlineto
          16 -17 7 -23 -20 vvcurveto
          -44 -36 -21 -39 vhcurveto
          -46 -30 31 -91 hhcurveto
          hintmask 10111000
          -194 -116 -155 -224 -187 81 -89 148 197 116 160 228 hvcurveto
          hintmask 11011000
          83 -15 63 -40 48 vhcurveto
          hintmask 11011100
          70 3 56 42 72 vvcurveto
          43 -21 30 -22 vhcurveto
          hintmask 10111000
          -266 -180 rmoveto
          111 49 -66 -150 -188 -76 -125 -151 -112 -48 69 150 188 75 122 152 hvcurveto
          endchar
        </CharString>
        <CharString name="Ohornhookabove">
          101 -8 63 519 42 -32 63 203 42 hstemhm
          47 77 256 46 85 78 10 61 hintmask 10111110
          364 892 rmoveto
          -28 -30 -15 -26 -26 hvcurveto
          16 -25 rlineto
          16 19 21 8 17 hhcurveto
          16 11 -7 -14 -17 -18 -24 -32 -24 hvcurveto
          31 -53 33 18 -19 34 rlineto
          35 29 16 21 24 vvcurveto
          31 -26 24 -36 vhcurveto
          hintmask 11011111
          253 -128 rmoveto
          -10 -15 -6 -9 -13 hvcurveto
          -3 -8 rlineto
          16 -17 7 -23 -20 vvcurveto
          -44 -36 -21 -39 vhcurveto
          -46 -30 31 -91 hhcurveto
          hintmask 10111110
          -194 -116 -155 -224 -187 81 -89 148 197 116 160 228 hvcurveto
          hintmask 11011110
          83 -15 63 -40 48 vhcurveto
          hintmask 11011111
          70 3 56 42 72 vvcurveto
          43 -21 30 -22 vhcurveto
          hintmask 10111110
          -266 -180 rmoveto
          111 49 -66 -150 -188 -76 -125 -151 -112 -48 69 150 188 75 122 152 hvcurveto
          endchar
        </CharString>
        <CharString name="Ohorntilde">
          101 -8 63 519 42 -32 63 hstemhm
          47 77 387 78 10 61 hintmask 10111000
          531 822 rmoveto
          -24 25 rlineto
          -7 hlineto
          -26 -26 -16 -20 -15 hhcurveto
          -25 -88 31 5 -42 hvcurveto
          -9 -3 -61 -67 rlineto
          -7 vlineto
          23 -25 rlineto
          9 hlineto
          25 25 16 21 15 hhcurveto
          26 88 -32 -5 41 hvcurveto
          9 4 61 67 rlineto
          hintmask 11011100
          86 -51 rmoveto
          -10 -15 -6 -9 -13 hvcurveto
          -3 -8 rlineto
          16 -17 7 -23 -20 vvcurveto
          -44 -36 -21 -39 vhcurveto
          -46 -30 31 -91 hhcurveto
          hintmask 10111000
          -194 -116 -155 -224 -187 81 -89 148 197 116 160 228 hvcurveto
          hintmask 11011000
          83 -15 63 -40 48 vhcurveto
          hintmask 11011100
          70 3 56 42 72 vvcurveto
          43 -21 30 -22 vhcurveto
          hintmask 10111000
          -266 -180 rmoveto
          111 49 -66 -150 -188 -76 -125 -151 -112 -48 69 150 188 75 122 152 hvcurveto
          endchar
        </CharString>
        <CharString name="Ohungarumlaut">
          98 -8 63 529 63 hstem
          47 77 387 79 vstem
          254 718 rmoveto
          9 1 40 36 39 36 39 38 rlinecurve
          8 vlineto
          -34 24 rlineto
          -8 hlineto
          -35 -42 -37 -38 -38 -40 rrcurveto
          167 -23 rmoveto
          9 1 39 36 40 36 38 38 rlinecurve
          1 8 -36 24 rlineto
          -6 hlineto
          -36 -42 -37 -38 -37 -40 rrcurveto
          -11 -94 rmoveto
          -201 -112 -148 -244 -166 85 -97 144 202 112 153 246 163 -84 93 -146 hvcurveto
          -9 -63 rmoveto
          107 53 -67 -135 -210 -76 -117 -153 -105 -53 69 136 208 73 116 154 hvcurveto
          endchar
        </CharString>
        <CharString name="Omacron">
          98 -8 63 529 63 117 50 hstem
          47 77 387 79 vstem
          522 809 rmoveto
          -6 5 rlineto
          -283 hlineto
          -5 -44 6 -6 rlineto
          283 hlineto
          -157 -117 rmoveto
          -201 -112 -148 -244 -166 85 -97 144 202 112 153 246 163 -84 93 -146 hvcurveto
          -9 -63 rmoveto
          107 53 -67 -135 -210 -76 -117 -153 -105 -53 69 136 208 73 116 154 hvcurveto
          endchar
        </CharString>
        <CharString name="Omega">
          196 0 59 -40 -21 587 62 hstemhm
          101 78 388 78 hintmask 10111000
          405 647 rmoveto
          -197 -107 -152 -177 -94 33 -98 63 -64 hvcurveto
          -1 -3 rlineto
          -87 hlineto
          -80 6 rlineto
          hintmask 01111000
          -18 -61 5 -7 rlineto
          hintmask 10111000
          83 3 rlineto
          138 hlineto
          37 -2 5 4 7 60 rlineto
          -70 60 -37 103 97 vvcurveto
          144 75 119 145 117 51 -81 -106 -125 -68 -131 -116 -80 vhcurveto
          -7 -60 4 -4 37 2 rlineto
          125 hlineto
          hintmask 01111000
          93 -4 rlineto
          hintmask 10111000
          17 64 -4 5 -77 -6 rlineto
          -97 hlineto
          -2 3 rlineto
          113 89 60 130 122 vvcurveto
          134 -76 110 -164 vhcurveto
          endchar
        </CharString>
        <CharString name="Oogonek">
          98 -197 51 138 63 529 63 hstem
          47 77 169 50 168 79 vstem
          409 19 rmoveto
          117 54 64 133 185 vvcurveto
          163 -84 93 -146 -201 -112 -148 -244 -166 85 -97 144 26 24 3 4 23 vhcurveto
          -31 -45 rlineto
          -17 -25 -8 -24 -24 vvcurveto
          -45 31 -33 47 35 30 19 34 32 vhcurveto
          -11 38 rlineto
          -4 hlineto
          -25 -22 -25 -15 -23 hhcurveto
          -27 -13 17 24 15 6 16 11 19 hvcurveto
          -236 315 rmoveto
          208 73 116 154 107 53 -67 -135 -210 -76 -117 -153 -105 -53 69 136 vhcurveto
          endchar
        </CharString>
        <CharString name="Oslash">
          99 -80 -21 93 63 529 63 59 -20 hstem
          47 77 387 79 vstem
          562 697 rmoveto
          -3 9 -43 16 -54 -94 rlineto
          12 -29 -34 7 -39 hhcurveto
          -201 -112 -148 -244 -97 29 -73 52 -44 hvcurveto
          -67 -118 3 -8 43 -16 65 114 rlineto
          -14 30 35 -7 39 hhcurveto
          202 112 153 246 96 -29 71 -54 43 hvcurveto
          -383 -341 rmoveto
          208 73 116 154 30 26 -5 -11 21 vhcurveto
          -263 -463 rlineto
          -27 34 -14 52 69 vvcurveto
          158 -205 rmoveto
          -30 -25 6 11 -22 hvcurveto
          265 463 rlineto
          27 -33 14 -51 -69 vvcurveto
          -210 -76 -117 -153 vhcurveto
          endchar
        </CharString>
        <CharString name="Oslashacute">
          99 -80 -21 93 63 529 63 59 -20 hstem
          47 77 387 79 vstem
          290 724 rmoveto
          9 -4 64 28 62 26 67 32 rlinecurve
          3 9 -20 44 -8 2 -68 -40 -61 -32 -62 -31 rlinecurve
          286 -61 rmoveto
          -3 9 -43 16 -54 -94 rlineto
          12 -29 -34 7 -39 hhcurveto
          -201 -112 -148 -244 -97 29 -73 52 -44 hvcurveto
          -67 -118 3 -8 43 -16 65 114 rlineto
          -14 30 35 -7 39 hhcurveto
          202 112 153 246 96 -29 71 -54 43 hvcurveto
          -383 -341 rmoveto
          208 73 116 154 30 26 -5 -11 21 vhcurveto
          -263 -463 rlineto
          -27 34 -14 52 69 vvcurveto
          158 -205 rmoveto
          -30 -25 6 11 -22 hvcurveto
          265 463 rlineto
          27 -33 14 -51 -69 vvcurveto
          -210 -76 -117 -153 vhcurveto
          endchar
        </CharString>
        <CharString name="Otilde">
          98 -8 63 529 63 hstem
          47 77 387 79 vstem
          531 822 rmoveto
          -24 25 rlineto
          -7 hlineto
          -26 -26 -16 -20 -15 hhcurveto
          -25 -88 31 5 -42 hvcurveto
          -9 -3 -61 -67 rlineto
          -7 vlineto
          23 -25 rlineto
          9 hlineto
          25 25 16 21 15 hhcurveto
          26 88 -32 -5 41 hvcurveto
          9 4 61 67 rlineto
          -171 -168 rmoveto
          -201 -112 -148 -244 -166 85 -97 144 202 112 153 246 163 -84 93 -146 hvcurveto
          -9 -63 rmoveto
          107 53 -67 -135 -210 -76 -117 -153 -105 -53 69 136 208 73 116 154 hvcurveto
          endchar
        </CharString>
        <CharString name="P">
          -15 21 -21 227 62 289.5 63.5 hstem
          416 77 vstem
          145 640 rmoveto
          -1 hlineto
          -52 -447 -29 -193 rlineto
          76 hlineto
          21 199 4 28 rlineto
          74 hlineto
          158 97 105 144 112 -68 54 -104 hvcurveto
          -149 -352 rmoveto
          39 287 93 3 rlineto
          80 -4 32 -39 -71 vvcurveto
          -97 -55 -70 -80 -11 vhcurveto
          endchar
        </CharString>
        <CharString name="Q">
          95 -170 -21 183 63 529 63 hstem
          47 77 387 79 vstem
          673 -130 rmoveto
          -114 20 -105 46 -87 68 rrcurveto
          144 41 79 141 205 vvcurveto
          163 -84 93 -146 -202 -111 -148 -244 -166 85 -97 143 vhcurveto
          19 hlineto
          93 -90 119 -64 129 -29 7 2 rcurveline
          11 12 10 15 11 21 rrcurveto
          -550 401 rmoveto
          208 73 116 154 107 53 -67 -135 -210 -76 -117 -153 -105 -53 69 136 vhcurveto
          endchar
        </CharString>
        <CharString name="R">
          16 12 -21 30 -21 240 62.5 276 63.5 hstemhm
          416 78 hintmask 01111000
          494 486 rmoveto
          100 -64 56 -107 vhcurveto
          -178 -2 rlineto
          -1 hlineto
          -52 -447 -29 -193 rlineto
          76 hlineto
          20 199 6 41 rlineto
          111 hlineto
          hintmask 10111000
          33 -82 38 -81 41 -79 8 -7 rcurveline
          26 3 22 6 23 9 2 9 rcurveline
          -47 79 -43 80 -39 82 rrcurveto
          hintmask 01111000
          96 42 58 82 103 vvcurveto
          -321 -182 rmoveto
          37 273 94 3 rlineto
          73 -4 39 -34 -68 vvcurveto
          -89 -45 -59 -83 -25 vhcurveto
          endchar
        </CharString>
        <CharString name="Racute">
          16 12 -21 30 -21 240 62.5 276 63.5 hstemhm
          416 78 hintmask 01111000
          257 702 rmoveto
          8 -1 57 40 53 41 58 46 rlinecurve
          2 9 -28 39 -9 1 -56 -55 -52 -45 -54 -45 rlinecurve
          258 -246 rmoveto
          100 -65 56 -106 vhcurveto
          -178 -2 rlineto
          -1 hlineto
          -53 -447 -28 -193 rlineto
          75 hlineto
          21 199 6 41 rlineto
          111 hlineto
          hintmask 10111000
          33 -82 39 -81 40 -79 9 -7 rcurveline
          25 3 22 6 24 9 1 9 rcurveline
          -47 79 -43 81 -38 81 rrcurveto
          hintmask 01111000
          95 42 58 82 103 vvcurveto
          -321 -182 rmoveto
          37 273 94 3 rlineto
          73 -4 39 -34 -68 vvcurveto
          -89 -45 -59 -83 -25 vhcurveto
          endchar
        </CharString>
        <CharString name="Rcaron">
          16 12 -21 30 -21 240 62.5 276 63.5 hstemhm
          416 78 hintmask 01111000
          331 704 rmoveto
          49 50 43 45 41 38 -16 31 rcurveline
          -10 hlineto
          -42 -37 -37 -33 -36 -36 -26 36 -28 33 -34 37 rrcurveto
          -9 hlineto
          -24 -31 37 -40 36 -45 33 -48 rlinecurve
          186 -218 rmoveto
          100 -65 56 -106 vhcurveto
          -178 -2 rlineto
          -1 hlineto
          -53 -447 -28 -193 rlineto
          75 hlineto
          21 199 6 41 rlineto
          111 hlineto
          hintmask 10111000
          33 -82 39 -81 40 -79 9 -7 rcurveline
          25 3 22 6 24 9 1 9 rcurveline
          -47 79 -43 81 -38 81 rrcurveto
          hintmask 01111000
          95 42 58 82 103 vvcurveto
          -321 -182 rmoveto
          37 273 94 3 rlineto
          73 -4 39 -34 -68 vvcurveto
          -89 -45 -59 -83 -25 vhcurveto
          endchar
        </CharString>
        <CharString name="Rcommaaccent">
          16 12 -21 30 -21 240 62.5 276 63.5 hstemhm
          215 58 143 78 hintmask 01111100
          494 486 rmoveto
          100 -65 56 -106 vhcurveto
          -178 -2 rlineto
          -1 hlineto
          -53 -447 -28 -193 rlineto
          75 hlineto
          21 199 6 41 rlineto
          111 hlineto
          hintmask 10111100
          33 -82 39 -81 40 -79 9 -7 rcurveline
          25 3 22 6 24 9 1 9 rcurveline
          -47 79 -43 81 -38 81 rrcurveto
          hintmask 01111100
          95 42 58 82 103 vvcurveto
          -321 -182 rmoveto
          37 273 94 3 rlineto
          73 -4 39 -34 -68 vvcurveto
          -89 -45 -59 -83 -25 vhcurveto
          -54 -358 rmoveto
          -18 -6 -15 -8 -15 -10 rrcurveto
          -6 vlineto
          18 -13 11 -14 -17 vvcurveto
          -27 -18 -28 -33 -27 vhcurveto
          -1 -6 25 -22 rlineto
          57 42 28 41 39 vvcurveto
          26 -14 20 -25 16 vhcurveto
          endchar
        </CharString>
        <CharString name="S">
          -62 -7 62 529 62 hstem
          87 73 168 76 vstem
          298 646 rmoveto
          -121 -90 -79 -102 hvcurveto
          -172 241 -1 -126 vvcurveto
          -60 -55 -51 -80 -48 -56 19 45 -41 vhcurveto
          -10 -4 -19 -77 rlineto
          -29 49 63 -16 54 hhcurveto
          126 93 83 104 hvcurveto
          171 -244 7 120 vvcurveto
          54 49 52 79 43 40 -16 -28 33 vhcurveto
          14 4 21 71 rlineto
          23 -51 -52 8 -38 hhcurveto
          endchar
        </CharString>
        <CharString name="Sacute">
          -62 -7 62 529 62 hstem
          87 74 167 77 vstem
          369 876 rmoveto
          -9 1 -56 -55 -52 -45 -54 -45 rlinecurve
          21 -30 8 -1 57 40 53 41 58 46 rlinecurve
          2 9 rlineto
          -99 -191 rmoveto
          -121 -90 -79 -102 hvcurveto
          -172 241 -1 -126 vvcurveto
          -60 -55 -51 -80 -48 -56 19 45 -41 vhcurveto
          -10 -4 -19 -77 rlineto
          -29 49 64 -16 54 hhcurveto
          126 93 83 104 hvcurveto
          171 -244 7 120 vvcurveto
          54 49 52 78 43 41 -16 -28 33 vhcurveto
          13 4 21 71 rlineto
          23 -51 -52 8 -38 hhcurveto
          endchar
        </CharString>
        <CharString name="Scaron">
          -62 -7 62 529 62 hstem
          87 74 167 77 vstem
          411 868 rmoveto
          -10 hlineto
          -42 -37 -37 -33 -36 -36 -26 36 -28 33 -34 37 rrcurveto
          -9 hlineto
          -24 -31 37 -40 36 -45 33 -48 rlinecurve
          23 hlineto
          49 50 43 45 41 38 rrcurveto
          -129 -191 rmoveto
          -121 -90 -79 -102 hvcurveto
          -172 241 -1 -126 vvcurveto
          -60 -55 -51 -80 -48 -56 19 45 -41 vhcurveto
          -10 -4 -19 -77 rlineto
          -29 49 64 -16 54 hhcurveto
          126 93 83 104 hvcurveto
          171 -244 7 120 vvcurveto
          54 49 52 78 43 41 -16 -28 33 vhcurveto
          13 4 21 71 rlineto
          23 -51 -52 8 -38 hhcurveto
          endchar
        </CharString>
        <CharString name="Scedilla">
          -62 -191 40 145 61 529 62 hstem
          87 74 52 50 65 77 vstem
          298 646 rmoveto
          -121 -90 -79 -102 hvcurveto
          -172 241 -1 -126 vvcurveto
          -60 -55 -51 -80 -48 -56 19 45 -41 vhcurveto
          -10 -4 -19 -77 42 -25 52 -15 48 -4 rlinecurve
          -17 -64 47 -29 rlineto
          13 -6 9 -6 -13 vvcurveto
          -18 -14 -9 -19 -24 -15 12 19 -16 vhcurveto
          -5 -2 -8 -38 rlineto
          -16 15 23 -15 34 hhcurveto
          46 33 26 39 22 -10 18 -28 15 hvcurveto
          -33 20 13 45 rlineto
          116 8 84 79 99 171 -244 7 120 vvcurveto
          54 49 52 78 43 41 -16 -28 33 vhcurveto
          13 4 21 71 rlineto
          23 -51 -52 8 -38 hhcurveto
          endchar
        </CharString>
        <CharString name="Scircumflex">
          -62 -7 62 529 62 hstem
          87 74 167 77 vstem
          181 703 rmoveto
          9 hlineto
          42 36 38 34 35 35 26 -35 28 -34 35 -36 rrcurveto
          8 hlineto
          24 30 -35 41 -35 45 -33 48 rlinecurve
          -23 hlineto
          -49 -51 -44 -44 -43 -39 rrcurveto
          134 -87 rmoveto
          -121 -90 -79 -102 hvcurveto
          -172 241 -1 -126 vvcurveto
          -60 -55 -51 -80 -48 -56 19 45 -41 vhcurveto
          -10 -4 -19 -77 rlineto
          -29 49 64 -16 54 hhcurveto
          126 93 83 104 hvcurveto
          171 -244 7 120 vvcurveto
          54 49 52 78 43 41 -16 -28 33 vhcurveto
          13 4 21 71 rlineto
          23 -51 -52 8 -38 hhcurveto
          endchar
        </CharString>
        <CharString name="Scommaaccent">
          -62 -7 62 529 62 hstemhm
          87 74 16 58 93 77 hintmask 11101000
          298 646 rmoveto
          -121 -90 -79 -102 hvcurveto
          -172 241 -1 -126 vvcurveto
          -60 -55 -51 -80 -48 -56 19 45 -41 vhcurveto
          -10 -4 -19 -77 rlineto
          -29 49 64 -16 54 hhcurveto
          126 93 83 104 hvcurveto
          171 -244 7 120 vvcurveto
          54 49 52 78 43 41 -16 -28 33 vhcurveto
          13 4 21 71 rlineto
          23 -51 -52 8 -38 hhcurveto
          hintmask 11111000
          -102 -703 rmoveto
          -18 -6 -15 -8 -15 -10 rrcurveto
          -6 vlineto
          18 -13 11 -14 -17 vvcurveto
          -27 -18 -28 -33 -27 vhcurveto
          -1 -6 25 -22 rlineto
          57 42 28 41 39 vvcurveto
          26 -14 20 -25 16 vhcurveto
          endchar
        </CharString>
        <CharString name="T">
          -46 21 -21 580 60 hstem
          66 431 vstem
          497 633 rmoveto
          -4 7 rlineto
          -413 hlineto
          -14 -58 5 -7 109 5 rlineto
          61 hlineto
          -43 -387 -29 -193 rlineto
          75 hlineto
          21 199 51 381 rlineto
          63 hlineto
          104 -5 rlineto
          endchar
        </CharString>
        <CharString name="Tbar">
          -46 21 -21 298 48 234 60 hstem
          66 431 vstem
          316 580 rmoveto
          63 hlineto
          104 -5 14 58 -4 7 rlineto
          -413 hlineto
          -14 -58 5 -7 109 5 rlineto
          61 hlineto
          -26 -234 rlineto
          -97 hlineto
          -4 -42 6 -6 rlineto
          90 hlineto
          -12 -105 -29 -193 rlineto
          75 hlineto
          21 199 13 99 rlineto
          104 hlineto
          3 42 -6 6 rlineto
          -94 hlineto
          endchar
        </CharString>
        <CharString name="Tcaron">
          -46 21 -21 580 60 hstem
          66 431 vstem
          301 704 rmoveto
          49 50 43 45 41 38 -16 31 rcurveline
          -10 hlineto
          -42 -37 -37 -33 -36 -36 -26 36 -28 33 -34 37 rrcurveto
          -9 hlineto
          -24 -31 37 -40 36 -45 33 -48 rlinecurve
          219 -71 rmoveto
          -4 7 rlineto
          -413 hlineto
          -14 -58 5 -7 109 5 rlineto
          61 hlineto
          -43 -387 -29 -193 rlineto
          75 hlineto
          21 199 51 381 rlineto
          63 hlineto
          104 -5 rlineto
          endchar
        </CharString>
        <CharString name="Tcedilla">
          -46 -186 36 171 -21 580 60 hstem
          230 46 vstem
          497 633 rmoveto
          -4 7 rlineto
          -413 hlineto
          -14 -58 5 -7 109 5 rlineto
          61 hlineto
          -43 -387 -29 -193 rlineto
          17 hlineto
          -17 -67 44 -28 rlineto
          10 -8 7 -6 -13 vvcurveto
          -17 -10 -11 -18 -23 -14 13 18 -13 vhcurveto
          -5 -1 -8 -35 rlineto
          -15 15 21 -16 30 hhcurveto
          40 31 25 38 22 -11 15 -24 16 hvcurveto
          -30 19 13 51 rlineto
          20 hlineto
          21 199 51 381 rlineto
          63 hlineto
          104 -5 rlineto
          endchar
        </CharString>
        <CharString name="Tcommaaccent">
          -46 21 -21 580 60 hstem
          185 58 vstem
          497 633 rmoveto
          -4 7 rlineto
          -413 hlineto
          -14 -58 5 -7 109 5 rlineto
          61 hlineto
          -43 -387 -29 -193 rlineto
          75 hlineto
          21 199 51 381 rlineto
          63 hlineto
          104 -5 rlineto
          -279 -632 rmoveto
          -18 -6 -15 -8 -15 -10 rrcurveto
          -6 vlineto
          18 -13 11 -14 -17 vvcurveto
          -27 -18 -28 -33 -27 vhcurveto
          -1 -6 25 -22 rlineto
          57 42 28 41 39 vvcurveto
          26 -14 20 -25 16 vhcurveto
          endchar
        </CharString>
        <CharString name="Thorn">
          -11 21 -21 115 62 289 63 -63 174 hstemhm
          405 77 hintmask 11101000
          204 528 rmoveto
          hintmask 11011000
          15 112 rlineto
          -74 hlineto
          -53 -447 -28 -193 rlineto
          75 hlineto
          12 115 rlineto
          76 hlineto
          159 96 105 144 hvcurveto
          hintmask 11101000
          112 -67 53 -105 vhcurveto
          -152 -351 rmoveto
          2 21 36 266 97 2 rlineto
          80 -4 32 -38 -71 vvcurveto
          -97 -54 -70 -81 -11 vhcurveto
          endchar
        </CharString>
        <CharString name="U">
          84 -7 67 580 -20 hstem
          69 72 vstem
          534 315 rmoveto
          43 325 rlineto
          -75 hlineto
          -46 -406 rlineto
          -116 -14 -62 -58 -103 hhcurveto
          -89 -47 46 92 15 1 14 2 16 hvcurveto
          53 397 rlineto
          -73 hlineto
          -39 -319 -12 -87 rlineto
          -3 -19 -1 -18 -17 vvcurveto
          -120 77 -67 126 149 88 92 157 16 vhcurveto
          endchar
        </CharString>
        <CharString name="Uacute">
          84 -7 67 580 -20 hstem
          69 72 vstem
          468 859 rmoveto
          -8 2 -68 -40 -61 -32 -62 -31 rlinecurve
          14 -34 9 -4 64 28 62 26 67 32 rlinecurve
          3 9 rlineto
          46 -500 rmoveto
          43 325 rlineto
          -75 hlineto
          -47 -406 rlineto
          -116 -13 -62 -58 -103 hhcurveto
          -90 -46 46 92 15 1 14 2 16 hvcurveto
          53 397 rlineto
          -74 hlineto
          -38 -319 -12 -87 rlineto
          -3 -19 -1 -18 -17 vvcurveto
          -120 77 -67 126 149 87 92 157 17 vhcurveto
          endchar
        </CharString>
        <CharString name="Ubreve">
          84 -7 67 580 -20 88 55 hstem
          69 72 126 11 vstem
          473 851 rmoveto
          -12 hlineto
          -60 -19 -34 -28 -48 hhcurveto
          -48 -28 28 60 -6 hvcurveto
          -11 hlineto
          -24 -29 rlineto
          -69 6 32 -45 76 hhcurveto
          66 45 43 71 23 hvcurveto
          43 -507 rmoveto
          43 325 rlineto
          -75 hlineto
          -47 -406 rlineto
          -116 -13 -62 -58 -103 hhcurveto
          -90 -46 46 92 15 1 14 2 16 hvcurveto
          53 397 rlineto
          -74 hlineto
          -38 -319 -12 -87 rlineto
          -3 -19 -1 -18 -17 vvcurveto
          -120 77 -67 126 149 87 92 157 17 vhcurveto
          endchar
        </CharString>
        <CharString name="Ucaron">
          84 -7 67 580 -20 hstem
          69 72 vstem
          483 868 rmoveto
          -10 hlineto
          -42 -37 -37 -33 -36 -36 -26 36 -28 33 -34 37 rrcurveto
          -9 hlineto
          -24 -31 37 -40 36 -45 33 -48 rlinecurve
          23 hlineto
          49 50 43 45 41 38 rrcurveto
          35 -522 rmoveto
          43 325 rlineto
          -75 hlineto
          -47 -406 rlineto
          -116 -13 -62 -58 -103 hhcurveto
          -90 -46 46 92 15 1 14 2 16 hvcurveto
          53 397 rlineto
          -74 hlineto
          -38 -319 -12 -87 rlineto
          -3 -19 -1 -18 -17 vvcurveto
          -120 77 -67 126 149 87 92 157 17 vhcurveto
          endchar
        </CharString>
        <CharString name="Ucircumflex">
          84 -7 67 580 -20 hstem
          69 72 vstem
          255 732 rmoveto
          9 hlineto
          38 22 36 22 37 23 30 -23 30 -22 33 -22 rrcurveto
          8 hlineto
          20 33 -37 28 -37 30 -32 31 rlinecurve
          -22 hlineto
          -39 -31 -40 -30 -46 -28 rrcurveto
          291 -450 rmoveto
          43 325 rlineto
          -75 hlineto
          -47 -406 rlineto
          -116 -13 -62 -58 -103 hhcurveto
          -90 -46 46 92 15 1 14 2 16 hvcurveto
          53 397 rlineto
          -74 hlineto
          -38 -319 -12 -87 rlineto
          -3 -19 -1 -18 -17 vvcurveto
          -120 77 -67 126 149 87 92 157 17 vhcurveto
          endchar
        </CharString>
        <CharString name="Udieresis">
          84 -7 67 580 -20 125 85 hstem
          69 72 107 83 76 83 vstem
          291 831 rmoveto
          -27 -16 -17 -27 -26 15 -16 26 25 17 18 27 24 -15 17 -25 hvcurveto
          160 -1 rmoveto
          -28 -16 -17 -27 -26 15 -15 26 25 17 17 27 25 -15 16 -24 hvcurveto
          83 -515 rmoveto
          43 325 rlineto
          -75 hlineto
          -47 -406 rlineto
          -116 -13 -62 -58 -103 hhcurveto
          -90 -46 46 92 15 1 14 2 16 hvcurveto
          53 397 rlineto
          -74 hlineto
          -38 -319 -12 -87 rlineto
          -3 -19 -1 -18 -17 vvcurveto
          -120 77 -67 126 149 87 92 157 17 vhcurveto
          endchar
        </CharString>
        <CharString name="Udieresisacute">
          84 -7 67 580 -20 108 80 hstem
          69 72 106 80 76 80 vstem
          475 966 rmoveto
          -7 4 -74 -28 -65 -20 -67 -20 rlinecurve
          7 -36 9 -5 68 15 66 16 71 19 rlinecurve
          5 9 rlineto
          -200 -112 rmoveto
          -25 -16 -16 -25 -25 15 -14 24 25 16 16 25 24 -15 15 -24 hvcurveto
          156 hmoveto
          -25 -16 -16 -25 -25 15 -14 24 25 16 16 25 24 -15 15 -24 hvcurveto
          90 -493 rmoveto
          43 325 rlineto
          -75 hlineto
          -47 -406 rlineto
          -116 -13 -62 -58 -103 hhcurveto
          -90 -46 46 92 15 1 14 2 16 hvcurveto
          53 397 rlineto
          -74 hlineto
          -38 -319 -12 -87 rlineto
          -3 -19 -1 -18 -17 vvcurveto
          -120 77 -67 126 149 87 92 157 17 vhcurveto
          endchar
        </CharString>
        <CharString name="Udieresiscaron">
          84 -7 67 580 -20 108 80 hstem
          69 72 109 79 76 80 vstem
          495 954 rmoveto
          -9 hlineto
          -39 -22 -35 -22 -37 -23 -30 23 -31 22 -32 22 rrcurveto
          -8 hlineto
          -20 -33 37 -28 36 -30 34 -31 rlinecurve
          21 hlineto
          38 31 41 30 46 28 rrcurveto
          -217 -113 rmoveto
          -25 -15 -16 -25 -25 14 -14 24 25 16 16 25 24 -15 15 -24 hvcurveto
          156 hmoveto
          -25 -16 -16 -25 -25 15 -14 24 25 16 16 25 24 -15 15 -24 hvcurveto
          88 -493 rmoveto
          43 325 rlineto
          -75 hlineto
          -47 -406 rlineto
          -116 -13 -62 -58 -103 hhcurveto
          -90 -46 46 92 15 1 14 2 16 hvcurveto
          53 397 rlineto
          -74 hlineto
          -38 -319 -12 -87 rlineto
          -3 -19 -1 -18 -17 vvcurveto
          -120 77 -67 126 149 87 92 157 17 vhcurveto
          endchar
        </CharString>
        <CharString name="Udieresisgrave">
          84 -7 67 580 -20 108 80 hstem
          69 72 101 80 76 80 vstem
          289 966 rmoveto
          -17 -46 4 -9 68 -19 65 -16 65 -15 rlinecurve
          10 5 11 36 -64 20 -64 20 -69 28 rlinecurve
          -10 -162 rmoveto
          -28 -18 -19 -27 -21 12 -13 22 28 18 19 27 21 -13 13 -21 hvcurveto
          156 hmoveto
          -28 -18 -19 -27 -21 12 -13 22 28 18 19 27 21 -13 13 -21 hvcurveto
          90 -493 rmoveto
          43 325 rlineto
          -75 hlineto
          -47 -406 rlineto
          -116 -13 -62 -58 -103 hhcurveto
          -90 -46 46 92 15 1 14 2 16 hvcurveto
          53 397 rlineto
          -74 hlineto
          -38 -319 -12 -87 rlineto
          -3 -19 -1 -18 -17 vvcurveto
          -120 77 -67 126 149 87 92 157 17 vhcurveto
          endchar
        </CharString>
        <CharString name="Udieresismacron">
          84 -7 67 580 -20 108 80 67 51 hstem
          69 72 121 79 77 79 vstem
          525 920 rmoveto
          -6 6 rlineto
          -257 hlineto
          -5 -45 7 -6 rlineto
          256 hlineto
          -217 -67 rmoveto
          -26 -15 -16 -25 -25 15 -14 23 26 15 16 25 24 -14 15 -24 hvcurveto
          156 hmoveto
          -26 -15 -16 -25 -25 14 -14 24 26 15 16 25 24 -14 15 -24 hvcurveto
          75 -493 rmoveto
          43 325 rlineto
          -75 hlineto
          -47 -406 rlineto
          -116 -13 -62 -58 -103 hhcurveto
          -90 -46 46 92 15 1 14 2 16 hvcurveto
          53 397 rlineto
          -74 hlineto
          -38 -319 -12 -87 rlineto
          -3 -19 -1 -18 -17 vvcurveto
          -120 77 -67 126 149 87 92 157 17 vhcurveto
          endchar
        </CharString>
        <CharString name="Udotbelow">
          84 -161 88 66 67 580 -20 hstem
          69 72 90 87 vstem
          534 315 rmoveto
          43 325 rlineto
          -75 hlineto
          -47 -406 rlineto
          -116 -13 -62 -58 -103 hhcurveto
          -90 -46 46 92 15 1 14 2 16 hvcurveto
          53 397 rlineto
          -74 hlineto
          -38 -319 -12 -87 rlineto
          -3 -19 -1 -18 -17 vvcurveto
          -120 77 -67 126 149 87 92 157 17 vhcurveto
          -249 -315 rmoveto
          -28 -17 -18 -27 -27 16 -16 27 27 17 18 28 26 -16 16 -26 hvcurveto
          endchar
        </CharString>
        <CharString name="Ugrave">
          84 -7 67 580 -20 hstem
          69 72 vstem
          278 861 rmoveto
          -19 -44 3 -8 67 -32 62 -27 64 -27 rlinecurve
          9 4 14 34 -62 31 -61 31 -68 40 rlinecurve
          247 -548 rmoveto
          43 325 rlineto
          -75 hlineto
          -47 -406 rlineto
          -116 -13 -62 -58 -103 hhcurveto
          -90 -46 46 92 15 1 14 2 16 hvcurveto
          53 397 rlineto
          -74 hlineto
          -38 -319 -12 -87 rlineto
          -3 -19 -1 -18 -17 vvcurveto
          -120 77 -67 126 149 87 92 157 17 vhcurveto
          endchar
        </CharString>
        <CharString name="Uhookabove">
          84 -7 67 580 -20 230 42 hstem
          69 72 233 46 vstem
          358 892 rmoveto
          -28 -30 -15 -26 -26 hvcurveto
          16 -25 rlineto
          16 19 21 8 17 hhcurveto
          16 11 -7 -14 -17 -18 -24 -32 -24 hvcurveto
          31 -53 33 18 -19 34 rlineto
          35 29 16 21 24 vvcurveto
          31 -26 24 -36 vhcurveto
          176 -577 rmoveto
          43 325 rlineto
          -75 hlineto
          -47 -406 rlineto
          -116 -13 -62 -58 -103 hhcurveto
          -90 -46 46 92 15 1 14 2 16 hvcurveto
          53 397 rlineto
          -74 hlineto
          -38 -319 -12 -87 rlineto
          -3 -19 -1 -18 -17 vvcurveto
          -120 77 -67 126 149 87 92 157 17 vhcurveto
          endchar
        </CharString>
        <CharString name="Uhorn">
          90 -7 67 580 -20 hstem
          69 72 451 59 vstem
          651 697 rmoveto
          44 -28 33 -22 -11 -12 -6 -9 -13 vhcurveto
          -3 -7 rlineto
          22 -22 8 -19 -19 vvcurveto
          -33 -21 -19 -41 vhcurveto
          -28 hlineto
          -47 -406 rlineto
          -116 -13 -62 -58 -103 hhcurveto
          -90 -46 46 92 15 1 14 2 16 hvcurveto
          53 397 rlineto
          -74 hlineto
          -38 -319 -12 -87 rlineto
          -3 -19 -1 -18 -17 vvcurveto
          -120 77 -67 126 149 87 92 157 17 vhcurveto
          9 73 38 290 rlineto
          49 13 30 35 44 vvcurveto
          endchar
        </CharString>
        <CharString name="Uhornacute">
          90 -7 67 580 -20 hstem
          69 72 451 59 vstem
          275 724 rmoveto
          9 -4 64 28 62 26 67 32 rlinecurve
          3 9 -20 44 -8 2 -68 -40 -61 -32 -62 -31 rlinecurve
          390 -61 rmoveto
          44 -28 33 -22 -11 -12 -6 -9 -13 vhcurveto
          -3 -7 rlineto
          22 -22 8 -19 -19 vvcurveto
          -33 -21 -19 -41 vhcurveto
          -28 hlineto
          -47 -406 rlineto
          -116 -13 -62 -58 -103 hhcurveto
          -90 -46 46 92 15 1 14 2 16 hvcurveto
          53 397 rlineto
          -74 hlineto
          -38 -319 -12 -87 rlineto
          -3 -19 -1 -18 -17 vvcurveto
          -120 77 -67 126 149 87 92 157 17 vhcurveto
          9 73 38 290 rlineto
          49 13 30 35 44 vvcurveto
          endchar
        </CharString>
        <CharString name="Uhorndotbelow">
          90 -161 88 66 67 580 -20 hstem
          69 72 82 87 282 59 vstem
          651 697 rmoveto
          44 -28 33 -22 -11 -12 -6 -9 -13 vhcurveto
          -3 -7 rlineto
          22 -22 8 -19 -19 vvcurveto
          -33 -21 -19 -41 vhcurveto
          -28 hlineto
          -47 -406 rlineto
          -116 -13 -62 -58 -103 hhcurveto
          -90 -46 46 92 15 1 14 2 16 hvcurveto
          53 397 rlineto
          -74 hlineto
          -38 -319 -12 -87 rlineto
          -3 -19 -1 -18 -17 vvcurveto
          -120 77 -67 126 149 87 92 157 17 vhcurveto
          9 73 38 290 rlineto
          49 13 30 35 44 vvcurveto
          -383 -770 rmoveto
          -28 -17 -18 -27 -27 16 -16 27 27 17 18 28 26 -16 16 -26 hvcurveto
          endchar
        </CharString>
        <CharString name="Uhorngrave">
          90 -7 67 580 -20 hstem
          69 72 451 59 vstem
          456 727 rmoveto
          14 34 -62 31 -61 31 -68 40 rlinecurve
          -9 -2 -19 -44 3 -8 67 -32 62 -27 64 -27 rlinecurve
          204 -26 rmoveto
          44 -28 33 -22 -11 -12 -6 -9 -13 vhcurveto
          -3 -7 rlineto
          22 -22 8 -19 -19 vvcurveto
          -33 -21 -19 -41 vhcurveto
          -28 hlineto
          -47 -406 rlineto
          -116 -13 -62 -58 -103 hhcurveto
          -90 -46 46 92 15 1 14 2 16 hvcurveto
          53 397 rlineto
          -74 hlineto
          -38 -319 -12 -87 rlineto
          -3 -19 -1 -18 -17 vvcurveto
          -120 77 -67 126 149 87 92 157 17 vhcurveto
          9 73 38 290 rlineto
          49 13 30 35 44 vvcurveto
          endchar
        </CharString>
        <CharString name="Uhornhookabove">
          90 -7 67 580 -20 230 42 hstem
          69 72 224 46 181 59 vstem
          338 850 rmoveto
          16 11 -7 -14 -17 -18 -24 -32 -24 hvcurveto
          31 -53 33 18 -19 34 rlineto
          35 29 16 21 24 vvcurveto
          31 -26 24 -36 -28 -30 -15 -26 -26 vhcurveto
          16 -25 rlineto
          16 19 21 8 17 hhcurveto
          313 -153 rmoveto
          44 -28 33 -22 -11 -12 -6 -9 -13 vhcurveto
          -3 -7 rlineto
          22 -22 8 -19 -19 vvcurveto
          -33 -21 -19 -41 vhcurveto
          -28 hlineto
          -47 -406 rlineto
          -116 -13 -62 -58 -103 hhcurveto
          -90 -46 46 92 15 1 14 2 16 hvcurveto
          53 397 rlineto
          -74 hlineto
          -38 -319 -12 -87 rlineto
          -3 -19 -1 -18 -17 vvcurveto
          -120 77 -67 126 149 87 92 157 17 vhcurveto
          9 73 38 290 rlineto
          49 13 30 35 44 vvcurveto
          endchar
        </CharString>
        <CharString name="Uhorntilde">
          90 -7 67 580 -20 hstem
          69 72 451 59 vstem
          226 735 rmoveto
          9 hlineto
          25 25 16 21 15 hhcurveto
          26 88 -32 -5 41 hvcurveto
          9 4 61 67 rlineto
          7 vlineto
          -24 25 rlineto
          -7 hlineto
          -26 -26 -16 -20 -15 hhcurveto
          -25 -88 31 5 -42 hvcurveto
          -9 -3 -61 -67 rlineto
          -7 vlineto
          448 -63 rmoveto
          44 -28 33 -22 -11 -12 -6 -9 -13 vhcurveto
          -3 -7 rlineto
          22 -22 8 -19 -19 vvcurveto
          -33 -21 -19 -41 vhcurveto
          -28 hlineto
          -47 -406 rlineto
          -116 -13 -62 -58 -103 hhcurveto
          -90 -46 46 92 15 1 14 2 16 hvcurveto
          53 397 rlineto
          -74 hlineto
          -38 -319 -12 -87 rlineto
          -3 -19 -1 -18 -17 vvcurveto
          -120 77 -67 126 149 87 92 157 17 vhcurveto
          9 73 38 290 rlineto
          49 13 30 35 44 vvcurveto
          endchar
        </CharString>
        <CharString name="Uhungarumlaut">
          84 -7 67 580 -20 hstem
          69 72 vstem
          247 718 rmoveto
          9 1 40 36 39 36 39 38 rlinecurve
          8 vlineto
          -34 24 rlineto
          -8 hlineto
          -35 -42 -37 -38 -38 -40 rrcurveto
          167 -23 rmoveto
          9 1 39 36 40 36 38 38 rlinecurve
          1 8 -36 24 rlineto
          -6 hlineto
          -36 -42 -37 -38 -37 -40 rrcurveto
          170 -426 rmoveto
          43 325 rlineto
          -75 hlineto
          -47 -406 rlineto
          -116 -13 -62 -58 -103 hhcurveto
          -90 -46 46 92 15 1 14 2 16 hvcurveto
          53 397 rlineto
          -74 hlineto
          -38 -319 -12 -87 rlineto
          -3 -19 -1 -18 -17 vvcurveto
          -120 77 -67 126 149 87 92 157 17 vhcurveto
          endchar
        </CharString>
        <CharString name="Umacron">
          84 -7 67 580 -20 144 50 hstem
          69 72 vstem
          516 809 rmoveto
          -6 5 rlineto
          -283 hlineto
          -5 -44 6 -6 rlineto
          283 hlineto
          23 -449 rmoveto
          43 325 rlineto
          -75 hlineto
          -47 -406 rlineto
          -116 -13 -62 -58 -103 hhcurveto
          -90 -46 46 92 15 1 14 2 16 hvcurveto
          53 397 rlineto
          -74 hlineto
          -38 -319 -12 -87 rlineto
          -3 -19 -1 -18 -17 vvcurveto
          -120 77 -67 126 149 87 92 157 17 vhcurveto
          endchar
        </CharString>
        <CharString name="Uogonek">
          83 -197 50 140 67 580 -20 hstem
          69 72 150 48 vstem
          577 640 rmoveto
          -75 hlineto
          -47 -406 rlineto
          -116 -13 -62 -58 -103 hhcurveto
          -90 -46 46 92 15 1 14 2 16 hvcurveto
          53 397 rlineto
          -74 hlineto
          -38 -319 -12 -87 rlineto
          -3 -19 -1 -18 -17 vvcurveto
          -120 77 -67 126 27 25 3 6 23 vhcurveto
          -34 -55 rlineto
          -16 -23 -6 -22 -21 vvcurveto
          -46 29 -32 45 33 30 19 35 31 vhcurveto
          -12 36 rlineto
          -5 hlineto
          -27 -20 -26 -13 -22 hhcurveto
          -24 -11 14 21 14 6 19 11 18 hvcurveto
          51 88 67 40 40 74 11 101 rlinecurve
          9 73 rlineto
          endchar
        </CharString>
        <CharString name="Uring">
          84 -7 67 580 -20 94 36 89 38 hstem
          69 72 146 37 91 37 vstem
          370 877 rmoveto
          -52 -31 -33 -49 -52 35 -29 46 47 37 30 53 45 -28 35 -54 hvcurveto
          -1 -38 rmoveto
          31 15 -19 -26 -29 -19 -15 -26 -27 -19 16 30 27 15 16 30 hvcurveto
          165 -524 rmoveto
          43 325 rlineto
          -75 hlineto
          -47 -406 rlineto
          -116 -13 -62 -58 -103 hhcurveto
          -90 -46 46 92 15 1 14 2 16 hvcurveto
          53 397 rlineto
          -74 hlineto
          -38 -319 -12 -87 rlineto
          -3 -19 -1 -18 -17 vvcurveto
          -120 77 -67 126 149 87 92 157 17 vhcurveto
          endchar
        </CharString>
        <CharString name="Utilde">
          84 -7 67 580 -20 hstem
          69 72 vstem
          525 822 rmoveto
          -24 25 rlineto
          -7 hlineto
          -26 -26 -16 -20 -15 hhcurveto
          -25 -88 31 5 -42 hvcurveto
          -9 -3 -61 -67 rlineto
          -7 vlineto
          23 -25 rlineto
          9 hlineto
          25 25 16 21 15 hhcurveto
          26 88 -32 -5 41 hvcurveto
          9 4 61 67 rlineto
          9 -500 rmoveto
          43 325 rlineto
          -75 hlineto
          -47 -406 rlineto
          -116 -13 -62 -58 -103 hhcurveto
          -90 -46 46 92 15 1 14 2 16 hvcurveto
          53 397 rlineto
          -74 hlineto
          -38 -319 -12 -87 rlineto
          -3 -19 -1 -18 -17 vvcurveto
          -120 77 -67 126 149 87 92 157 17 vhcurveto
          endchar
        </CharString>
        <CharString name="V">
          21 0 78 562 -20 hstem
          65 514 vstem
          277 hmoveto
          302 640 rlineto
          -74 hlineto
          -24 -66 -234 -496 rlineto
          -5 hlineto
          -94 499 -6 63 rlineto
          -77 hlineto
          125 -640 rlineto
          endchar
        </CharString>
        <CharString name="V.ss01">
          -41 0 33 -33 74 390 34 hstemhm
          -124 727 hintmask 10110000
          472 464 rmoveto
          126 hlineto
          5 34 rlineto
          -664 hlineto
          -5 -34 rlineto
          136 hlineto
          90 -431 rlineto
          -279 hlineto
          -5 -33 rlineto
          664 hlineto
          5 33 rlineto
          -284 hlineto
          147 431 rmoveto
          -10 -28 rlineto
          hintmask 01110000
          -180 -362 rlineto
          -4 hlineto
          -74 366 -3 24 rlineto
          endchar
        </CharString>
        <CharString name="W">
          336 0 84 556 -20 hstem
          71 821 vstem
          593 hmoveto
          299 640 rlineto
          -71 hlineto
          -22 -64 -227 -492 rlineto
          -7 hlineto
          -89 490 -6 66 rlineto
          -78 hlineto
          32 -161 -180 -395 rlineto
          -7 hlineto
          -89 497 -2 59 rlineto
          -75 hlineto
          115 -640 rlineto
          79 hlineto
          172 378 rlineto
          7 hlineto
          72 -378 rlineto
          endchar
        </CharString>
        <CharString name="Wacute">
          336 0 84 556 -20 hstem
          71 821 vstem
          573 859 rmoveto
          -8 2 -68 -40 -61 -32 -62 -31 rlinecurve
          14 -34 9 -4 64 28 62 26 67 32 rlinecurve
          3 9 rlineto
          -815 vmoveto
          299 640 rlineto
          -71 hlineto
          -22 -64 -228 -492 rlineto
          -6 hlineto
          -90 490 -6 66 rlineto
          -77 hlineto
          32 -161 -181 -395 rlineto
          -6 hlineto
          -89 497 -3 59 rlineto
          -74 hlineto
          114 -640 rlineto
          79 hlineto
          173 378 rlineto
          6 hlineto
          73 -378 rlineto
          endchar
        </CharString>
        <CharString name="Wcircumflex">
          336 0 84 556 -20 hstem
          71 821 vstem
          359 732 rmoveto
          9 hlineto
          38 22 36 22 37 23 30 -23 30 -22 33 -22 rrcurveto
          8 hlineto
          20 33 -37 28 -37 30 -32 31 rlinecurve
          -22 hlineto
          -39 -31 -40 -30 -46 -28 rrcurveto
          246 -765 rmoveto
          299 640 rlineto
          -71 hlineto
          -22 -64 -228 -492 rlineto
          -6 hlineto
          -90 490 -6 66 rlineto
          -77 hlineto
          32 -161 -181 -395 rlineto
          -6 hlineto
          -89 497 -3 59 rlineto
          -74 hlineto
          114 -640 rlineto
          79 hlineto
          173 378 rlineto
          6 hlineto
          73 -378 rlineto
          endchar
        </CharString>
        <CharString name="Wdieresis">
          336 0 84 556 -20 125 85 hstem
          352 83 76 83 vstem
          395 831 rmoveto
          -27 -16 -17 -27 -26 15 -16 26 25 17 18 27 24 -15 17 -25 hvcurveto
          160 -1 rmoveto
          -28 -16 -17 -27 -26 15 -15 26 25 17 17 27 25 -15 16 -24 hvcurveto
          38 -830 rmoveto
          299 640 rlineto
          -71 hlineto
          -22 -64 -228 -492 rlineto
          -6 hlineto
          -90 490 -6 66 rlineto
          -77 hlineto
          32 -161 -181 -395 rlineto
          -6 hlineto
          -89 497 -3 59 rlineto
          -74 hlineto
          114 -640 rlineto
          79 hlineto
          173 378 rlineto
          6 hlineto
          73 -378 rlineto
          endchar
        </CharString>
        <CharString name="Wgrave">
          336 0 84 556 -20 hstem
          71 821 vstem
          382 861 rmoveto
          -19 -44 3 -8 67 -32 62 -27 64 -27 rlinecurve
          9 4 14 34 -62 31 -61 31 -68 40 rlinecurve
          202 -863 rmoveto
          299 640 rlineto
          -71 hlineto
          -22 -64 -228 -492 rlineto
          -6 hlineto
          -90 490 -6 66 rlineto
          -77 hlineto
          32 -161 -181 -395 rlineto
          -6 hlineto
          -89 497 -3 59 rlineto
          -74 hlineto
          114 -640 rlineto
          79 hlineto
          173 378 rlineto
          6 hlineto
          73 -378 rlineto
          endchar
        </CharString>
        <CharString name="X">
          48 21 -21 640 -20 hstem
          -4 573 vstem
          339 329 rmoveto
          230 311 rlineto
          -81 hlineto
          -31 -49 -158 -209 -106 209 -19 49 rlineto
          -87 hlineto
          156 -312 -247 -328 rlineto
          80 hlineto
          30 46 174 229 115 -224 19 -51 rlineto
          87 hlineto
          endchar
        </CharString>
        <CharString name="X.ss01">
          -21 0 33 431 34 hstem
          -124 747 vstem
          292 258 rmoveto
          163 206 rlineto
          163 hlineto
          5 34 rlineto
          -684 hlineto
          -5 -34 rlineto
          157 hlineto
          116 -211 -175 -220 rlineto
          -151 hlineto
          -5 -33 rlineto
          684 hlineto
          5 33 rlineto
          -152 hlineto
          -155 268 rmoveto
          -82 146 -6 17 rlineto
          216 hlineto
          -10 -16 rlineto
          -136 -239 rmoveto
          87 -156 9 -20 rlineto
          -237 hlineto
          11 16 rlineto
          endchar
        </CharString>
        <CharString name="Y">
          -11 21 -21 640 -20 hstem
          205.5 68 vstem
          277 233 rmoveto
          263 407 rlineto
          -82 hlineto
          -19 -37 -181 -289 rlineto
          -8 hlineto
          -98 291 -7 35 rlineto
          -79 hlineto
          142 -407 -5 -46 -29 -187 rlineto
          76 hlineto
          20 187 rlineto
          endchar
        </CharString>
        <CharString name="Yacute">
          -11 21 -21 640 -20 hstem
          205.5 68 vstem
          236 724 rmoveto
          9 -4 64 28 62 26 67 32 rlinecurve
          3 9 -20 44 -8 2 -68 -40 -61 -32 -62 -31 rlinecurve
          55 -525 rmoveto
          263 407 rlineto
          -82 hlineto
          -19 -37 -182 -289 rlineto
          -7 hlineto
          -98 291 -7 35 rlineto
          -79 hlineto
          142 -406 -5 -47 -29 -187 rlineto
          75 hlineto
          21 187 rlineto
          endchar
        </CharString>
        <CharString name="Ycircumflex">
          -11 21 -21 640 -20 hstem
          205.5 68 vstem
          207 732 rmoveto
          9 hlineto
          38 22 36 22 37 23 30 -23 30 -22 33 -22 rrcurveto
          8 hlineto
          20 33 -37 28 -37 30 -32 31 rlinecurve
          -22 hlineto
          -39 -31 -40 -30 -46 -28 rrcurveto
          82 -532 rmoveto
          263 407 rlineto
          -82 hlineto
          -19 -37 -182 -289 rlineto
          -7 hlineto
          -98 291 -7 35 rlineto
          -79 hlineto
          142 -406 -5 -47 -29 -187 rlineto
          75 hlineto
          21 187 rlineto
          endchar
        </CharString>
        <CharString name="Ydieresis">
          -11 21 -21 640 -20 125 85 hstemhm
          200 83 -77.5 68 85.5 83 hintmask 11110100
          241 745 rmoveto
          25 17 18 27 24 -15 17 -25 -27 -16 -17 -27 -26 15 -16 26 hvcurveto
          159 hmoveto
          25 17 17 27 25 -15 16 -24 -28 -16 -17 -27 -26 15 -15 26 hvcurveto
          hintmask 11101100
          -123 -512 rmoveto
          263 407 rlineto
          -82 hlineto
          -19 -37 -182 -289 rlineto
          -7 hlineto
          -98 291 -7 35 rlineto
          -79 hlineto
          142 -406 -5 -47 -29 -187 rlineto
          75 hlineto
          21 187 rlineto
          endchar
        </CharString>
        <CharString name="Ydotbelow">
          -11 -161 88 94 -21 640 -20 hstemhm
          160 87 -41.5 68 hintmask 00000000
          hintmask 11101000
          277 233 rmoveto
          263 407 rlineto
          -82 hlineto
          -19 -37 -182 -289 rlineto
          -7 hlineto
          -98 291 -7 35 rlineto
          -79 hlineto
          142 -406 -5 -47 -29 -187 rlineto
          75 hlineto
          21 187 rlineto
          hintmask 11110000
          -65 -260 rmoveto
          -28 -17 -18 -27 -27 16 -16 27 27 17 18 28 26 -16 16 -26 hvcurveto
          endchar
        </CharString>
        <CharString name="Ygrave">
          -11 21 -21 640 -20 hstem
          205.5 68 vstem
          416 727 rmoveto
          14 34 -62 31 -61 31 -68 40 rlinecurve
          -9 -2 -19 -44 3 -8 67 -32 62 -27 64 -27 rlinecurve
          -130 -490 rmoveto
          263 407 rlineto
          -82 hlineto
          -19 -37 -182 -289 rlineto
          -7 hlineto
          -98 291 -7 35 rlineto
          -79 hlineto
          142 -406 -5 -47 -29 -187 rlineto
          75 hlineto
          21 187 rlineto
          endchar
        </CharString>
        <CharString name="Yhookabove">
          -11 21 -21 640 -20 230 42 hstem
          205.5 68 52.5 46 vstem
          299 850 rmoveto
          16 11 -7 -14 -17 -18 -24 -32 -24 hvcurveto
          31 -53 33 18 -19 34 rlineto
          35 29 16 21 24 vvcurveto
          31 -26 24 -36 -28 -30 -15 -26 -26 vhcurveto
          16 -25 rlineto
          16 19 21 8 17 hhcurveto
          -22 -617 rmoveto
          263 407 rlineto
          -82 hlineto
          -19 -37 -182 -289 rlineto
          -7 hlineto
          -98 291 -7 35 rlineto
          -79 hlineto
          142 -406 -5 -47 -29 -187 rlineto
          75 hlineto
          21 187 rlineto
          endchar
        </CharString>
        <CharString name="Ytilde">
          -11 21 -21 640 -20 hstem
          205.5 68 vstem
          187 735 rmoveto
          9 hlineto
          25 25 16 21 15 hhcurveto
          26 88 -32 -5 41 hvcurveto
          9 4 61 67 rlineto
          7 vlineto
          -24 25 rlineto
          -7 hlineto
          -26 -26 -16 -20 -15 hhcurveto
          -25 -88 31 5 -42 hvcurveto
          -9 -3 -61 -67 rlineto
          -7 vlineto
          113 -527 rmoveto
          263 407 rlineto
          -82 hlineto
          -19 -37 -182 -289 rlineto
          -7 hlineto
          -98 291 -7 35 rlineto
          -79 hlineto
          142 -406 -5 -47 -29 -187 rlineto
          75 hlineto
          21 187 rlineto
          endchar
        </CharString>
        <CharString name="Z">
          -10 0 61 -42 -21 580 63 hstemhm
          3 514 hintmask 10110000
          510 585 rmoveto
          7 56 -48 -1 -366 1 -15 -64 4 -5 90 6 rlineto
          238 hlineto
          hintmask 01110000
          -410 -525 -7 -56 rlineto
          hintmask 10110000
          54 3 rlineto
          268 hlineto
          110 -2 13 64 -3 6 -90 -7 rlineto
          -254 hlineto
          endchar
        </CharString>
        <CharString name="Zacute">
          -10 0 61 -42 -21 580 63 hstemhm
          3 513 hintmask 10110000
          388 859 rmoveto
          -8 2 -68 -40 -61 -32 -62 -31 rlinecurve
          14 -34 9 -4 64 28 62 26 67 32 rlinecurve
          3 9 rlineto
          101 -230 rmoveto
          7 56 -47 -1 -367 1 -15 -64 4 -5 91 6 rlineto
          237 hlineto
          hintmask 01110000
          -409 -525 -7 -56 rlineto
          hintmask 10110000
          54 3 rlineto
          268 hlineto
          109 -2 14 64 -3 6 -90 -7 rlineto
          -254 hlineto
          endchar
        </CharString>
        <CharString name="Zcaron">
          -10 0 61 -42 -21 580 63 hstemhm
          3 513 hintmask 10110000
          401 846 rmoveto
          -9 hlineto
          -38 -22 -36 -21 -36 -23 -31 23 -31 21 -31 22 rrcurveto
          -9 hlineto
          -19 -32 36 -28 36 -31 34 -31 rlinecurve
          22 hlineto
          37 31 42 31 45 28 rrcurveto
          96 -229 rmoveto
          7 56 -47 -1 -367 1 -15 -64 4 -5 91 6 rlineto
          237 hlineto
          hintmask 01110000
          -409 -525 -7 -56 rlineto
          hintmask 10110000
          54 3 rlineto
          268 hlineto
          109 -2 14 64 -3 6 -90 -7 rlineto
          -254 hlineto
          endchar
        </CharString>
        <CharString name="Zdotaccent">
          -10 0 61 -42 -21 580 63 113 89 hstemhm
          245 87 hintmask 10111000
          291 843 rmoveto
          -28 -18 -18 -27 -27 16 -17 27 27 17 18 28 27 -15 16 -26 hvcurveto
          218 -258 rmoveto
          7 56 -47 -1 -367 1 -15 -64 4 -5 91 6 rlineto
          237 hlineto
          hintmask 01111000
          -409 -525 -7 -56 rlineto
          hintmask 10111000
          54 3 rlineto
          268 hlineto
          109 -2 14 64 -3 6 -90 -7 rlineto
          -254 hlineto
          endchar
        </CharString>
        <CharString name="a">
          -22 0 188 -57.5 57.5 239 71 hstemhm
          -3 433 hintmask 00000000
          hintmask 10110000
          430 hmoveto
          -105 498 rlineto
          -81 hlineto
          -247 -498 rlineto
          70 hlineto
          hintmask 01110000
          21 56 37 74 101 1 113 -1 rlineto
          hintmask 10110000
          16 -77 3 -53 rlineto
          hintmask 01110000
          -32 188 rmoveto
          -173 hlineto
          119 239 rlineto
          4 hlineto
          endchar
        </CharString>
        <CharString name="a.sups">
          -201 333 56 208.5 47.5 -44 44 hstemhm
          63 56 hintmask 00000000
          hintmask 10110000
          315 644 rmoveto
          -6 4 -38 -10 -50 7 rlineto
          -4 hlineto
          -103 -20 -51 -94 -98 vvcurveto
          -53 13 -29 46 -18 vhcurveto
          10 hlineto
          36 34 32 48 29 55 rrcurveto
          7 1 hlineto
          -17 -137 60 4 5 72 rlineto
          -144 -21 rmoveto
          -8 -13 18 49 80 33 64 57 1 hvcurveto
          hintmask 01010000
          42 -7 -2 -21 -3 -23 rlineto
          hintmask 10110000
          -103 -49 -47 -58 -10 hhcurveto
          endchar
        </CharString>
        <CharString name="aacute">
          -22 0 188 -57.5 57.5 239 71 92 -20 hstemhm
          -3 433 hintmask 01111000
          222 560 rmoveto
          8 -1 57 40 53 41 58 46 rlinecurve
          2 9 -28 39 -9 1 -56 -55 -52 -45 -54 -45 rlinecurve
          hintmask 10111000
          229 -590 rmoveto
          -104 498 rlineto
          -82 hlineto
          -247 -498 rlineto
          70 hlineto
          hintmask 01111000
          21 56 37 74 101 1 113 -1 rlineto
          hintmask 10111000
          16 -77 4 -53 rlineto
          hintmask 01111000
          -33 188 rmoveto
          -173 hlineto
          119 239 rlineto
          4 hlineto
          endchar
        </CharString>
        <CharString name="abreve">
          -22 0 188 -57.5 57.5 239 71 68 55 59 29 0 -20 hstemhm
          198 11 hintmask 01110110
          288 566 rmoveto
          hintmask 01111010
          66 45 43 71 23 hvcurveto
          -18 29 rlineto
          -12 hlineto
          -60 -19 -34 -28 -48 hhcurveto
          -48 -28 28 60 -6 hvcurveto
          -11 hlineto
          -24 -29 rlineto
          hintmask 01110110
          -69 6 32 -45 76 hhcurveto
          hintmask 10110110
          142 -566 rmoveto
          -104 498 rlineto
          -82 hlineto
          -247 -498 rlineto
          70 hlineto
          hintmask 01110110
          21 56 37 74 101 1 113 -1 rlineto
          hintmask 10110110
          16 -77 4 -53 rlineto
          hintmask 01110110
          -33 188 rmoveto
          -173 hlineto
          119 239 rlineto
          4 hlineto
          endchar
        </CharString>
        <CharString name="abreveacute">
          -22 0 188 -57.5 57.5 239 71 64 55 34 -20 hstemhm
          -3 433 hintmask 01111100
          284 673 rmoveto
          8 hlineto
          33 33 32 31 31 33 -1 8 rcurveline
          -34 24 -8 -1 -29 -37 -28 -34 -30 -35 rlinecurve
          38 -133 rmoveto
          57 46 32 57 25 hvcurveto
          -18 26 rlineto
          -12 hlineto
          -38 -19 -34 -22 -45 hhcurveto
          -47 -29 22 38 -8 hvcurveto
          -12 hlineto
          -25 -26 rlineto
          -57 12 44 -32 65 hhcurveto
          hintmask 10111100
          134 -562 rmoveto
          -104 498 rlineto
          -82 hlineto
          -247 -498 rlineto
          70 hlineto
          hintmask 01111100
          21 56 37 74 101 1 113 -1 rlineto
          hintmask 10111100
          16 -77 4 -53 rlineto
          hintmask 01111100
          -33 188 rmoveto
          -173 hlineto
          119 239 rlineto
          4 hlineto
          endchar
        </CharString>
        <CharString name="abrevedotbelow">
          -22 -161 88 73 188 -57.5 57.5 239 71 68 55 59 29 0 -20 hstemhm
          176 87 -65 11 hintmask 0011101010000000
          288 566 rmoveto
          hintmask 0011110010000000
          66 45 43 71 23 hvcurveto
          -18 29 rlineto
          -12 hlineto
          -60 -19 -34 -28 -48 hhcurveto
          -48 -28 28 60 -6 hvcurveto
          -11 hlineto
          -24 -29 rlineto
          hintmask 0011101010000000
          -69 6 32 -45 76 hhcurveto
          hintmask 0101101010000000
          142 -566 rmoveto
          -104 498 rlineto
          -82 hlineto
          -247 -498 rlineto
          70 hlineto
          hintmask 0011101010000000
          21 56 37 74 101 1 113 -1 rlineto
          hintmask 0101101010000000
          16 -77 4 -53 rlineto
          hintmask 1011101100000000
          -33 188 rmoveto
          -173 hlineto
          119 239 rlineto
          4 hlineto
          -55 -500 rmoveto
          -28 -17 -18 -27 -27 16 -16 27 27 17 18 28 26 -16 16 -26 hvcurveto
          endchar
        </CharString>
        <CharString name="abrevegrave">
          -22 0 188 -57.5 57.5 239 71 63 55 35 -20 hstemhm
          -3 433 hintmask 01111100
          312 673 rmoveto
          26 22 -30 35 -28 34 -29 37 rlinecurve
          -7 1 -36 -24 rlineto
          -8 vlineto
          31 -33 32 -31 33 -33 rrcurveto
          -7 -112 rmoveto
          57 46 32 58 25 hvcurveto
          -18 26 rlineto
          -12 hlineto
          -39 -19 -34 -22 -45 hhcurveto
          -47 -29 22 39 -8 hvcurveto
          -12 hlineto
          -25 -26 rlineto
          -58 12 44 -32 65 hhcurveto
          hintmask 10111100
          133 -561 rmoveto
          -104 498 rlineto
          -82 hlineto
          -247 -498 rlineto
          70 hlineto
          hintmask 01111100
          21 56 37 74 101 1 113 -1 rlineto
          hintmask 10111100
          16 -77 4 -53 rlineto
          hintmask 01111100
          -33 188 rmoveto
          -173 hlineto
          119 239 rlineto
          4 hlineto
          endchar
        </CharString>
        <CharString name="abrevehookabove">
          -22 0 188 -57.5 57.5 239 71 65 54 35 -20 177 42 hstemhm
          316 46 hintmask 01111110
          290 809 rmoveto
          16 10 -7 -14 -17 -18 -24 -32 -24 hvcurveto
          32 -53 32 18 -19 34 rlineto
          35 29 16 21 24 vvcurveto
          31 -26 24 -35 -28 -31 -15 -26 -25 vhcurveto
          15 -25 rlineto
          16 19 22 8 17 hhcurveto
          6 -246 rmoveto
          57 46 32 57 25 hvcurveto
          -18 26 rlineto
          -12 hlineto
          -38 -19 -34 -23 -45 hhcurveto
          -47 -29 23 38 -8 hvcurveto
          -12 hlineto
          -25 -26 rlineto
          -57 12 44 -32 65 hhcurveto
          hintmask 10111110
          134 -563 rmoveto
          -104 498 rlineto
          -82 hlineto
          -247 -498 rlineto
          70 hlineto
          hintmask 01111110
          21 56 37 74 101 1 113 -1 rlineto
          hintmask 10111110
          16 -77 4 -53 rlineto
          hintmask 01111110
          -33 188 rmoveto
          -173 hlineto
          119 239 rlineto
          4 hlineto
          endchar
        </CharString>
        <CharString name="abrevetilde">
          -22 0 188 -57.5 57.5 239 71 64 54 34 -20 hstemhm
          -3 463 hintmask 01111100
          460 797 rmoveto
          -21 24 rlineto
          -8 hlineto
          -25 -24 -14 -20 -15 hhcurveto
          -24 -82 30 5 -39 hvcurveto
          -9 -3 -57 -64 rlineto
          -8 vlineto
          22 -23 rlineto
          8 hlineto
          24 23 15 20 14 hhcurveto
          25 82 -31 -5 39 hvcurveto
          9 3 56 66 rlineto
          -66 -115 rmoveto
          -12 hlineto
          -38 -18 -34 -21 -44 hhcurveto
          -46 -28 21 38 -8 hvcurveto
          -12 hlineto
          -24 -25 rlineto
          -56 12 42 -32 64 hhcurveto
          56 45 32 56 25 hvcurveto
          -86 -152 rmoveto
          -82 hlineto
          hintmask 10111100
          -247 -498 rlineto
          70 hlineto
          hintmask 01111100
          21 56 37 74 101 1 113 -1 rlineto
          hintmask 10111100
          16 -77 4 -53 rlineto
          71 hlineto
          hintmask 01111100
          -104 188 rmoveto
          -173 hlineto
          119 239 rlineto
          4 hlineto
          endchar
        </CharString>
        <CharString name="acaron">
          -22 0 188 -57.5 57.5 239 71 hstemhm
          -3 433 hintmask 01110000
          296 562 rmoveto
          49 50 43 45 41 38 -16 31 rcurveline
          -10 hlineto
          -42 -37 -37 -33 -36 -36 -26 36 -28 33 -34 37 rrcurveto
          -9 hlineto
          -24 -31 37 -40 36 -45 33 -48 rlinecurve
          hintmask 10110000
          157 -562 rmoveto
          -104 498 rlineto
          -82 hlineto
          -247 -498 rlineto
          70 hlineto
          hintmask 01110000
          21 56 37 74 101 1 113 -1 rlineto
          hintmask 10110000
          16 -77 4 -53 rlineto
          hintmask 01110000
          -33 188 rmoveto
          -173 hlineto
          119 239 rlineto
          4 hlineto
          endchar
        </CharString>
        <CharString name="acircumflex">
          -22 0 188 -57.5 57.5 239 71 93 -20 hstemhm
          -3 433 hintmask 01111000
          184 561 rmoveto
          9 hlineto
          42 36 38 34 35 35 26 -35 28 -34 35 -36 rrcurveto
          8 hlineto
          24 30 -35 41 -35 45 -33 48 rlinecurve
          -23 hlineto
          -49 -51 -44 -44 -43 -39 rrcurveto
          hintmask 10111000
          263 -591 rmoveto
          -104 498 rlineto
          -82 hlineto
          -247 -498 rlineto
          70 hlineto
          hintmask 01111000
          21 56 37 74 101 1 113 -1 rlineto
          hintmask 10111000
          16 -77 4 -53 rlineto
          hintmask 01111000
          -33 188 rmoveto
          -173 hlineto
          119 239 rlineto
          4 hlineto
          endchar
        </CharString>
        <CharString name="acircumflexacute">
          -22 0 188 -57.5 57.5 239 71 hstemhm
          -3 461 hintmask 01110000
          371 676 rmoveto
          18 12 69 87 -2 8 -36 18 -18 -15 -57 -90 rlineto
          -170 -125 rmoveto
          9 hlineto
          38 22 36 22 36 23 31 -23 30 -22 32 -22 rrcurveto
          9 hlineto
          19 33 -36 28 -37 30 -33 31 rlinecurve
          -22 hlineto
          -38 -31 -41 -30 -45 -28 rrcurveto
          163 -106 rmoveto
          -82 hlineto
          hintmask 10110000
          -247 -498 rlineto
          70 hlineto
          hintmask 01110000
          21 56 37 74 101 1 113 -1 rlineto
          hintmask 10110000
          16 -77 4 -53 rlineto
          71 hlineto
          hintmask 01110000
          -104 188 rmoveto
          -173 hlineto
          119 239 rlineto
          4 hlineto
          endchar
        </CharString>
        <CharString name="acircumflexdotbelow">
          -22 -161 88 73 188 -57.5 57.5 239 71 93 -20 hstemhm
          176 87 hintmask 10111100
          184 561 rmoveto
          9 hlineto
          42 36 38 34 35 35 26 -35 28 -34 35 -36 rrcurveto
          8 hlineto
          24 30 -35 41 -35 45 -33 48 rlinecurve
          -23 hlineto
          -49 -51 -44 -44 -43 -39 rrcurveto
          hintmask 11011100
          263 -591 rmoveto
          -104 498 rlineto
          -82 hlineto
          -247 -498 rlineto
          70 hlineto
          hintmask 10111100
          21 56 37 74 101 1 113 -1 rlineto
          hintmask 11011100
          16 -77 4 -53 rlineto
          hintmask 10111100
          -33 188 rmoveto
          -173 hlineto
          119 239 rlineto
          4 hlineto
          -55 -500 rmoveto
          -28 -17 -18 -27 -27 16 -16 27 27 17 18 28 26 -16 16 -26 hvcurveto
          endchar
        </CharString>
        <CharString name="acircumflexgrave">
          -22 0 188 -57.5 57.5 239 71 hstemhm
          -3 433 hintmask 01110000
          385 688 rmoveto
          17 -12 26 20 -57 90 -17 14 -37 -17 -2 -9 rlineto
          -136 -204 rmoveto
          9 hlineto
          38 23 37 21 36 23 31 -23 29 -21 33 -23 rrcurveto
          8 hlineto
          20 33 -37 28 -37 30 -32 31 rlinecurve
          -22 hlineto
          -38 -31 -41 -30 -45 -28 rrcurveto
          hintmask 10110000
          262 -603 rmoveto
          -104 498 rlineto
          -82 hlineto
          -247 -498 rlineto
          70 hlineto
          hintmask 01110000
          21 56 37 74 101 1 113 -1 rlineto
          hintmask 10110000
          16 -77 4 -53 rlineto
          hintmask 01110000
          -33 188 rmoveto
          -173 hlineto
          119 239 rlineto
          4 hlineto
          endchar
        </CharString>
        <CharString name="acircumflexhookabove">
          -22 0 188 -57.5 57.5 239 71 301 40 hstemhm
          402 43 hintmask 01111000
          376 799 rmoveto
          15 11 -7 -13 -16 -18 -23 -30 -23 hvcurveto
          29 -50 32 17 -18 32 rlineto
          33 28 15 20 22 vvcurveto
          30 -25 23 -34 -26 -30 -15 -24 -24 vhcurveto
          16 -24 rlineto
          15 17 21 8 16 hhcurveto
          -199 -228 rmoveto
          9 hlineto
          38 22 37 22 36 23 31 -23 29 -22 33 -22 rrcurveto
          8 hlineto
          20 33 -37 28 -37 30 -32 31 rlinecurve
          -22 hlineto
          -38 -31 -41 -30 -45 -28 rrcurveto
          160 -106 rmoveto
          -82 hlineto
          hintmask 10111000
          -247 -498 rlineto
          70 hlineto
          hintmask 01111000
          21 56 37 74 101 1 113 -1 rlineto
          hintmask 10111000
          16 -77 4 -53 rlineto
          71 hlineto
          hintmask 01111000
          -104 188 rmoveto
          -173 hlineto
          119 239 rlineto
          4 hlineto
          endchar
        </CharString>
        <CharString name="acircumflextilde">
          -22 0 188 -57.5 57.5 239 71 hstemhm
          -3 481 hintmask 01110000
          478 797 rmoveto
          -22 24 rlineto
          -7 hlineto
          -25 -24 -15 -20 -14 hhcurveto
          -24 -83 30 5 -39 hvcurveto
          -9 -3 -57 -64 rlineto
          -8 vlineto
          23 -23 rlineto
          7 hlineto
          24 23 15 20 14 hhcurveto
          25 82 -31 -5 40 hvcurveto
          8 3 57 66 rlineto
          -171 -152 rmoveto
          30 -23 30 -21 32 -22 rrcurveto
          9 hlineto
          20 32 -37 28 -37 31 -33 31 rlinecurve
          -21 hlineto
          -39 -31 -40 -31 -46 -28 12 -32 rcurveline
          9 hlineto
          38 22 36 21 37 23 rrcurveto
          19 -140 rmoveto
          -82 hlineto
          hintmask 10110000
          -247 -498 rlineto
          70 hlineto
          hintmask 01110000
          21 56 37 74 101 1 113 -1 rlineto
          hintmask 10110000
          16 -77 4 -53 rlineto
          71 hlineto
          hintmask 01110000
          -104 188 rmoveto
          -173 hlineto
          119 239 rlineto
          4 hlineto
          endchar
        </CharString>
        <CharString name="acute">
          519 176 hstem
          141 199 vstem
          312 694 rmoveto
          -9 1 -56 -55 -52 -45 -54 -45 rlinecurve
          21 -30 8 -1 57 40 53 41 58 46 rlinecurve
          2 9 rlineto
          endchar
        </CharString>
        <CharString name="acute.cap">
          538 141 hstem
          131 219 vstem
          330 677 rmoveto
          -8 2 -68 -40 -61 -32 -62 -31 rlinecurve
          14 -34 9 -4 64 28 62 26 67 32 rlinecurve
          3 9 rlineto
          endchar
        </CharString>
        <CharString name="adieresis">
          -22 0 188 -57.5 57.5 239 71 105 85 hstemhm
          178 83 76 83 hintmask 01111100
          219 603 rmoveto
          25 17 18 27 24 -15 17 -25 -27 -16 -17 -27 -26 15 -16 26 hvcurveto
          159 hmoveto
          25 17 17 27 25 -15 16 -24 -28 -16 -17 -27 -26 15 -15 26 hvcurveto
          hintmask 10111100
          52 -603 rmoveto
          -104 498 rlineto
          -82 hlineto
          -247 -498 rlineto
          70 hlineto
          hintmask 01111100
          21 56 37 74 101 1 113 -1 rlineto
          hintmask 10111100
          16 -77 4 -53 rlineto
          hintmask 01111100
          -33 188 rmoveto
          -173 hlineto
          119 239 rlineto
          4 hlineto
          endchar
        </CharString>
        <CharString name="adotbelow">
          -22 -161 88 73 188 -57.5 57.5 239 71 hstemhm
          176 87 hintmask 00000000
          hintmask 11011000
          430 hmoveto
          -104 498 rlineto
          -82 hlineto
          -247 -498 rlineto
          70 hlineto
          hintmask 10111000
          21 56 37 74 101 1 113 -1 rlineto
          hintmask 11011000
          16 -77 4 -53 rlineto
          hintmask 10111000
          -33 188 rmoveto
          -173 hlineto
          119 239 rlineto
          4 hlineto
          -55 -500 rmoveto
          -28 -17 -18 -27 -27 16 -16 27 27 17 18 28 26 -16 16 -26 hvcurveto
          endchar
        </CharString>
        <CharString name="ae">
          159 0 58 370 70 -56 56 hstemhm
          328.5 65 -59.5 65 hintmask 10110000
          625 56 rmoveto
          -5 6 rlineto
          hintmask 10101000
          -130 -4 rlineto
          -89 hlineto
          -4 147 175 33 3 57 -6 4 rlineto
          hintmask 10110000
          -173 -37 -5 180 rlineto
          75 hlineto
          128 -5 14 54 -3 7 rlineto
          -302 hlineto
          -329 -498 rlineto
          70 hlineto
          26 55 61 91 rlineto
          hintmask 10101000
          201 45 4 -139 -4 -52 rlineto
          280 hlineto
          hintmask 11010000
          -281 248 rmoveto
          -154 -34 143 214 rlineto
          6 hlineto
          endchar
        </CharString>
        <CharString name="aeacute">
          159 0 58 370 70 -56 56 92 -20 hstemhm
          328.5 65 -59.5 65 hintmask 10111000
          380 560 rmoveto
          8 -1 57 40 53 41 58 46 rlinecurve
          2 9 -28 39 -9 1 -56 -55 -52 -45 -54 -45 rlinecurve
          266 -534 rmoveto
          -5 6 rlineto
          hintmask 10110100
          -130 -4 rlineto
          -89 hlineto
          -4 147 174 33 4 57 -6 4 rlineto
          hintmask 10111000
          -173 -37 -5 180 rlineto
          75 hlineto
          128 -5 14 54 -3 7 rlineto
          -302 hlineto
          -329 -498 rlineto
          70 hlineto
          27 55 61 92 rlineto
          hintmask 10110100
          200 44 4 -139 -4 -52 rlineto
          280 hlineto
          hintmask 11011000
          -281 248 rmoveto
          -154 -34 143 214 rlineto
          6 hlineto
          endchar
        </CharString>
        <CharString name="agrave">
          -22 0 188 -57.5 57.5 239 71 92 -20 hstemhm
          -3 433 hintmask 01111000
          368 560 rmoveto
          21 30 -54 45 -52 45 -57 55 rlinecurve
          -8 -1 -28 -39 1 -9 58 -46 54 -41 57 -40 rlinecurve
          hintmask 10111000
          70 -559 rmoveto
          -104 498 rlineto
          -82 hlineto
          -247 -498 rlineto
          70 hlineto
          hintmask 01111000
          21 56 37 74 101 1 113 -1 rlineto
          hintmask 10111000
          16 -77 4 -53 rlineto
          hintmask 01111000
          -33 188 rmoveto
          -173 hlineto
          119 239 rlineto
          4 hlineto
          endchar
        </CharString>
        <CharString name="ahookabove">
          -22 0 188 -57.5 57.5 239 71 210 42 -41 -20 hstemhm
          304 46 hintmask 00000000
          hintmask 01110100
          277 708 rmoveto
          16 11 -7 -14 -17 -18 -24 -32 -24 hvcurveto
          31 -53 33 18 -19 34 rlineto
          35 29 16 21 24 vvcurveto
          31 -26 24 -36 vhcurveto
          hintmask 01101100
          -28 -30 -15 -26 -26 hvcurveto
          hintmask 01110100
          16 -25 rlineto
          16 19 21 8 17 hhcurveto
          hintmask 10101100
          153 -708 rmoveto
          -104 498 rlineto
          -82 hlineto
          -247 -498 rlineto
          70 hlineto
          hintmask 01101100
          21 56 37 74 101 1 113 -1 rlineto
          hintmask 10101100
          16 -77 4 -53 rlineto
          hintmask 01101100
          -33 188 rmoveto
          -173 hlineto
          119 239 rlineto
          4 hlineto
          endchar
        </CharString>
        <CharString name="amacron">
          -22 0 188 -57.5 57.5 239 71 124 50 hstemhm
          -3 449 hintmask 01111000
          446 667 rmoveto
          -6 5 rlineto
          -283 hlineto
          -5 -44 6 -6 rlineto
          283 hlineto
          -115 -124 rmoveto
          -82 hlineto
          hintmask 10111000
          -247 -498 rlineto
          70 hlineto
          hintmask 01111000
          21 56 37 74 101 1 113 -1 rlineto
          hintmask 10111000
          16 -77 4 -53 rlineto
          71 hlineto
          hintmask 01111000
          -104 188 rmoveto
          -173 hlineto
          119 239 rlineto
          4 hlineto
          endchar
        </CharString>
        <CharString name="ampersand">
          236 -11 57 188 57 -21 56 126 52 207 -20 hstemhm
          49 66 190 50 188 57 hintmask 00000000
          hintmask 11011111
          798 354 rmoveto
          -9 -1 rlineto
          -44 -17 -26 -18 -38 hhcurveto
          hintmask 10111111
          -54 -118 35 -51 hhcurveto
          -50 -5 -30 -24 -26 -50 16 -41 rcurveline
          9 1 rlineto
          44 21 25 19 35 hhcurveto
          14 21 -3 -5 23 hvcurveto
          -130 -1 -97 -86 -133 hhcurveto
          -106 -65 59 92 -19 hvcurveto
          230 87 233 200 78 175 -6 21 -9 16 -15 15 rrcurveto
          -8 hlineto
          -53 -121 -100 -116 -121 -91 rrcurveto
          3 11 1 11 9 vvcurveto
          51 -41 39 -70 -109 -86 -98 -153 -161 97 -103 161 168 115 106 156 10 vhcurveto
          hintmask 11011111
          -9 41 41 -8 27 hhcurveto
          50 5 29 26 26 48 rrcurveto
          -571 139 rmoveto
          34 25 -15 -33 3 hvcurveto
          2 -20 -8 -31 -31 -26 -49 -30 -51 -26 -53 -20 rrcurveto
          12 vlineto
          114 52 75 76 vhcurveto
          endchar
        </CharString>
        <CharString name="aogonek">
          -22 -196 52 165 -21 130.5 57.5 239 71 hstem
          279 53 89 7 vstem
          426 -101 rmoveto
          -5 hlineto
          -27 -22 -19 -16 -23 hhcurveto
          -13 -12 6 21 24 16 27 67 66 hvcurveto
          15 hlineto
          -104 498 rlineto
          -82 hlineto
          -247 -498 rlineto
          70 hlineto
          21 56 37 74 101 1 113 -1 16 -77 4 -53 rlineto
          -67 -75 -13 -29 -29 vvcurveto
          -40 29 -23 36 32 28 19 32 26 vhcurveto
          -104 333 rmoveto
          -173 hlineto
          119 239 rlineto
          4 hlineto
          endchar
        </CharString>
        <CharString name="approxequal">
          -32 128 277 hstem
          61 403 vstem
          180 344 rmoveto
          31 114 -43 -5 48 hvcurveto
          10 3 80 72 1 8 -17 26 rlineto
          -8 hlineto
          -30 -35 -22 -21 -16 hhcurveto
          -32 -114 42 7 -48 hvcurveto
          -10 -4 -80 -72 -1 -8 17 -26 rlineto
          9 hlineto
          29 34 21 22 18 hhcurveto
          -20 -165 rmoveto
          32 113 -43 -5 48 hvcurveto
          11 3 80 72 1 8 -18 26 rlineto
          -8 hlineto
          -30 -35 -22 -21 -16 hhcurveto
          -32 -113 42 7 -49 hvcurveto
          -10 -4 -80 -72 -1 -8 17 -26 rlineto
          10 hlineto
          29 33 22 22 17 hhcurveto
          endchar
        </CharString>
        <CharString name="aring">
          -22 0 188 -57.5 57.5 239 71 74 36 89 38 hstemhm
          217 37 91 37 hintmask 01111110
          298 572 rmoveto
          47 37 30 53 45 -28 35 -54 -52 -31 -33 -49 -52 35 -29 46 hvcurveto
          1 125 rmoveto
          31 15 -19 -26 -29 -19 -15 -26 -27 -19 16 30 27 15 16 30 hvcurveto
          hintmask 10111110
          131 -697 rmoveto
          -104 498 rlineto
          -82 hlineto
          -247 -498 rlineto
          70 hlineto
          hintmask 01111110
          21 56 37 74 101 1 113 -1 rlineto
          hintmask 10111110
          16 -77 4 -53 rlineto
          hintmask 01111110
          -33 188 rmoveto
          -173 hlineto
          119 239 rlineto
          4 hlineto
          endchar
        </CharString>
        <CharString name="aringacute">
          -22 0 188 -57.5 57.5 239 71 52 37 89 38 hstemhm
          212 36 92 37 hintmask 01111110
          215 736 rmoveto
          8 -6 68 18 66 15 71 22 rlinecurve
          4 7 -12 47 -8 3 -74 -28 -65 -22 -66 -20 rlinecurve
          5 -140 rmoveto
          -52 35 -30 46 46 38 30 54 45 -28 35 -54 -52 -31 -33 -49 vhcurveto
          128 -1 rmoveto
          -29 -20 -15 -26 -27 -19 16 30 26 16 17 29 32 15 -19 -26 vhcurveto
          -14 -133 rmoveto
          -82 hlineto
          hintmask 10111110
          -247 -498 rlineto
          70 hlineto
          hintmask 01111110
          21 56 37 74 101 1 113 -1 rlineto
          hintmask 10111110
          16 -77 4 -53 rlineto
          71 hlineto
          hintmask 01111110
          -104 188 rmoveto
          -173 hlineto
          119 239 rlineto
          4 hlineto
          endchar
        </CharString>
        <CharString name="arrowdown">
          2 18 -21 463 -20 23 -20 hstemhm
          231.5 51 hintmask 10110000
          461 190 rmoveto
          -13 42 rlineto
          -11 hlineto
          -156 -151 rlineto
          hintmask 11010000
          3 379 rlineto
          hintmask 10110000
          -49 3 -5 -5 3 -376 -155 150 rlineto
          -12 hlineto
          -12 -42 198 -193 rlineto
          12 hlineto
          endchar
        </CharString>
        <CharString name="arrowdownleft">
          2 59.5 47 hstem
          100.5 46 vstem
          398 105 rmoveto
          -215 3 269 266 -32 37 rlineto
          -8 hlineto
          -264 -268 -3 215 -8 9 -38 -21 3 -277 8 -8 276 -3 21 38 rlineto
          endchar
        </CharString>
        <CharString name="arrowdownright">
          2 57.5 46 hstem
          366.5 46.5 vstem
          414 343 rmoveto
          -38 21 -8 -8 -3 -217 -266 270 -37 -32 rlineto
          -8 vlineto
          268 -264 -215 -3 -9 -8 21 -38 277 3 8 8 rlineto
          endchar
        </CharString>
        <CharString name="arrowleft">
          2 206 51 hstem
          23 466 vstem
          486 204 rmoveto
          3 49 -5 6 -376 -4 150 155 rlineto
          12 vlineto
          -42 12 -193 -197 rlineto
          -12 vlineto
          193 -197 42 12 rlineto
          12 vlineto
          -151 156 rlineto
          endchar
        </CharString>
        <CharString name="arrowright">
          2 207 51 hstem
          24 466 vstem
          490 239 rmoveto
          -193 197 -42 -12 rlineto
          -12 vlineto
          151 -156 -379 4 -3 -49 5 -6 376 4 -150 -155 rlineto
          -12 vlineto
          42 -12 193 198 rlineto
          endchar
        </CharString>
        <CharString name="arrowup">
          2 21 -21 467 -20 hstem
          231.5 51 vstem
          460 273 rmoveto
          -198 194 rlineto
          -12 hlineto
          -197 -194 12 -41 rlineto
          12 hlineto
          156 150 -3 -378 49 -4 5 6 -3 375 155 -149 rlineto
          11 hlineto
          endchar
        </CharString>
        <CharString name="arrowupleft">
          2 356.5 47 hstem
          100 46.5 vstem
          451 91 rmoveto
          -268 264 215 3 9 9 -21 38 -277 -3 -8 -9 -2 -276 38 -20 8 8 3 217 266 -270 37 32 rlineto
          endchar
        </CharString>
        <CharString name="arrowupright">
          2 359.5 47 hstem
          367.5 46 vstem
          415 120 rmoveto
          -3 277 -8 8 -276 3 -21 -39 9 -8 215 -3 -269 -266 32 -37 rlineto
          8 hlineto
          264 268 3 -215 8 -9 rlineto
          endchar
        </CharString>
        <CharString name="asciicircum">
          -90 434 57 hstem
          9 381 vstem
          390 133 rmoveto
          -108 358 rlineto
          -63 hlineto
          -9 -4 -201 -358 40 -17 9 5 181 317 rlineto
          5 hlineto
          95 -319 45 10 rlineto
          endchar
        </CharString>
        <CharString name="asciitilde">
          -33 212 57 hstemhm
          53 383 hintmask 00000000
          hintmask 11000000
          151 259 rmoveto
          32 113 -43 -5 49 hvcurveto
          10 2 80 73 1 8 -17 26 rlineto
          -9 hlineto
          -30 -34 -22 -21 -17 hhcurveto
          -32 -113 41 8 -48 hvcurveto
          -11 -5 -80 -71 rlineto
          -8 vlineto
          17 -26 rlineto
          9 hlineto
          29 34 21 22 17 hhcurveto
          endchar
        </CharString>
        <CharString name="asterisk">
          -139 594 -20 22 -20 77 -20 hstemhm
          213.5 37.5 hintmask 01110000
          273 726 rmoveto
          -4 6 rlineto
          -18 -20 -3 -6 -18 hvcurveto
          1 -113 5 -7 32 4 rlineto
          hintmask 10110000
          -52 -13 rmoveto
          -98 59 -7 -2 rlineto
          -7 -18 -1 -22 -18 vvcurveto
          100 -34 8 3 rlineto
          hintmask 01110000
          74 34 rmoveto
          -3 -8 13 -29 112 17 3 4 -5 19 -10 18 -10 15 rlinecurve
          -95 -94 rmoveto
          -8 1 -23 -21 46 -111 7 -1 16 11 14 13 10 17 rlinecurve
          -114 76 rmoveto
          -27 15 -84 -83 rlineto
          -7 vlineto
          17 -10 18 -10 17 -6 60 92 rcurveline
          endchar
        </CharString>
        <CharString name="at">
          310 -197 46 -8 8 144 78 -57 -21 24 -21 411 58 -5 -20 25 -20 117 50 hstemhm
          36 53 133 64 454 52 hintmask 1000100111110000
          792 297 rmoveto
          190 -132 125 -204 -252 -168 -175 -250 -236 167 -144 248 -4 vhcurveto
          hintmask 0100100111110000
          24 38 -2 8 rlineto
          hintmask 1000101011110000
          -232 -152 129 219 212 144 151 216 2 hvcurveto
          179 2 112 -107 -162 vvcurveto
          -139 -77 -88 -134 -17 vhcurveto
          3 58 50 351 -10 5 rlineto
          hintmask 1001000111110000
          -44 -22 -64 22 rlineto
          -5 hlineto
          -157 -24 -80 -150 -141 vvcurveto
          -80 27 -49 48 -28 vhcurveto
          14 hlineto
          60 56 56 76 49 83 rrcurveto
          9 hlineto
          hintmask 1000100111110000
          -30 -212 rlineto
          216 9 121 105 187 vvcurveto
          hintmask 1010010011110000
          -474 -226 rmoveto
          -13 -19 20 77 129 59 109 101 1 hvcurveto
          62 -22 -1 -27 -1 -6 rlineto
          -185 -80 -88 -96 -20 hhcurveto
          endchar
        </CharString>
        <CharString name="atilde">
          -22 0 188 -57.5 57.5 239 71 207 -20 hstemhm
          -3 458 hintmask 01111000
          455 680 rmoveto
          -24 25 rlineto
          -7 hlineto
          -26 -26 -16 -20 -15 hhcurveto
          -25 -88 31 5 -42 hvcurveto
          -9 -3 -61 -67 rlineto
          -7 vlineto
          23 -25 rlineto
          9 hlineto
          25 25 16 21 15 hhcurveto
          26 88 -32 -5 41 hvcurveto
          9 4 61 67 rlineto
          -129 -175 rmoveto
          -82 hlineto
          hintmask 10111000
          -247 -498 rlineto
          70 hlineto
          hintmask 01111000
          21 56 37 74 101 1 113 -1 rlineto
          hintmask 10111000
          16 -77 4 -53 rlineto
          71 hlineto
          hintmask 01111000
          -104 188 rmoveto
          -173 hlineto
          119 239 rlineto
          4 hlineto
          endchar
        </CharString>
        <CharString name="b">
          -49 -3 54 -30 -21 226.5 56 160.5 56 hstemhm
          333 75 -72 72 hintmask 10110100
          315 259 rmoveto
          hintmask 01111000
          57 23 36 45 62 vvcurveto
          72 -54 38 -87 vhcurveto
          -144 -1 -41 -348 -21 -150 rlineto
          hintmask 10110100
          -2 37 53 -1 30 hhcurveto
          148 79 52 105 56 -33 34 -60 15 hvcurveto
          hintmask 10111000
          18 121 rmoveto
          -56 -27 -31 -55 -12 vhcurveto
          -87 3 22 159 rlineto
          58 hlineto
          61 28 -20 -43 hvcurveto
          hintmask 10110100
          -138 -329 rmoveto
          -17 -22 1 2 -20 hvcurveto
          11 102 9 70 96 1 rlineto
          56 -7 28 -24 -44 vvcurveto
          -66 -52 -35 -89 vhcurveto
          endchar
        </CharString>
        <CharString name="b.sups">
          -201 333 44 129 -20 158 -20 hstem
          266 57 vstem
          253 644 rmoveto
          -36 -34 -35 -50 -29 -54 rrcurveto
          -6 hlineto
          40 304 -62 -5 -5 -67 -51 -389 59 -10 36 -6 rlineto
          4 hlineto
          101 18 54 93 101 vvcurveto
          53 -16 28 -44 18 vhcurveto
          -132 -255 rmoveto
          6 39 rlineto
          102 50 48 58 11 hhcurveto
          7 13 -17 -49 -78 -33 -67 -58 hvcurveto
          endchar
        </CharString>
        <CharString name="backslash">
          -222 669 9 hstem
          30 263 vstem
          88 678 rmoveto
          -51 hlineto
          -7 -9 205 -782 rlineto
          52 hlineto
          6 8 rlineto
          endchar
        </CharString>
        <CharString name="bar">
          -199 -262 1059 hstem
          68 188 vstem
          256 792 rmoveto
          -5 5 -54 -5 -63 -509 -66 -537 5 -8 53 3 67 547 rlineto
          endchar
        </CharString>
        <CharString name="braceleft">
          -225 -134 49 690 50 -7 -20 hstemhm
          68 61 -18 62 -38 60 hintmask 10100100
          265 655 rmoveto
          -84 -46 -47 -106 hvcurveto
          -31 3 -46 -29 vvcurveto
          hintmask 10101000
          -71 -29 -34 -66 -11 vhcurveto
          -4 -39 rlineto
          49 -9 23 -25 -41 vvcurveto
          hintmask 10110000
          -51 -43 -88 -67 vvcurveto
          -61 33 -33 67 19 16 2 5 16 vhcurveto
          5 6 -3 41 rlineto
          -3 -14 -10 -2 -13 hhcurveto
          -37 -18 19 41 hvcurveto
          hintmask 10101000
          58 44 83 54 vvcurveto
          41 -19 31 -37 17 vhcurveto
          1 3 rlineto
          hintmask 11000100
          52 22 29 40 66 30 -4 48 33 vvcurveto
          74 24 30 50 13 10 -2 -3 13 vhcurveto
          hintmask 10100100
          13 42 -3 6 rlineto
          4 -16 -15 3 -19 hhcurveto
          endchar
        </CharString>
        <CharString name="braceright">
          -225 -134 50 690 49 hstemhm
          102 59 -37 62 -18 61 hintmask 11100000
          31 -134 rmoveto
          85 45 47 106 hvcurveto
          32 -2 45 29 vvcurveto
          71 28 34 66 11 vhcurveto
          hintmask 11010000
          5 39 rlineto
          -50 9 -22 25 42 50 43 88 67 vvcurveto
          hintmask 11001000
          61 -34 33 -67 -19 -15 -2 -5 -17 vhcurveto
          -5 -6 3 -41 rlineto
          3 14 10 2 13 hhcurveto
          37 19 -19 -40 hvcurveto
          hintmask 11010000
          -58 -44 -84 -54 vvcurveto
          -40 18 -32 37 -17 vhcurveto
          -1 -3 rlineto
          hintmask 11100000
          -52 -22 -29 -40 -66 -30 5 -47 -33 vvcurveto
          -74 -25 -31 -49 -13 -10 2 3 -14 vhcurveto
          -12 -42 3 -6 rlineto
          -4 16 14 -3 19 hhcurveto
          endchar
        </CharString>
        <CharString name="bracketleft">
          -225 -125 42.5 682 47.5 -6 -20 hstemhm
          223 8 hintmask 00000000
          hintmask 10110000
          323 641 rmoveto
          -4 6 rlineto
          hintmask 11010000
          -178 -10 -43 -378 -50 -379 175 -10 6 5 4 37 -118 11 82 671 121 11 rlineto
          endchar
        </CharString>
        <CharString name="bracketright">
          -225 -125 43 682 47 hstem
          65 8 vstem
          -27 -124 rmoveto
          4 -6 178 10 43 379 49 378 -174 10 -6 -5 -4 -37 118 -10 -82 -671 -121 -12 rlineto
          endchar
        </CharString>
        <CharString name="breve">
          526 55 59 -20 hstem
          145 11 vstem
          351 669 rmoveto
          -12 hlineto
          -60 -19 -34 -28 -48 hhcurveto
          -48 -28 28 60 -6 hvcurveto
          -11 hlineto
          -24 -29 rlineto
          -69 6 32 -45 76 hhcurveto
          66 45 43 71 23 hvcurveto
          endchar
        </CharString>
        <CharString name="breve.cap">
          542 55 hstem
          120 249 vstem
          351 657 rmoveto
          -12 hlineto
          -38 -19 -34 -22 -45 hhcurveto
          -47 -29 22 38 -8 hvcurveto
          -12 hlineto
          -25 -26 rlineto
          -57 12 44 -32 65 hhcurveto
          57 46 32 57 25 hvcurveto
          endchar
        </CharString>
        <CharString name="breveacute">
          522 55 hstem
          117 249 vstem
          329 738 rmoveto
          -34 24 -8 -1 -29 -37 -28 -34 -30 -35 rlinecurve
          26 -22 rlineto
          8 hlineto
          33 33 32 31 31 33 rrcurveto
          18 -93 rmoveto
          -12 hlineto
          -38 -19 -34 -22 -45 hhcurveto
          -47 -29 22 38 -8 hvcurveto
          -12 hlineto
          -25 -26 rlineto
          -57 12 44 -32 65 hhcurveto
          57 46 32 57 25 hvcurveto
          endchar
        </CharString>
        <CharString name="brevegrave">
          521 55 hstem
          118 249 vstem
          254 633 rmoveto
          26 22 -30 35 -28 34 -29 37 rlinecurve
          -7 1 -36 -24 rlineto
          -8 vlineto
          31 -33 32 -31 33 -33 rrcurveto
          103 4 rmoveto
          -12 hlineto
          -39 -19 -34 -22 -45 hhcurveto
          -47 -29 22 39 -8 hvcurveto
          -12 hlineto
          -25 -26 rlineto
          -58 12 44 -32 65 hhcurveto
          57 46 32 58 25 hvcurveto
          endchar
        </CharString>
        <CharString name="brevehookabove">
          523 54 192 42 hstem
          258 46 vstem
          243 811 rmoveto
          -28 -31 -15 -26 -25 hvcurveto
          15 -25 rlineto
          16 19 22 8 17 hhcurveto
          16 10 -7 -14 -17 -18 -24 -32 -24 hvcurveto
          32 -53 32 18 -19 34 rlineto
          35 29 16 21 24 vvcurveto
          31 -26 24 -35 vhcurveto
          105 -173 rmoveto
          -12 hlineto
          -38 -19 -34 -23 -45 hhcurveto
          -47 -29 23 38 -8 hvcurveto
          -12 hlineto
          -25 -26 rlineto
          -57 12 44 -32 65 hhcurveto
          57 46 32 57 25 hvcurveto
          endchar
        </CharString>
        <CharString name="brevetilde">
          522 54 hstem
          109 293 vstem
          402 757 rmoveto
          -21 24 rlineto
          -8 hlineto
          -25 -24 -14 -20 -15 hhcurveto
          -24 -82 30 5 -39 hvcurveto
          -9 -3 -57 -64 rlineto
          -8 vlineto
          22 -23 rlineto
          8 hlineto
          24 23 15 20 14 hhcurveto
          25 82 -31 -5 39 hvcurveto
          9 3 56 66 rlineto
          -66 -115 rmoveto
          -12 hlineto
          -38 -18 -34 -21 -44 hhcurveto
          -46 -28 21 38 -8 hvcurveto
          -12 hlineto
          -24 -25 rlineto
          -56 12 42 -32 64 hhcurveto
          56 45 32 56 25 hvcurveto
          endchar
        </CharString>
        <CharString name="brokenbar">
          -199 -262 1059 hstem
          68 188 vstem
          256 792 rmoveto
          -5 5 -54 -5 -52 -420 6 -6 53 6 rlineto
          -27 -220 rmoveto
          -6 8 -52 -6 -51 -408 6 -8 52 3 rlineto
          endchar
        </CharString>
        <CharString name="bullet">
          -259 188 99 hstem
          80 97 vstem
          130 287 rmoveto
          -31 -19 -20 -31 -30 17 -18 30 30 20 20 31 30 -18 18 -29 hvcurveto
          endchar
        </CharString>
        <CharString name="bulletoperator">
          -259 188 99 hstem
          105 97 vstem
          155 287 rmoveto
          -31 -19 -20 -31 -30 17 -18 30 30 20 20 31 30 -18 18 -29 hvcurveto
          endchar
        </CharString>
        <CharString name="c">
          -68 -6 60 390 58 -35 -20 hstemhm
          45 74 hintmask 11010000
          308 502 rmoveto
          -165 -98 -109 -190 -131 71 -78 123 51 42 13 25 46 hvcurveto
          14 65 -9 3 rlineto
          -28 -40 -50 -18 -48 hhcurveto
          -81 -45 56 101 152 64 81 112 48 42 -17 -28 27 hvcurveto
          10 3 rlineto
          hintmask 10110000
          21 65 rlineto
          hintmask 11010000
          23 -35 -48 12 -52 hhcurveto
          endchar
        </CharString>
        <CharString name="c.sups">
          -273 333 50 217 46 hstem
          64 57 vstem
          274 631 rmoveto
          -47 15 rlineto
          -115 -48 -91 -111 -77 26 -27 56 -7 hvcurveto
          9 hlineto
          41 9 29 20 29 50 -20 26 rcurveline
          -8 hlineto
          -42 -24 -22 -13 -20 hhcurveto
          -26 -13 19 52 92 30 54 56 13 12 -7 -14 15 hvcurveto
          14 2 16 43 rlineto
          endchar
        </CharString>
        <CharString name="cacute">
          -68 -6 60 390 58 -35 -20 143 -20 hstemhm
          45 74 hintmask 11011000
          367 734 rmoveto
          -9 1 -56 -55 -52 -45 -54 -45 rlinecurve
          21 -30 8 -1 57 40 53 41 58 46 rlinecurve
          2 9 rlineto
          -88 -193 rmoveto
          -164 -98 -109 -190 -131 70 -78 123 52 42 13 25 45 hvcurveto
          14 65 -8 3 rlineto
          -28 -40 -51 -18 -47 hhcurveto
          -82 -44 56 101 152 64 81 111 49 41 -17 -28 28 hvcurveto
          9 3 rlineto
          hintmask 10111000
          22 65 rlineto
          hintmask 11011000
          23 -35 -49 12 -52 hhcurveto
          endchar
        </CharString>
        <CharString name="caron">
          522 164 hstem
          116 262 vstem
          362 686 rmoveto
          -10 hlineto
          -42 -37 -37 -33 -36 -36 -26 36 -28 33 -34 37 rrcurveto
          -9 hlineto
          -24 -31 37 -40 36 -45 33 -48 rlinecurve
          23 hlineto
          49 50 43 45 41 38 rrcurveto
          endchar
        </CharString>
        <CharString name="caron.alt">
          510 -20 hstem
          196 86 vstem
          282 680 rmoveto
          -5 6 -54 -4 -27 -172 6 -6 37 6 rlineto
          endchar
        </CharString>
        <CharString name="caron.cap">
          598 -20 hstem
          118 252 vstem
          358 664 rmoveto
          -9 hlineto
          -38 -22 -36 -21 -36 -23 -31 23 -31 21 -31 22 rrcurveto
          -9 hlineto
          -19 -32 36 -28 36 -31 34 -31 rlinecurve
          22 hlineto
          37 31 42 31 45 28 rrcurveto
          endchar
        </CharString>
        <CharString name="ccaron">
          -68 -6 60 390 58 -35 -20 hstemhm
          45 74 hintmask 11010000
          409 726 rmoveto
          -10 hlineto
          -42 -37 -37 -33 -36 -36 -26 36 -28 33 -34 37 rrcurveto
          -9 hlineto
          -24 -31 37 -40 36 -45 33 -48 rlinecurve
          23 hlineto
          49 50 43 45 41 38 rrcurveto
          -118 -193 rmoveto
          -164 -98 -109 -190 -131 70 -78 123 52 42 13 25 45 hvcurveto
          14 65 -8 3 rlineto
          -28 -40 -51 -18 -47 hhcurveto
          -82 -44 56 101 152 64 81 111 49 41 -17 -28 28 hvcurveto
          9 3 rlineto
          hintmask 10110000
          22 65 rlineto
          hintmask 11010000
          23 -35 -49 12 -52 hhcurveto
          endchar
        </CharString>
        <CharString name="ccedilla">
          -68 -192 40 147 59 390 58 -35 -20 hstemhm
          45 74 153 50 hintmask 11101100
          307 502 rmoveto
          -164 -98 -109 -190 -125 63 -76 112 -7 hvcurveto
          -17 -66 47 -29 rlineto
          13 -6 9 -6 -13 vvcurveto
          -18 -14 -9 -19 -24 -15 12 19 -16 vhcurveto
          -5 -2 -8 -38 rlineto
          -16 15 23 -15 34 hhcurveto
          46 33 26 39 22 -10 18 -28 15 hvcurveto
          -33 20 14 47 40 4 35 12 37 21 rlinecurve
          14 65 -8 3 rlineto
          -28 -40 -51 -18 -47 hhcurveto
          -82 -44 56 101 152 64 81 111 49 41 -17 -28 28 hvcurveto
          9 3 rlineto
          hintmask 11011100
          22 65 rlineto
          hintmask 11101100
          23 -35 -49 12 -52 hhcurveto
          endchar
        </CharString>
        <CharString name="ccircumflex">
          -68 -6 60 390 58 -35 -20 144 -20 hstemhm
          45 74 hintmask 11011000
          179 561 rmoveto
          9 hlineto
          42 36 38 34 35 35 26 -35 28 -34 35 -36 rrcurveto
          8 hlineto
          24 30 -35 41 -35 45 -33 48 rlinecurve
          -23 hlineto
          -49 -51 -44 -44 -43 -39 rrcurveto
          145 -89 rmoveto
          -164 -98 -109 -190 -131 70 -78 123 52 42 13 25 45 hvcurveto
          14 65 -8 3 rlineto
          -28 -40 -51 -18 -47 hhcurveto
          -82 -44 56 101 152 64 81 111 49 41 -17 -28 28 hvcurveto
          9 3 rlineto
          hintmask 10111000
          22 65 rlineto
          hintmask 11011000
          23 -35 -49 12 -52 hhcurveto
          endchar
        </CharString>
        <CharString name="cdotaccent">
          -68 -6 60 390 58 -35 -20 165 89 hstemhm
          45 74 132 87 hintmask 11011100
          297 701 rmoveto
          -28 -18 -18 -27 -27 16 -17 27 27 17 18 28 27 -15 16 -26 hvcurveto
          10 -199 rmoveto
          -164 -98 -109 -190 -131 70 -78 123 52 42 13 25 45 hvcurveto
          14 65 -8 3 rlineto
          -28 -40 -51 -18 -47 hhcurveto
          -82 -44 56 101 152 64 81 111 49 41 -17 -28 28 hvcurveto
          9 3 rlineto
          hintmask 10111100
          22 65 rlineto
          hintmask 11011100
          23 -35 -49 12 -52 hhcurveto
          endchar
        </CharString>
        <CharString name="cedilla">
          -192 40 hstem
          174 50 vstem
          153 -52 rmoveto
          21 71 rlineto
          -45 hlineto
          -24 -90 47 -29 rlineto
          13 -6 9 -6 -13 vvcurveto
          -18 -14 -9 -19 -24 -15 12 19 -16 vhcurveto
          -5 -2 -8 -38 rlineto
          -16 15 23 -15 34 hhcurveto
          46 33 26 39 22 -10 18 -28 15 hvcurveto
          endchar
        </CharString>
        <CharString name="cent">
          -124 -119 7 568 49 0 -20 159 8 hstemhm
          42 59 hintmask 10111000
          362 475 rmoveto
          -6 10 -68 20 rlineto
          -14 hlineto
          23 139 -7 8 rlineto
          -37 hlineto
          -26 -153 rlineto
          -128 -29 -57 -121 -146 vvcurveto
          -118 41 -35 68 -12 vhcurveto
          -24 -150 5 -7 rlineto
          37 hlineto
          28 164 48 17 38 31 39 61 rlinecurve
          -20 28 -11 1 -29 -52 -30 -25 -27 -11 rlinecurve
          hintmask 11011000
          61 361 20 -2 20 -8 25 -22 rlinecurve
          14 3 rlineto
          -244 -214 rmoveto
          129 44 87 74 22 vhcurveto
          -60 -361 rlineto
          -38 6 -20 36 81 vvcurveto
          endchar
        </CharString>
        <CharString name="circle1">
          -63 9 -21 476 -20 hstem
          -12 476 vstem
          226 464 rmoveto
          -131 -107 -107 -131 -131 107 -107 131 131 107 107 131 131 -107 107 -131 hvcurveto
          endchar
        </CharString>
        <CharString name="circle2">
          123 649 -20 hstem
          -13 663 vstem
          318 649 rmoveto
          -183 -148 -149 -183 -183 148 -148 183 183 149 148 183 183 -149 149 -183 hvcurveto
          endchar
        </CharString>
        <CharString name="circumflex">
          521 164 hstem
          103 262 vstem
          120 521 rmoveto
          9 hlineto
          42 36 38 34 35 35 26 -35 28 -34 35 -36 rrcurveto
          8 hlineto
          24 30 -35 41 -35 45 -33 48 rlinecurve
          -23 hlineto
          -49 -51 -44 -44 -43 -39 rrcurveto
          endchar
        </CharString>
        <CharString name="circumflex.cap">
          550 122 hstem
          112 253 vstem
          124 550 rmoveto
          9 hlineto
          38 22 36 22 37 23 30 -23 30 -22 33 -22 rrcurveto
          8 hlineto
          20 33 -37 28 -37 30 -32 31 rlinecurve
          -22 hlineto
          -39 -31 -40 -30 -46 -28 rrcurveto
          endchar
        </CharString>
        <CharString name="circumflexacute">
          598 55 0 -20 hstemhm
          105 295 hintmask 01100000
          398 743 rmoveto
          -36 18 -18 -15 -57 -90 26 -20 18 12 69 87 rlineto
          -171 -82 rmoveto
          hintmask 10100000
          -38 -31 -41 -30 -45 -28 12 -33 rcurveline
          9 hlineto
          38 22 36 22 36 23 31 -23 30 -22 32 -22 rrcurveto
          9 hlineto
          19 33 -36 28 -37 30 -33 31 rlinecurve
          endchar
        </CharString>
        <CharString name="circumflexgrave">
          597 55 0 -20 hstemhm
          110 260 hintmask 01100000
          313 746 rmoveto
          -17 14 -37 -17 -2 -9 70 -86 17 -12 26 20 rlineto
          -136 -4 rmoveto
          hintmask 10100000
          -38 -31 -41 -30 -45 -28 11 -33 rcurveline
          9 hlineto
          38 23 37 21 36 23 31 -23 29 -21 33 -23 rrcurveto
          8 hlineto
          20 33 -37 28 -37 30 -32 31 rlinecurve
          endchar
        </CharString>
        <CharString name="circumflexhookabove">
          598 55 0 -20 126 40 hstemhm
          344 43 hintmask 01110000
          328 799 rmoveto
          -26 -30 -15 -24 -24 hvcurveto
          16 -24 rlineto
          15 17 21 8 16 hhcurveto
          15 11 -7 -13 -16 -18 -23 -30 -23 hvcurveto
          29 -50 32 17 -18 32 rlineto
          33 28 15 20 22 vvcurveto
          30 -25 23 -34 vhcurveto
          -96 -146 rmoveto
          hintmask 10110000
          -38 -31 -41 -30 -45 -28 11 -33 rcurveline
          9 hlineto
          38 22 37 22 36 23 31 -23 29 -22 33 -22 rrcurveto
          8 hlineto
          20 33 -37 28 -37 30 -32 31 rlinecurve
          endchar
        </CharString>
        <CharString name="circumflextilde">
          532 249 hstem
          99 303 vstem
          402 757 rmoveto
          -22 24 rlineto
          -7 hlineto
          -25 -24 -15 -20 -14 hhcurveto
          -24 -83 30 5 -39 hvcurveto
          -9 -3 -57 -64 rlineto
          -8 vlineto
          23 -23 rlineto
          7 hlineto
          24 23 15 20 14 hhcurveto
          25 82 -31 -5 40 hvcurveto
          8 3 57 66 rlineto
          -178 -96 rmoveto
          -39 -31 -40 -31 -46 -28 12 -32 rcurveline
          9 hlineto
          38 22 36 21 37 23 30 -23 30 -21 32 -22 rrcurveto
          9 hlineto
          20 32 -37 28 -37 31 -33 31 rlinecurve
          endchar
        </CharString>
        <CharString name="colon">
          -284 -5 89 182 88 hstemhm
          47 87 -54 87 hintmask 00000000
          hintmask 11010000
          126 354 rmoveto
          -28 -18 -18 -27 -27 16 -16 27 27 17 18 28 26 -15 16 -26 hvcurveto
          hintmask 11100000
          -34 -270 rmoveto
          -28 -17 -18 -27 -27 16 -17 27 27 17 19 28 26 -15 16 -27 hvcurveto
          endchar
        </CharString>
        <CharString name="comma">
          -284 -68 -21 hstem
          77 62 vstem
          98 84 rmoveto
          -19 -6 -18 -9 -15 -10 rrcurveto
          -8 vlineto
          20 -13 11 -15 -18 vvcurveto
          -29 -19 -30 -36 -29 vhcurveto
          -6 vlineto
          25 -24 rlineto
          62 45 30 44 42 vvcurveto
          27 -14 22 -27 17 vhcurveto
          endchar
        </CharString>
        <CharString name="commaaccent">
          -513 -69 -21 hstem
          142 58 vstem
          161 -60 rmoveto
          -18 -6 -15 -8 -15 -10 rrcurveto
          -6 vlineto
          18 -13 11 -14 -17 vvcurveto
          -27 -18 -28 -33 -27 vhcurveto
          -1 -6 25 -22 rlineto
          57 42 28 41 39 vvcurveto
          26 -14 20 -25 16 vhcurveto
          endchar
        </CharString>
        <CharString name="copyright">
          178 -12 33 105 45 249 45 100 33 hstem
          57 33 117 54 354 33 vstem
          353 598 rmoveto
          -178 -118 -122 -183 -183 118 -122 178 177 118 122 183 183 -118 122 -177 hvcurveto
          -33 vmoveto
          157 105 -109 -163 -163 -105 -109 -157 -158 -105 109 163 163 105 109 158 hvcurveto
          15 -100 rmoveto
          -104 -57 -62 -109 -108 52 -60 103 29 33 9 14 29 hvcurveto
          4 44 -6 2 rlineto
          -15 -25 -33 -9 -28 hhcurveto
          -68 -36 44 83 81 36 41 69 27 30 -8 -15 22 hvcurveto
          5 2 11 43 rlineto
          14 -28 -32 9 -33 hhcurveto
          endchar
        </CharString>
        <CharString name="currency">
          -77 215 45 197 44 10 -20 hstemhm
          89 45 199 44 hintmask 00000000
          hintmask 10111000
          435 511 rmoveto
          hintmask 11011000
          -30 32 rlineto
          -9 hlineto
          -71 -67 rlineto
          16 -19 -27 9 -28 hhcurveto
          -29 -30 -9 -18 -24 hvcurveto
          -56 68 rlineto
          -8 hlineto
          -36 -33 -1 -9 60 -62 rlineto
          -23 -27 -15 -30 -35 vvcurveto
          -25 6 -25 13 -18 vhcurveto
          -74 -62 -3 -9 31 -32 8 -1 71 68 rlineto
          -16 19 27 -11 29 hhcurveto
          29 30 11 17 24 hvcurveto
          56 -67 8 -1 37 35 rlineto
          8 vlineto
          -60 63 rlineto
          23 25 14 32 34 vvcurveto
          hintmask 10111000
          25 -6 24 -12 18 vhcurveto
          74 63 rlineto
          hintmask 11011000
          -187 -45 rmoveto
          51 36 -38 -50 -61 -51 -48 -61 -51 -36 38 50 60 53 49 59 hvcurveto
          endchar
        </CharString>
        <CharString name="d">
          36 -5 58 -32 -21 441 61 hstemhm
          437 73 hintmask 10110000
          123 498 rmoveto
          -41 -348 rlineto
          hintmask 01110000
          -21 -150 rlineto
          hintmask 10110000
          -3 45 94 -2 33 hhcurveto
          178 99 118 191 126 -75 72 -129 hvcurveto
          -60 -449 rmoveto
          -18 -59 2 3 -32 hvcurveto
          10 98 39 282 rlineto
          1 30 64 2 17 hhcurveto
          91 49 -49 -102 -156 -72 -81 -119 hvcurveto
          endchar
        </CharString>
        <CharString name="d.sups">
          -202 333 56 211 44 -4 -20 hstemhm
          61 56 hintmask 01010000
          336 810 rmoveto
          -62 -5 rlineto
          hintmask 00110000
          -3 -67 -13 -98 rlineto
          hintmask 11010000
          -36 4 rlineto
          -4 hlineto
          -105 -18 -52 -96 -99 vvcurveto
          -52 14 -29 46 -17 vhcurveto
          10 hlineto
          36 34 34 48 29 55 rrcurveto
          5 hlineto
          -18 -136 62 4 5 72 rlineto
          -146 -21 rmoveto
          -8 -13 17 47 81 33 66 60 hvcurveto
          42 -7 -7 -46 rlineto
          -102 -50 -47 -56 -10 hhcurveto
          endchar
        </CharString>
        <CharString name="dagger">
          -32 -73 -21 444 52 183 -20 25 -20 hstemhm
          224 53 hintmask 11011000
          449 350 rmoveto
          11 47 -6 5 rlineto
          -166 hlineto
          hintmask 11101000
          23 183 -4 5 rlineto
          hintmask 11011000
          -50 -5 -22 -183 rlineto
          -166 hlineto
          -11 -46 5 -6 rlineto
          165 hlineto
          -8 -67 -46 -370 4 -7 49 3 46 378 8 63 rlineto
          endchar
        </CharString>
        <CharString name="daggerdbl">
          -33 -73 -21 179 53 217 52 178 -20 25 -20 hstemhm
          223.5 53.5 hintmask 11101100
          273 287 rmoveto
          8 68 rlineto
          169 hlineto
          10 47 -6 5 rlineto
          -166 hlineto
          hintmask 11110100
          22 178 -3 5 rlineto
          hintmask 11101100
          -51 -5 -22 -178 rlineto
          -165 hlineto
          -11 -46 5 -6 rlineto
          165 hlineto
          -9 -72 -18 -145 rlineto
          -165 hlineto
          -11 -47 5 -6 rlineto
          165 hlineto
          -21 -172 4 -7 48 3 22 176 rlineto
          169 hlineto
          10 47 -6 6 rlineto
          -167 hlineto
          endchar
        </CharString>
        <CharString name="dcaron">
          36 -5 58 -32 -21 441 61 hstemhm
          436 73 hintmask 10110000
          306 562 rmoveto
          49 50 43 45 41 38 -16 31 rcurveline
          -10 hlineto
          -42 -37 -37 -33 -36 -36 -26 36 -28 33 -34 37 rrcurveto
          -9 hlineto
          -24 -31 37 -40 36 -45 33 -48 rlinecurve
          -160 -64 rmoveto
          -41 -348 rlineto
          hintmask 01110000
          -21 -150 rlineto
          hintmask 10110000
          -3 45 93 -2 33 hhcurveto
          179 98 118 191 126 -75 72 -128 hvcurveto
          -60 -449 rmoveto
          -18 -59 2 3 -32 hvcurveto
          10 98 38 282 rlineto
          1 31 64 2 17 hhcurveto
          91 48 -49 -102 -156 -71 -81 -119 hvcurveto
          endchar
        </CharString>
        <CharString name="dcroat">
          36 -5 58 -32 -21 441 61 120 50 hstemhm
          436 73 hintmask 10111000
          167 622 rmoveto
          283 hlineto
          5 45 -6 5 rlineto
          -283 hlineto
          -5 -44 rlineto
          -38 -130 rmoveto
          -41 -348 rlineto
          hintmask 01111000
          -21 -150 rlineto
          hintmask 10111000
          -3 45 93 -2 33 hhcurveto
          179 98 118 191 126 -75 72 -128 hvcurveto
          -60 -449 rmoveto
          -18 -59 2 3 -32 hvcurveto
          10 98 38 282 rlineto
          1 31 64 2 17 hhcurveto
          91 48 -49 -102 -156 -71 -81 -119 hvcurveto
          endchar
        </CharString>
        <CharString name="degree">
          -219 399 37 173 38 hstem
          56 38 177 38 vstem
          198 647 rmoveto
          -75 -67 -61 -76 -63 47 -48 65 75 66 61 76 62 -46 49 -65 hvcurveto
          -5 -38 rmoveto
          45 33 -35 -43 -51 -47 -44 -52 -44 -34 36 43 51 48 43 51 hvcurveto
          endchar
        </CharString>
        <CharString name="dieresis">
          563 85 -85 86 hstemhm
          120 83 76 83 hintmask 00000000
          hintmask 01110000
          163 649 rmoveto
          -27 -16 -17 -27 hvcurveto
          hintmask 10110000
          -26 15 -16 26 25 17 18 27 vhcurveto
          hintmask 01110000
          24 -15 17 -25 vhcurveto
          hintmask 10110000
          160 -1 rmoveto
          -28 -16 -17 -27 -26 15 -15 26 25 17 17 27 25 -15 16 -24 hvcurveto
          endchar
        </CharString>
        <CharString name="dieresis.i">
          563 85 hstem
          137 83 42 83 vstem
          181 648 rmoveto
          -27 -17 -17 -27 -26 15 -15 26 26 16 17 27 25 -15 16 -24 hvcurveto
          124 hmoveto
          -27 -16 -17 -27 -26 14 -15 27 25 17 17 27 25 -15 16 -25 hvcurveto
          endchar
        </CharString>
        <CharString name="dieresisacute">
          546 80 hstem
          119 80 76 80 vstem
          347 784 rmoveto
          -7 4 -74 -28 -65 -20 -67 -20 rlinecurve
          7 -36 9 -5 68 15 66 16 71 19 rlinecurve
          5 9 rlineto
          -200 -112 rmoveto
          -25 -16 -16 -25 -25 15 -14 24 25 16 16 25 24 -15 15 -24 hvcurveto
          156 hmoveto
          -25 -16 -16 -25 -25 15 -14 24 25 16 16 25 24 -15 15 -24 hvcurveto
          endchar
        </CharString>
        <CharString name="dieresiscaron">
          546 80 79 -20 hstem
          122 79 76 80 vstem
          367 772 rmoveto
          -9 hlineto
          -39 -22 -35 -22 -37 -23 -30 23 -31 22 -32 22 rrcurveto
          -8 hlineto
          -20 -33 37 -28 36 -30 34 -31 rlinecurve
          21 hlineto
          38 31 41 30 46 28 rrcurveto
          -217 -113 rmoveto
          -25 -15 -16 -25 -25 14 -14 24 25 16 16 25 24 -15 15 -24 hvcurveto
          156 hmoveto
          -25 -16 -16 -25 -25 15 -14 24 25 16 16 25 24 -15 15 -24 hvcurveto
          endchar
        </CharString>
        <CharString name="dieresisgrave">
          546 80 hstem
          118 80 76 80 vstem
          165 784 rmoveto
          -17 -46 4 -9 68 -19 65 -16 65 -15 rlinecurve
          10 5 11 36 -64 20 -64 20 -69 28 rlinecurve
          -10 -162 rmoveto
          -28 -18 -19 -27 -21 12 -13 22 28 18 19 27 21 -13 13 -21 hvcurveto
          156 hmoveto
          -28 -18 -19 -27 -21 12 -13 22 28 18 19 27 21 -13 13 -21 hvcurveto
          endchar
        </CharString>
        <CharString name="dieresismacron">
          546 80 67 51 -45 -20 hstemhm
          134 79 77 79 hintmask 01011000
          397 738 rmoveto
          -6 6 rlineto
          -257 hlineto
          hintmask 00111000
          -5 -45 7 -6 rlineto
          hintmask 11011000
          256 hlineto
          -217 -67 rmoveto
          -26 -15 -16 -25 -25 15 -14 23 26 15 16 25 24 -14 15 -24 hvcurveto
          156 hmoveto
          -26 -15 -16 -25 -25 14 -14 24 26 15 16 25 24 -14 15 -24 hvcurveto
          endchar
        </CharString>
        <CharString name="divide">
          -35 50 84 105 53 109 84 hstemhm
          180 82 -39 82 hintmask 00000000
          hintmask 01101000
          265 485 rmoveto
          -26 -16 -17 -26 -25 14 -16 26 25 17 17 27 24 -15 16 -25 hvcurveto
          187 -199 rmoveto
          -7 6 rlineto
          -406 hlineto
          -4 -47 5 -6 rlineto
          407 hlineto
          hintmask 11010000
          -224 -105 rmoveto
          -27 -16 -18 -25 -26 15 -15 25 26 16 17 26 25 -14 16 -25 hvcurveto
          endchar
        </CharString>
        <CharString name="divisionslash">
          -225 -113 8 774 9 hstem
          -3 317 vstem
          314 669 rmoveto
          -6 9 rlineto
          -51 hlineto
          -260 -783 5 -8 rlineto
          52 hlineto
          endchar
        </CharString>
        <CharString name="dollar">
          -86 -129 7 117 49 406 50 0 -20 151 8 hstemhm
          76 62 156 62 hintmask 11011110
          360 416 rmoveto
          17 61 -34 14 -37 8 -32 1 rlinecurve
          18 131 -9 8 rlineto
          -37 hlineto
          -17 -140 rlineto
          -95 -10 -58 -65 -69 vvcurveto
          -72 60 -31 57 -26 vhcurveto
          -25 -182 -39 3 -47 17 -32 33 rlinecurve
          -10 -4 -12 -64 39 -22 53 -11 42 -1 rlinecurve
          -14 -117 6 -7 rlineto
          38 hlineto
          16 127 rlineto
          94 14 54 67 67 vvcurveto
          70 -56 31 -55 25 vhcurveto
          hintmask 11101110
          24 178 26 -3 26 -12 28 -22 rlinecurve
          -211 -48 rmoveto
          36 30 38 54 9 vhcurveto
          -21 -155 rlineto
          -35 18 -28 20 34 vvcurveto
          156 -231 rmoveto
          -36 -31 -36 -48 -13 vhcurveto
          21 156 rlineto
          33 -18 25 -20 -33 vvcurveto
          endchar
        </CharString>
        <CharString name="dotaccent">
          572 89 hstem
          198 87 vstem
          244 661 rmoveto
          -28 -18 -18 -27 -27 16 -17 27 27 17 18 28 27 -15 16 -26 hvcurveto
          endchar
        </CharString>
        <CharString name="dotbelowcomb">
          -513 -161 88 hstem
          108 87 vstem
          153 -73 rmoveto
          -28 -17 -18 -27 -27 16 -16 27 27 17 18 28 26 -16 16 -26 hvcurveto
          endchar
        </CharString>
        <CharString name="dotlessi">
          -261 21 -21 498 -20 hstem
          61 132 vstem
          147 156 rmoveto
          46 342 rlineto
          -70 hlineto
          -40 -348 -22 -150 rlineto
          70 hlineto
          endchar
        </CharString>
        <CharString name="dotlessj">
          -226 443 55 hstem
          105 65.5 vstem
          219 498 rmoveto
          -165 hlineto
          -12 -50 5 -5 rlineto
          95 hlineto
          -33 -286 -8 -62 -7 -57 -28 -35 -66 -35 rlinecurve
          -1 -8 24 -39 97 46 36 46 10 79 rlinecurve
          9 73 rlineto
          endchar
        </CharString>
        <CharString name="down">
          -103 74 283 hstem
          64 283 vstem
          205 74 rmoveto
          142 283 rlineto
          -283 hlineto
          endchar
        </CharString>
        <CharString name="e">
          -94 0 57.5 168.5 57.5 157 57.5 hstem
          61 356 vstem
          186 440 rmoveto
          100 1 119 -4 12 54 -3 7 rlineto
          -291 hlineto
          -41 -348 -21 -150 rlineto
          289 hlineto
          13 55 -5 5 -128 -3 -93 1 10 98 10 70 rlineto
          90 hlineto
          89 -2 11 55 -3 7 -83 -3 -96 1 rlineto
          endchar
        </CharString>
        <CharString name="e.sups">
          -249 333 44 230 40 hstem
          64 57 110 54 vstem
          248 433 rmoveto
          -9 1 rlineto
          -37 -21 -25 -20 -28 hhcurveto
          -29 -14 23 54 -1 hvcurveto
          114 37 50 41 52 vvcurveto
          36 -24 21 -38 6 vhcurveto
          -7 hlineto
          -90 -4 -61 -81 -1 -116 rrcurveto
          -68 24 -39 66 -6 vhcurveto
          8 hlineto
          41 7 36 24 29 44 rrcurveto
          -65 199 rmoveto
          19 9 -12 -15 -35 -38 -30 -70 -25 hvcurveto
          72 7 31 45 42 hhcurveto
          endchar
        </CharString>
        <CharString name="eacute">
          -94 0 57.5 168.5 57.5 157 57.5 92 -20 hstem
          61 357 vstem
          209 560 rmoveto
          8 -1 57 40 53 41 58 46 rlinecurve
          2 9 -28 39 -9 1 -56 -55 -52 -45 -54 -45 rlinecurve
          -3 -150 rmoveto
          102 1 118 -4 13 54 -3 7 rlineto
          -292 hlineto
          -41 -348 -21 -150 rlineto
          289 hlineto
          13 55 -5 5 -128 -3 -93 1 10 98 9 70 rlineto
          91 hlineto
          88 -2 12 55 -4 7 -83 -3 -96 1 rlineto
          endchar
        </CharString>
        <CharString name="ebreve">
          -94 0 57.5 168.5 57.5 157 57.5 68 55 59 29 0 -20 hstemhm
          185 11 hintmask 11110110
          275 566 rmoveto
          hintmask 11111010
          66 45 43 71 23 hvcurveto
          -18 29 rlineto
          -12 hlineto
          -60 -19 -34 -28 -48 hhcurveto
          -48 -28 28 60 -6 hvcurveto
          -11 hlineto
          -24 -29 rlineto
          hintmask 11110110
          -69 6 32 -45 76 hhcurveto
          -90 -126 rmoveto
          102 1 118 -4 13 54 -3 7 rlineto
          -292 hlineto
          -41 -348 -21 -150 rlineto
          289 hlineto
          13 55 -5 5 -128 -3 -93 1 10 98 9 70 rlineto
          91 hlineto
          88 -2 12 55 -4 7 -83 -3 -96 1 rlineto
          endchar
        </CharString>
</ttFont>
